<svg width="134" height="42" viewBox="0 0 134 42" fill="none" xmlns="http://www.w3.org/2000/svg">
<path d="M40.4937 12.4891C39.3885 11.3786 38.0722 10.4982 36.6217 9.89918C35.1713 9.30017 33.6155 8.99453 32.0452 9.00007C25.4651 9.00007 20.1025 14.3371 20.0964 20.889C20.0964 22.9875 20.6479 25.029 21.6891 26.8365L20 33L26.3345 31.347C28.0869 32.2964 30.0501 32.794 32.0452 32.7945H32.0512C38.6328 32.7945 43.994 27.4575 44 20.8995C44.0015 19.3366 43.6923 17.7888 43.0903 16.3454C42.4883 14.9019 41.6053 13.5913 40.4922 12.4891H40.4937ZM32.0452 30.7815C30.2657 30.7821 28.5189 30.3054 26.9884 29.4015L26.6268 29.1855L22.8689 30.1665L23.8724 26.517L23.6374 26.1405C22.6426 24.566 22.1165 22.7431 22.12 20.883C22.12 15.4441 26.5756 11.0071 32.0512 11.0071C33.3557 11.0047 34.6478 11.2595 35.8529 11.7566C37.058 12.2537 38.1523 12.9834 39.0728 13.9036C39.9965 14.8201 40.7288 15.9097 41.2274 17.1094C41.726 18.3091 41.9811 19.5952 41.9779 20.8935C41.9719 26.352 37.5163 30.7815 32.0452 30.7815ZM37.4922 23.3805C37.1954 23.232 35.7293 22.5135 35.4535 22.4115C35.1793 22.314 34.9789 22.263 34.783 22.56C34.5826 22.8555 34.01 23.529 33.8383 23.7225C33.6665 23.922 33.4887 23.9445 33.1904 23.7975C32.8935 23.6475 31.9307 23.3355 30.7916 22.32C29.9026 21.5325 29.3074 20.5575 29.1296 20.262C28.9578 19.965 29.113 19.806 29.2622 19.6575C29.3933 19.5255 29.559 19.3095 29.7082 19.1385C29.8589 18.9675 29.9086 18.8415 30.0065 18.6435C30.1045 18.4425 30.0578 18.2715 29.9839 18.123C29.9086 17.9745 29.3134 16.5091 29.0618 15.9181C28.8207 15.3346 28.5751 15.4156 28.3913 15.4081C28.2195 15.3976 28.0191 15.3976 27.8187 15.3976C27.6673 15.4013 27.5184 15.4361 27.3813 15.4999C27.2441 15.5637 27.1216 15.655 27.0216 15.7681C26.7474 16.0651 25.9804 16.7835 25.9804 18.249C25.9804 19.7145 27.0502 21.123 27.2009 21.3225C27.3486 21.522 29.3014 24.5205 32.2983 25.8105C33.0065 26.118 33.564 26.2995 33.9995 26.4375C34.7152 26.6655 35.3616 26.631 35.8769 26.5575C36.4495 26.4705 37.6414 25.8375 37.893 25.143C38.1401 24.447 38.1401 23.853 38.0648 23.7285C37.991 23.6025 37.7906 23.529 37.4922 23.3805Z" fill="#FFEFC5"/>
<path d="M64.1088 16.708L62.5848 25H60.5208L59.2608 18.388L57.9648 25H55.9608L54.4608 16.708H56.0328L57.0888 23.74L58.4448 16.708H60.1248L61.4568 23.74L62.6088 16.708H64.1088ZM68.6678 18.472C69.2278 18.472 69.6678 18.644 69.9878 18.988C70.3078 19.332 70.4678 19.804 70.4678 20.404V25H68.9318V20.644C68.9318 20.268 68.8638 20.004 68.7278 19.852C68.5998 19.7 68.4078 19.624 68.1518 19.624C67.8958 19.624 67.6598 19.708 67.4438 19.876C67.2278 20.036 67.0198 20.268 66.8198 20.572V25H65.2838V16.12L66.8198 15.964V19.408C67.3318 18.784 67.9478 18.472 68.6678 18.472ZM77.0084 23.32C77.0084 23.568 77.0444 23.752 77.1164 23.872C77.1964 23.984 77.3204 24.072 77.4884 24.136L77.1644 25.156C76.8044 25.124 76.5084 25.036 76.2764 24.892C76.0524 24.748 75.8804 24.528 75.7604 24.232C75.5444 24.552 75.2724 24.792 74.9444 24.952C74.6244 25.104 74.2644 25.18 73.8644 25.18C73.2324 25.18 72.7324 25 72.3644 24.64C71.9964 24.28 71.8124 23.808 71.8124 23.224C71.8124 22.536 72.0604 22.012 72.5564 21.652C73.0604 21.284 73.7764 21.1 74.7044 21.1H75.4964V20.74C75.4964 20.332 75.4004 20.048 75.2084 19.888C75.0244 19.72 74.7244 19.636 74.3084 19.636C73.8444 19.636 73.2844 19.748 72.6284 19.972L72.2684 18.928C73.0604 18.624 73.8284 18.472 74.5724 18.472C76.1964 18.472 77.0084 19.2 77.0084 20.656V23.32ZM74.2724 24.064C74.7924 24.064 75.2004 23.804 75.4964 23.284V22H74.8604C73.8684 22 73.3724 22.368 73.3724 23.104C73.3724 23.408 73.4484 23.644 73.6004 23.812C73.7524 23.98 73.9764 24.064 74.2724 24.064ZM82.5632 24.7C82.3392 24.86 82.0872 24.98 81.8072 25.06C81.5352 25.14 81.2552 25.18 80.9672 25.18C80.3432 25.172 79.8672 24.996 79.5392 24.652C79.2192 24.3 79.0592 23.784 79.0592 23.104V19.756H78.0632V18.652H79.0592V17.248L80.5952 17.068V18.652H82.0712L81.9152 19.756H80.5952V23.068C80.5952 23.38 80.6472 23.604 80.7512 23.74C80.8632 23.876 81.0352 23.944 81.2672 23.944C81.4992 23.944 81.7512 23.868 82.0232 23.716L82.5632 24.7ZM85.4912 18.472C86.3472 18.472 87.0992 18.724 87.7472 19.228L87.1472 20.128C86.6032 19.784 86.0712 19.612 85.5512 19.612C85.2472 19.612 85.0112 19.672 84.8432 19.792C84.6752 19.904 84.5912 20.056 84.5912 20.248C84.5912 20.392 84.6272 20.512 84.6992 20.608C84.7712 20.704 84.8992 20.796 85.0832 20.884C85.2752 20.964 85.5552 21.056 85.9232 21.16C86.6112 21.344 87.1192 21.588 87.4472 21.892C87.7832 22.196 87.9512 22.62 87.9512 23.164C87.9512 23.796 87.6952 24.292 87.1832 24.652C86.6712 25.004 86.0352 25.18 85.2752 25.18C84.7552 25.18 84.2792 25.1 83.8472 24.94C83.4232 24.78 83.0552 24.56 82.7432 24.28L83.5112 23.416C84.0632 23.832 84.6392 24.04 85.2392 24.04C85.5832 24.04 85.8552 23.972 86.0552 23.836C86.2632 23.7 86.3672 23.512 86.3672 23.272C86.3672 23.088 86.3272 22.944 86.2472 22.84C86.1752 22.728 86.0392 22.632 85.8392 22.552C85.6472 22.464 85.3432 22.36 84.9272 22.24C84.2792 22.064 83.8032 21.82 83.4992 21.508C83.1952 21.188 83.0432 20.792 83.0432 20.32C83.0432 19.968 83.1432 19.652 83.3432 19.372C83.5512 19.092 83.8392 18.872 84.2072 18.712C84.5832 18.552 85.0112 18.472 85.4912 18.472ZM93.6942 25L93.1782 23.08H90.4302L89.9142 25H88.2702L90.8502 16.708H92.8062L95.3742 25H93.6942ZM90.7422 21.88H92.8542L91.7982 17.92L90.7422 21.88ZM99.5983 18.472C100.398 18.472 100.99 18.764 101.374 19.348C101.758 19.932 101.95 20.752 101.95 21.808C101.95 22.464 101.85 23.048 101.65 23.56C101.458 24.064 101.17 24.46 100.786 24.748C100.41 25.036 99.9623 25.18 99.4423 25.18C98.7703 25.18 98.2383 24.948 97.8463 24.484V27.448L96.3103 27.616V18.652H97.6543L97.7383 19.432C97.9863 19.112 98.2703 18.872 98.5903 18.712C98.9103 18.552 99.2463 18.472 99.5983 18.472ZM99.0103 24.004C99.8983 24.004 100.342 23.276 100.342 21.82C100.342 21.044 100.242 20.484 100.042 20.14C99.8423 19.796 99.5423 19.624 99.1423 19.624C98.8863 19.624 98.6463 19.704 98.4223 19.864C98.1983 20.016 98.0063 20.224 97.8463 20.488V23.344C98.1423 23.784 98.5303 24.004 99.0103 24.004ZM106.807 18.472C107.607 18.472 108.199 18.764 108.583 19.348C108.967 19.932 109.159 20.752 109.159 21.808C109.159 22.464 109.059 23.048 108.859 23.56C108.667 24.064 108.379 24.46 107.995 24.748C107.619 25.036 107.171 25.18 106.651 25.18C105.979 25.18 105.447 24.948 105.055 24.484V27.448L103.519 27.616V18.652H104.863L104.947 19.432C105.195 19.112 105.479 18.872 105.799 18.712C106.119 18.552 106.455 18.472 106.807 18.472ZM106.219 24.004C107.107 24.004 107.551 23.276 107.551 21.82C107.551 21.044 107.451 20.484 107.251 20.14C107.051 19.796 106.751 19.624 106.351 19.624C106.095 19.624 105.855 19.704 105.631 19.864C105.407 20.016 105.215 20.224 105.055 20.488V23.344C105.351 23.784 105.739 24.004 106.219 24.004Z" fill="#FFEFC5"/>
<rect x="1" y="1" width="132" height="40" rx="5" stroke="#FFEFC5" stroke-width="2"/>
</svg>
