<svg width="48" height="49" viewBox="0 0 48 49" fill="none" xmlns="http://www.w3.org/2000/svg">
<path d="M25.4205 31.0243L35.4123 21.0325C35.5986 20.8462 35.7464 20.625 35.8473 20.3816C35.9481 20.1381 36 19.8772 36 19.6137C36 19.0815 35.7886 18.5712 35.4123 18.1949C35.226 18.0085 35.0048 17.8607 34.7613 17.7599C34.5179 17.6591 34.257 17.6072 33.9935 17.6072C33.4613 17.6072 32.9509 17.8186 32.5746 18.1949L24.0017 26.7878L15.4288 18.1949C15.243 18.0076 15.022 17.8589 14.7785 17.7574C14.5349 17.656 14.2737 17.6038 14.0099 17.6038C13.7461 17.6038 13.4849 17.656 13.2414 17.7574C12.9979 17.8589 12.7769 18.0076 12.5911 18.1949C12.4038 18.3806 12.2551 18.6017 12.1537 18.8452C12.0522 19.0887 12 19.3499 12 19.6137C12 19.8775 12.0522 20.1387 12.1537 20.3822C12.2551 20.6257 12.4038 20.8468 12.5911 21.0325L22.5829 31.0243C22.7686 31.2116 22.9897 31.3603 23.2332 31.4617C23.4767 31.5632 23.7379 31.6154 24.0017 31.6154C24.2655 31.6154 24.5267 31.5632 24.7702 31.4617C25.0137 31.3603 25.2348 31.2116 25.4205 31.0243Z" fill="#FAFAFA" fill-opacity="0.87"/>
</svg>
