<svg width="24" height="24" viewBox="0 0 24 24" fill="none" xmlns="http://www.w3.org/2000/svg">
<path d="M5.78711 2.79706C5.75373 1.20932 4.67002 0 2.91025 0C1.15048 0 0 1.20932 0 2.79706C0 4.35191 1.11647 5.59605 2.84348 5.59605H2.87635C4.67002 5.59605 5.78711 4.35191 5.78711 2.79706Z" fill="#0D1009"/>
<path d="M5.44832 7.80636H0.304192V23.9996H5.44832V7.80636Z" fill="#0D1009"/>
<path d="M18.0772 7.42606C21.4623 7.42606 24 9.74098 24 14.7148L23.9998 23.9996H18.8559V15.3362C18.8559 13.1601 18.1115 11.6752 16.2493 11.6752C14.8281 11.6752 13.9816 12.6762 13.6098 13.6431C13.4738 13.9896 13.4404 14.4724 13.4404 14.9563V24H8.2957C8.2957 24 8.36351 9.32623 8.2957 7.80674H13.4404V10.1004C14.1232 8.99779 15.346 7.42606 18.0772 7.42606Z" fill="#0D1009"/>
</svg>
