<svg width="80" height="80" viewBox="0 0 80 80" fill="none" xmlns="http://www.w3.org/2000/svg">
<path d="M37.1219 77.9946C36.4868 77.9482 35.8517 77.8853 35.2076 77.8061C25.1459 76.5596 16.1702 71.4551 9.93447 63.4332C3.69877 55.4114 0.946997 45.4291 2.18997 35.3348C3.43293 25.2406 8.52094 16.2298 16.5104 9.97078C24.4999 3.71172 34.4436 0.950956 44.508 2.1984C52.3949 3.1564 59.7785 6.5912 65.604 12.0122C65.8585 12.2484 66.009 12.5763 66.0226 12.9239C66.0361 13.2715 65.9115 13.6102 65.6762 13.8656C65.4408 14.121 65.1141 14.2721 64.7677 14.2857C64.4214 14.2992 64.0839 14.1742 63.8294 13.938C58.4054 8.89087 51.5309 5.69315 44.1878 4.80164C34.8156 3.63523 25.5605 6.21115 18.1181 12.0386C12.6071 16.3538 8.49493 22.2122 6.30154 28.8729C4.10815 35.5336 3.93209 42.6975 5.7956 49.4586C7.65912 56.2197 11.4785 62.2744 16.7708 66.8571C22.0631 71.4397 28.5906 74.3444 35.5278 75.2038C54.8664 77.5985 72.5447 63.7583 74.9317 44.3492C74.9608 44.1149 74.9874 43.8809 75.0116 43.6472C75.0477 43.3012 75.2192 42.9838 75.4885 42.7648C75.7577 42.5458 76.1026 42.4432 76.4473 42.4794C76.792 42.5156 77.1083 42.6878 77.3265 42.958C77.5447 43.2282 77.647 43.5744 77.6109 43.9203C77.5855 44.1698 77.5565 44.4211 77.5256 44.6715C75.0406 64.8719 57.131 79.4578 37.1219 77.9946Z" fill="#004056"/>
<path d="M37.3255 71.9071C36.7938 71.8682 36.2624 71.816 35.7314 71.7505C27.3605 70.7124 19.7432 66.3797 14.5551 59.7055C9.36709 53.0313 7.03315 44.5622 8.06671 36.161C10.2151 18.6941 26.1215 6.23336 43.5285 8.38952C48.5866 9.01763 53.421 10.8533 57.6267 13.7426C57.9123 13.9396 58.1082 14.2425 58.1713 14.5845C58.2345 14.9266 58.1596 15.2798 57.9633 15.5664C57.7669 15.8531 57.4652 16.0497 57.1243 16.113C56.7835 16.1764 56.4316 16.1013 56.146 15.9042C52.294 13.2384 47.8539 11.5528 43.2082 10.9928C27.2402 9.0187 12.633 20.446 10.6606 36.4779C9.89525 42.7048 11.1419 49.0138 14.217 54.4764C17.2921 59.939 22.0332 64.2667 27.7427 66.8224C33.4521 69.3781 39.8282 70.0269 45.9326 68.6734C52.037 67.3198 57.5472 64.0353 61.6523 59.3034C61.88 59.0412 62.2022 58.8806 62.5479 58.8569C62.8937 58.8331 63.2346 58.9482 63.4958 59.1768C63.757 59.4054 63.9171 59.7287 63.9407 60.0757C63.9644 60.4227 63.8497 60.7649 63.622 61.027C60.3814 64.7651 56.318 67.6944 51.7536 69.5829C47.1893 71.4714 42.2494 72.2671 37.3255 71.9071Z" fill="#004056"/>
<path d="M17.3663 50.6563C17.1296 50.6391 16.9021 50.5575 16.708 50.4204C16.514 50.2832 16.3608 50.0957 16.2649 49.8778C15.631 48.4371 15.1467 46.9346 14.8196 45.3943C14.7888 45.2477 14.063 41.7567 14.4794 37.8887C14.7516 35.3282 16.2876 26.4869 24.4213 20.1878C27.1477 18.0762 34.4921 13.3432 43.7554 15.0132C46.5235 15.518 49.174 16.5351 51.5716 18.0125C51.8675 18.1936 52.0797 18.4853 52.1613 18.8234C52.243 19.1615 52.1875 19.5183 52.007 19.8154C51.8266 20.1124 51.5359 20.3253 51.199 20.4073C50.8621 20.4892 50.5066 20.4335 50.2106 20.2524C48.0885 18.9443 45.7427 18.043 43.2927 17.5945C35.0564 16.1113 28.4678 20.3662 26.0172 22.2638C18.5131 28.0758 17.2538 36.5338 17.0769 38.17C16.7068 41.6064 17.3691 44.817 17.3754 44.8498C17.665 46.2131 18.0937 47.5428 18.6547 48.8179C18.7457 49.0249 18.7818 49.252 18.7595 49.4771C18.7373 49.7022 18.6574 49.9177 18.5277 50.1027C18.3979 50.2877 18.2227 50.4359 18.0191 50.5329C17.8155 50.6299 17.5903 50.6724 17.3654 50.6563H17.3663Z" fill="#004056"/>
<path d="M73.1769 31.6113C75.821 31.6113 77.9646 29.4601 77.9646 26.8064C77.9646 24.1527 75.821 22.0015 73.1769 22.0015C70.5327 22.0015 68.3892 24.1527 68.3892 26.8064C68.3892 29.4601 70.5327 31.6113 73.1769 31.6113Z" fill="#F60000"/>
</svg>
