<svg width="24" height="24" viewBox="0 0 24 24" fill="none" xmlns="http://www.w3.org/2000/svg">
<path fill-rule="evenodd" clip-rule="evenodd" d="M12.001 0C8.742 0 8.333 0.01425 7.053 0.0725C5.7755 0.131 4.9035 0.33325 4.1405 0.63C3.35125 0.9365 2.68175 1.3465 2.01475 2.01375C1.34725 2.68075 0.93725 3.35025 0.62975 4.13925C0.33225 4.9025 0.12975 5.77475 0.07225 7.05175C0.015 8.33175 0 8.741 0 12C0 15.259 0.0145 15.6667 0.0725 16.9467C0.13125 18.2242 0.3335 19.0963 0.63 19.8593C0.93675 20.6485 1.34675 21.318 2.014 21.985C2.68075 22.6525 3.35025 23.0635 4.139 23.37C4.9025 23.6668 5.77475 23.869 7.052 23.9275C8.332 23.9857 8.74075 24 11.9995 24C15.2588 24 15.6665 23.9857 16.9465 23.9275C18.224 23.869 19.097 23.6668 19.8605 23.37C20.6495 23.0635 21.318 22.6525 21.9848 21.985C22.6523 21.318 23.0623 20.6485 23.3698 19.8595C23.6648 19.0963 23.8673 18.224 23.9273 16.947C23.9848 15.667 23.9998 15.259 23.9998 12C23.9998 8.741 23.9848 8.332 23.9273 7.052C23.8673 5.7745 23.6648 4.9025 23.3698 4.1395C23.0623 3.35025 22.6523 2.68075 21.9848 2.01375C21.3173 1.34625 20.6498 0.93625 19.8598 0.63C19.0948 0.33325 18.2223 0.131 16.9448 0.0725C15.6648 0.01425 15.2573 0 11.9973 0H12.001ZM10.9244 2.16247C11.2439 2.16197 11.6004 2.16247 12.0009 2.16247C15.205 2.16247 15.5847 2.17397 16.8499 2.23147C18.0199 2.28497 18.6549 2.48047 19.0779 2.64472C19.6379 2.86222 20.0372 3.12222 20.4569 3.54222C20.8769 3.96222 21.1369 4.36222 21.3549 4.92222C21.5192 5.34472 21.7149 5.97972 21.7682 7.14972C21.8257 8.41472 21.8382 8.79472 21.8382 11.9972C21.8382 15.1997 21.8257 15.5797 21.7682 16.8447C21.7147 18.0147 21.5192 18.6497 21.3549 19.0722C21.1374 19.6322 20.8769 20.031 20.4569 20.4507C20.0369 20.8707 19.6382 21.1307 19.0779 21.3482C18.6554 21.5132 18.0199 21.7082 16.8499 21.7617C15.5849 21.8192 15.205 21.8317 12.0009 21.8317C8.7967 21.8317 8.41695 21.8192 7.15195 21.7617C5.98195 21.7077 5.34695 21.5122 4.9237 21.348C4.3637 21.1305 3.9637 20.8705 3.5437 20.4505C3.1237 20.0305 2.8637 19.6315 2.6457 19.0712C2.48145 18.6487 2.2857 18.0137 2.23245 16.8437C2.17495 15.5787 2.16345 15.1987 2.16345 11.9942C2.16345 8.78972 2.17495 8.41172 2.23245 7.14672C2.28595 5.97672 2.48145 5.34172 2.6457 4.91872C2.8632 4.35872 3.1237 3.95872 3.5437 3.53872C3.9637 3.11872 4.3637 2.85872 4.9237 2.64072C5.3467 2.47572 5.98195 2.28072 7.15195 2.22697C8.25895 2.17697 8.68795 2.16197 10.9244 2.15947V2.16247ZM18.4065 4.15497C17.6115 4.15497 16.9665 4.79922 16.9665 5.59447C16.9665 6.38947 17.6115 7.03447 18.4065 7.03447C19.2015 7.03447 19.8465 6.38947 19.8465 5.59447C19.8465 4.79947 19.2015 4.15497 18.4065 4.15497ZM12.001 5.83747C8.59777 5.83747 5.83852 8.59672 5.83852 12C5.83852 15.4032 8.59777 18.1612 12.001 18.1612C15.4043 18.1612 18.1625 15.4032 18.1625 12C18.1625 8.59672 15.4043 5.83747 12.001 5.83747ZM12.001 7.99997C14.21 7.99997 16.001 9.79072 16.001 12C16.001 14.209 14.21 16 12.001 16C9.79172 16 8.00097 14.209 8.00097 12C8.00097 9.79072 9.79172 7.99997 12.001 7.99997Z" fill="#0D1009"/>
</svg>
