<svg width="24" height="24" viewBox="0 0 24 24" fill="none" xmlns="http://www.w3.org/2000/svg">
<path d="M20.4937 3.48906C19.3885 2.37858 18.0722 1.49819 16.6217 0.899179C15.1713 0.300172 13.6155 -0.00546639 12.0452 7.39956e-05C5.46509 7.39956e-05 0.102461 5.33706 0.0964339 11.889C0.0964339 13.9875 0.647916 16.029 1.6891 17.8365L0 24L6.3345 22.347C8.0869 23.2964 10.0501 23.794 12.0452 23.7945H12.0512C18.6328 23.7945 23.994 18.4575 24 11.8995C24.0015 10.3366 23.6923 8.78883 23.0903 7.34537C22.4883 5.90191 21.6053 4.59131 20.4922 3.48906H20.4937ZM12.0452 21.7815C10.2657 21.7821 8.51889 21.3054 6.98845 20.4015L6.62682 20.1855L2.86891 21.1665L3.87242 17.517L3.63737 17.1405C2.6426 15.566 2.11649 13.7431 2.12004 11.883C2.12004 6.44405 6.57559 2.00707 12.0512 2.00707C13.3557 2.00474 14.6478 2.25948 15.8529 2.7566C17.058 3.25373 18.1523 3.9834 19.0728 4.90356C19.9965 5.82013 20.7288 6.90969 21.2274 8.1094C21.726 9.3091 21.9811 10.5952 21.9779 11.8935C21.9719 17.352 17.5163 21.7815 12.0452 21.7815ZM17.4922 14.3805C17.1954 14.232 15.7293 13.5135 15.4535 13.4115C15.1793 13.314 14.9789 13.263 14.783 13.56C14.5826 13.8555 14.01 14.529 13.8383 14.7225C13.6665 14.922 13.4887 14.9445 13.1904 14.7975C12.8935 14.6475 11.9307 14.3355 10.7916 13.32C9.90256 12.5325 9.30738 11.5575 9.12958 11.262C8.95781 10.965 9.11301 10.806 9.26218 10.6575C9.39327 10.5255 9.55901 10.3095 9.70818 10.1385C9.85886 9.96754 9.90859 9.84154 10.0065 9.64354C10.1045 9.44254 10.0578 9.27154 9.98392 9.12304C9.90859 8.97455 9.31341 7.50905 9.06178 6.91805C8.82069 6.33455 8.57509 6.41555 8.39126 6.40805C8.21949 6.39755 8.01908 6.39755 7.81868 6.39755C7.66735 6.4013 7.51842 6.43614 7.38126 6.4999C7.24409 6.56366 7.12164 6.65495 7.0216 6.76805C6.74736 7.06505 5.98041 7.78355 5.98041 9.24904C5.98041 10.7145 7.05022 12.123 7.2009 12.3225C7.34857 12.522 9.30135 15.5205 12.2983 16.8105C13.0065 17.118 13.564 17.2995 13.9995 17.4375C14.7152 17.6655 15.3616 17.631 15.8769 17.5575C16.4495 17.4705 17.6414 16.8375 17.893 16.143C18.1401 15.447 18.1401 14.853 18.0648 14.7285C17.991 14.6025 17.7906 14.529 17.4922 14.3805Z" fill="#0D1009"/>
</svg>
