<svg width="48" height="49" viewBox="0 0 48 49" fill="none" xmlns="http://www.w3.org/2000/svg">
<path d="M25.4205 30.4205L35.4123 20.4288C35.5986 20.2424 35.7464 20.0212 35.8473 19.7778C35.9481 19.5344 36 19.2734 36 19.0099C36 18.4778 35.7886 17.9674 35.4123 17.5911C35.226 17.4048 35.0048 17.257 34.7613 17.1561C34.5179 17.0553 34.257 17.0034 33.9935 17.0034C33.4613 17.0034 32.9509 17.2148 32.5746 17.5911L24.0017 26.184L15.4288 17.5911C15.243 17.4038 15.022 17.2551 14.7785 17.1537C14.5349 17.0522 14.2737 17 14.0099 17C13.7461 17 13.4849 17.0522 13.2414 17.1537C12.9979 17.2551 12.7769 17.4038 12.5911 17.5911C12.4038 17.7769 12.2551 17.9979 12.1537 18.2414C12.0522 18.4849 12 18.7461 12 19.0099C12 19.2737 12.0522 19.5349 12.1537 19.7785C12.2551 20.022 12.4038 20.243 12.5911 20.4288L22.5829 30.4205C22.7686 30.6078 22.9897 30.7565 23.2332 30.858C23.4767 30.9594 23.7379 31.0116 24.0017 31.0116C24.2655 31.0116 24.5267 30.9594 24.7702 30.858C25.0137 30.7565 25.2348 30.6078 25.4205 30.4205Z" fill="#0D1009"/>
</svg>
