<svg width="49" height="48" viewBox="0 0 49 48" fill="none" xmlns="http://www.w3.org/2000/svg">
<path d="M26.8194 23.9983L35.4123 15.4254C35.7886 15.0491 36 14.5387 36 14.0065C36 13.4744 35.7886 12.964 35.4123 12.5877C35.036 12.2114 34.5256 12 33.9935 12C33.4613 12 32.9509 12.2114 32.5746 12.5877L24.0017 21.1806L15.4288 12.5877C15.0525 12.2114 14.5421 12 14.0099 12C13.4778 12 12.9674 12.2114 12.5911 12.5877C12.2148 12.964 12.0034 13.4744 12.0034 14.0065C12.0034 14.5387 12.2148 15.0491 12.5911 15.4254L21.184 23.9983L12.5911 32.5712C12.4038 32.757 12.2551 32.978 12.1537 33.2215C12.0522 33.4651 12 33.7263 12 33.9901C12 34.2539 12.0522 34.5151 12.1537 34.7586C12.2551 35.0021 12.4038 35.2231 12.5911 35.4089C12.7769 35.5962 12.9979 35.7449 13.2414 35.8463C13.4849 35.9478 13.7461 36 14.0099 36C14.2737 36 14.5349 35.9478 14.7785 35.8463C15.022 35.7449 15.243 35.5962 15.4288 35.4089L24.0017 26.816L32.5746 35.4089C32.7604 35.5962 32.9814 35.7449 33.225 35.8463C33.4685 35.9478 33.7297 36 33.9935 36C34.2573 36 34.5185 35.9478 34.762 35.8463C35.0055 35.7449 35.2265 35.5962 35.4123 35.4089C35.5996 35.2231 35.7483 35.0021 35.8497 34.7586C35.9512 34.5151 36.0034 34.2539 36.0034 33.9901C36.0034 33.7263 35.9512 33.4651 35.8497 33.2215C35.7483 32.978 35.5996 32.757 35.4123 32.5712L26.8194 23.9983Z" fill="#0D1009"/>
</svg>
