<svg width="48" height="48" viewBox="0 0 48 48" fill="none" xmlns="http://www.w3.org/2000/svg">
<path d="M24 14C24.7911 14 25.5645 13.7654 26.2223 13.3259C26.8801 12.8864 27.3928 12.2616 27.6955 11.5307C27.9983 10.7998 28.0775 9.99556 27.9231 9.21964C27.7688 8.44372 27.3878 7.73098 26.8284 7.17157C26.269 6.61216 25.5563 6.2312 24.7804 6.07686C24.0044 5.92252 23.2002 6.00173 22.4693 6.30448C21.7384 6.60723 21.1136 7.11992 20.6741 7.77772C20.2346 8.43552 20 9.20888 20 10C20 11.0609 20.4214 12.0783 21.1716 12.8284C21.9217 13.5786 22.9391 14 24 14ZM24 34C23.2089 34 22.4355 34.2346 21.7777 34.6741C21.1199 35.1136 20.6072 35.7384 20.3045 36.4693C20.0017 37.2002 19.9225 38.0044 20.0769 38.7804C20.2312 39.5563 20.6122 40.269 21.1716 40.8284C21.731 41.3878 22.4437 41.7688 23.2196 41.9231C23.9956 42.0775 24.7998 41.9983 25.5307 41.6955C26.2616 41.3928 26.8864 40.8801 27.3259 40.2223C27.7654 39.5645 28 38.7911 28 38C28 36.9391 27.5786 35.9217 26.8284 35.1716C26.0783 34.4214 25.0609 34 24 34ZM24 20C23.2089 20 22.4355 20.2346 21.7777 20.6741C21.1199 21.1136 20.6072 21.7384 20.3045 22.4693C20.0017 23.2002 19.9225 24.0044 20.0769 24.7804C20.2312 25.5563 20.6122 26.269 21.1716 26.8284C21.731 27.3878 22.4437 27.7688 23.2196 27.9231C23.9956 28.0775 24.7998 27.9983 25.5307 27.6955C26.2616 27.3928 26.8864 26.8801 27.3259 26.2223C27.7654 25.5645 28 24.7911 28 24C28 22.9391 27.5786 21.9217 26.8284 21.1716C26.0783 20.4214 25.0609 20 24 20Z" fill="#0D1009"/>
</svg>
