<svg width="48" height="48" viewBox="0 0 48 48" fill="none" xmlns="http://www.w3.org/2000/svg">
<path d="M36.9581 21.074C36.8792 20.8446 36.7358 20.6431 36.5453 20.4939C36.3547 20.3447 36.1252 20.2543 35.8845 20.2336L28.7817 19.1925L25.5985 12.7076C25.4963 12.4955 25.3367 12.3167 25.138 12.1915C24.9393 12.0664 24.7096 12 24.4751 12C24.2406 12 24.0108 12.0664 23.8121 12.1915C23.6134 12.3167 23.4538 12.4955 23.3516 12.7076L20.1684 19.18L13.0656 20.2336C12.8346 20.2666 12.6174 20.364 12.4386 20.5148C12.2599 20.6655 12.1268 20.8636 12.0545 21.0865C11.9882 21.3044 11.9823 21.5363 12.0373 21.7572C12.0923 21.9782 12.2061 22.18 12.3665 22.3409L17.522 27.3582L16.2737 34.4829C16.2233 34.7192 16.242 34.9651 16.3274 35.1911C16.4128 35.4171 16.5614 35.6134 16.7552 35.7565C16.9491 35.8996 17.18 35.9834 17.4201 35.9978C17.6602 36.0122 17.8993 35.9565 18.1087 35.8375L24.4751 32.4885L30.8414 35.8375C31.0166 35.9369 31.2145 35.9887 31.4156 35.9881C31.68 35.989 31.9379 35.9056 32.1521 35.7497C32.3458 35.6103 32.4957 35.4182 32.5842 35.1959C32.6727 34.9736 32.696 34.7306 32.6514 34.4954L31.4031 27.3708L36.5586 22.3534C36.7388 22.2 36.872 21.9983 36.9428 21.7719C37.0135 21.5454 37.0188 21.3034 36.9581 21.074ZM29.281 26.0914C29.1365 26.2323 29.0281 26.4064 28.9651 26.5986C28.9021 26.7908 28.8863 26.9955 28.919 27.1952L29.8178 32.4634L25.1242 29.9547C24.9418 29.864 24.741 29.8169 24.5375 29.8169C24.334 29.8169 24.1332 29.864 23.9508 29.9547L19.2572 32.4634L20.1559 27.1952C20.1887 26.9955 20.1729 26.7908 20.1098 26.5986C20.0468 26.4064 19.9384 26.2323 19.7939 26.0914L16.049 22.3283L21.3044 21.5632C21.5066 21.5349 21.6988 21.4573 21.8642 21.337C22.0296 21.2167 22.1632 21.0575 22.2531 20.8733L24.4751 16.0943L26.8219 20.8859C26.9118 21.07 27.0453 21.2292 27.2107 21.3495C27.3761 21.4698 27.5683 21.5475 27.7706 21.5757L33.0259 22.3409L29.281 26.0914Z" fill="#0D1009"/>
</svg>
