<svg width="48" height="50" viewBox="0 0 48 50" fill="none" xmlns="http://www.w3.org/2000/svg">
<path d="M0 8C0 3.58172 3.58172 0 8 0H39.9998C44.418 0 47.9998 3.58172 47.9998 8V42C47.9998 46.4183 44.418 50 39.9998 50H8C3.58172 50 0 46.4183 0 42V8Z" fill="#F2F2F2"/>
<path fill-rule="evenodd" clip-rule="evenodd" d="M24.001 14C20.742 14 20.333 14.0143 19.053 14.0725C17.7755 14.131 16.9035 14.3332 16.1405 14.63C15.3513 14.9365 14.6818 15.3465 14.0148 16.0138C13.3473 16.6808 12.9373 17.3502 12.6298 18.1392C12.3323 18.9025 12.1298 19.7748 12.0723 21.0518C12.015 22.3317 12 22.741 12 26C12 29.259 12.0145 29.6667 12.0725 30.9467C12.1313 32.2242 12.3335 33.0963 12.63 33.8593C12.9368 34.6485 13.3468 35.318 14.014 35.985C14.6808 36.6525 15.3503 37.0635 16.139 37.37C16.9025 37.6667 17.7748 37.869 19.052 37.9275C20.332 37.9858 20.7408 38 23.9995 38C27.2588 38 27.6665 37.9858 28.9465 37.9275C30.224 37.869 31.097 37.6667 31.8605 37.37C32.6495 37.0635 33.318 36.6525 33.9848 35.985C34.6523 35.318 35.0623 34.6485 35.3698 33.8595C35.6648 33.0963 35.8673 32.224 35.9273 30.947C35.9848 29.667 35.9998 29.259 35.9998 26C35.9998 22.741 35.9848 22.332 35.9273 21.052C35.8673 19.7745 35.6648 18.9025 35.3698 18.1395C35.0623 17.3503 34.6523 16.6808 33.9848 16.0138C33.3173 15.3463 32.6498 14.9362 31.8598 14.63C31.0948 14.3332 30.2223 14.131 28.9448 14.0725C27.6648 14.0143 27.2573 14 23.9973 14H24.001ZM22.9244 16.1625C23.2439 16.162 23.6004 16.1625 24.0009 16.1625C27.205 16.1625 27.5847 16.174 28.8499 16.2315C30.0199 16.285 30.6549 16.4805 31.0779 16.6447C31.6379 16.8622 32.0372 17.1222 32.4569 17.5422C32.8769 17.9622 33.1369 18.3622 33.3549 18.9222C33.5192 19.3447 33.7149 19.9797 33.7682 21.1497C33.8257 22.4147 33.8382 22.7947 33.8382 25.9972C33.8382 29.1997 33.8257 29.5797 33.7682 30.8447C33.7147 32.0147 33.5192 32.6497 33.3549 33.0722C33.1374 33.6322 32.8769 34.031 32.4569 34.4507C32.0369 34.8707 31.6382 35.1307 31.0779 35.3482C30.6554 35.5132 30.0199 35.7082 28.8499 35.7617C27.5849 35.8192 27.205 35.8317 24.0009 35.8317C20.7967 35.8317 20.4169 35.8192 19.1519 35.7617C17.9819 35.7077 17.3469 35.5122 16.9237 35.348C16.3637 35.1305 15.9637 34.8705 15.5437 34.4505C15.1237 34.0305 14.8637 33.6315 14.6457 33.0712C14.4814 32.6487 14.2857 32.0137 14.2324 30.8437C14.1749 29.5787 14.1634 29.1987 14.1634 25.9942C14.1634 22.7897 14.1749 22.4117 14.2324 21.1467C14.2859 19.9767 14.4814 19.3417 14.6457 18.9187C14.8632 18.3587 15.1237 17.9587 15.5437 17.5387C15.9637 17.1187 16.3637 16.8587 16.9237 16.6407C17.3467 16.4757 17.9819 16.2807 19.1519 16.227C20.2589 16.177 20.6879 16.162 22.9244 16.1595V16.1625ZM30.4065 18.155C29.6115 18.155 28.9665 18.7992 28.9665 19.5945C28.9665 20.3895 29.6115 21.0345 30.4065 21.0345C31.2015 21.0345 31.8465 20.3895 31.8465 19.5945C31.8465 18.7995 31.2015 18.155 30.4065 18.155ZM24.001 19.8375C20.5978 19.8375 17.8385 22.5967 17.8385 26C17.8385 29.4032 20.5978 32.1612 24.001 32.1612C27.4043 32.1612 30.1625 29.4032 30.1625 26C30.1625 22.5967 27.4043 19.8375 24.001 19.8375ZM24.001 22C26.21 22 28.001 23.7907 28.001 26C28.001 28.209 26.21 30 24.001 30C21.7917 30 20.001 28.209 20.001 26C20.001 23.7907 21.7917 22 24.001 22Z" fill="#004056"/>
</svg>
