<svg width="48" height="48" viewBox="0 0 48 48" fill="none" xmlns="http://www.w3.org/2000/svg">
<path d="M0 8C0 3.58172 3.58172 0 8 0H40C44.4183 0 48 3.58172 48 8V40C48 44.4183 44.4183 48 40 48H8C3.58172 48 0 44.4183 0 40V8Z" fill="#F2F2F2"/>
<path d="M17.7871 14.7971C17.7537 13.2093 16.67 12 14.9103 12C13.1505 12 12 13.2093 12 14.7971C12 16.3519 13.1165 17.596 14.8435 17.596H14.8763C16.67 17.596 17.7871 16.3519 17.7871 14.7971Z" fill="#004056"/>
<path d="M17.4483 19.8064H12.3042V35.9996H17.4483V19.8064Z" fill="#004056"/>
<path d="M30.0772 19.4261C33.4623 19.4261 36 21.741 36 26.7148L35.9998 35.9996H30.8559V27.3362C30.8559 25.1601 30.1115 23.6752 28.2493 23.6752C26.8281 23.6752 25.9816 24.6762 25.6098 25.6431C25.4738 25.9896 25.4404 26.4724 25.4404 26.9563V36H20.2957C20.2957 36 20.3635 21.3262 20.2957 19.8067H25.4404V22.1004C26.1232 20.9978 27.346 19.4261 30.0772 19.4261Z" fill="#004056"/>
</svg>
