<svg width="48" height="48" viewBox="0 0 48 48" fill="none" xmlns="http://www.w3.org/2000/svg">
<path d="M33.0253 25.2382C32.7603 25.2382 32.4833 25.1537 32.2184 25.0933C31.6818 24.9747 31.1546 24.8173 30.6407 24.6222C30.082 24.4184 29.4679 24.429 28.9165 24.6519C28.3651 24.8749 27.9154 25.2945 27.654 25.8301L27.389 26.3736C26.216 25.7191 25.1381 24.9063 24.1855 23.9579C23.2399 23.0025 22.4294 21.9215 21.7769 20.7451L22.2827 20.4069C22.8167 20.1447 23.2351 19.6937 23.4574 19.1407C23.6797 18.5877 23.6903 17.9718 23.487 17.4115C23.2958 16.895 23.1389 16.3664 23.0174 15.8292C22.9571 15.5635 22.909 15.2857 22.8728 15.0079C22.7266 14.1571 22.2823 13.3867 21.6199 12.8353C20.9575 12.2839 20.1206 11.9878 19.2599 12.0004H15.6469C15.1279 11.9955 14.6139 12.1028 14.1399 12.3151C13.666 12.5273 13.2432 12.8395 12.9003 13.2303C12.5575 13.6211 12.3026 14.0815 12.1531 14.58C12.0036 15.0785 11.963 15.6034 12.0339 16.1191C12.6755 21.1792 14.9797 25.8806 18.5826 29.4809C22.1855 33.0811 26.8817 35.375 31.9293 36H32.387C33.2751 36.0013 34.1325 35.6745 34.7956 35.082C35.1766 34.7403 35.481 34.3213 35.6886 33.8529C35.8962 33.3844 36.0023 32.8771 36 32.3644V28.7409C35.9852 27.9019 35.6806 27.0941 35.1381 26.4553C34.5956 25.8165 33.8488 25.3863 33.0253 25.2382V25.2382ZM33.6274 32.4852C33.6272 32.6567 33.5906 32.8262 33.52 32.9824C33.4494 33.1386 33.3464 33.2779 33.218 33.3911C33.0838 33.5082 32.9265 33.5957 32.7563 33.6477C32.5862 33.6998 32.407 33.7152 32.2304 33.693C27.7201 33.113 23.5307 31.0436 20.3229 27.8112C17.1152 24.5789 15.0717 20.3674 14.5148 15.8413C14.4957 15.6644 14.5125 15.4854 14.5642 15.3151C14.616 15.1449 14.7016 14.987 14.8159 14.8509C14.9288 14.722 15.0677 14.6188 15.2234 14.548C15.3792 14.4772 15.5482 14.4404 15.7192 14.4402H19.3321C19.6122 14.434 19.8857 14.5258 20.1055 14.7C20.3253 14.8741 20.4777 15.1197 20.5364 15.3944C20.5846 15.7245 20.6448 16.0506 20.7171 16.3727C20.8562 17.0094 21.0414 17.6351 21.2711 18.2449L19.585 19.03C19.4409 19.0963 19.3112 19.1905 19.2035 19.3073C19.0957 19.424 19.012 19.5609 18.9572 19.7102C18.9023 19.8595 18.8775 20.0181 18.8839 20.1771C18.8904 20.336 18.9281 20.4921 18.9949 20.6364C20.7282 24.3598 23.7125 27.3529 27.4252 29.0912C27.7184 29.212 28.0473 29.212 28.3405 29.0912C28.4907 29.0373 28.6287 28.9541 28.7465 28.8462C28.8644 28.7384 28.9597 28.6082 29.0269 28.4631L29.7736 26.7722C30.3962 26.9955 31.0316 27.181 31.6764 27.3278C31.9976 27.4002 32.3228 27.4606 32.6519 27.5089C32.9258 27.5679 33.1707 27.7207 33.3443 27.9412C33.518 28.1616 33.6096 28.4359 33.6034 28.7168L33.6274 32.4852Z" fill="#F2F2F2"/>
</svg>
