<svg width="260" height="69" viewBox="0 0 260 69" fill="none" xmlns="http://www.w3.org/2000/svg">
<path d="M100.437 25.868L95.8053 42.5H90.9092L86.1092 25.868H90.2612L93.4293 39.428L96.4052 25.868H100.437ZM112.219 35.876C112.219 36.404 112.195 36.86 112.147 37.244H104.251C104.379 38.316 104.683 39.068 105.163 39.5C105.643 39.932 106.307 40.148 107.155 40.148C107.667 40.148 108.163 40.06 108.643 39.884C109.123 39.692 109.643 39.404 110.203 39.02L111.763 41.132C110.275 42.316 108.619 42.908 106.795 42.908C104.731 42.908 103.147 42.3 102.043 41.084C100.939 39.868 100.387 38.236 100.387 36.188C100.387 34.892 100.619 33.732 101.083 32.708C101.547 31.668 102.227 30.852 103.123 30.26C104.019 29.652 105.091 29.348 106.339 29.348C108.179 29.348 109.619 29.924 110.659 31.076C111.699 32.228 112.219 33.828 112.219 35.876ZM108.499 34.796C108.467 32.844 107.779 31.868 106.435 31.868C105.779 31.868 105.267 32.108 104.899 32.588C104.547 33.068 104.331 33.86 104.251 34.964H108.499V34.796ZM121.382 29.396C121.846 29.396 122.27 29.452 122.654 29.564L122.054 33.236C121.574 33.124 121.19 33.068 120.902 33.068C120.15 33.068 119.574 33.332 119.174 33.86C118.79 34.372 118.486 35.148 118.262 36.188V42.5H114.47V29.756H117.782L118.094 32.228C118.382 31.348 118.814 30.66 119.39 30.164C119.982 29.652 120.646 29.396 121.382 29.396ZM144.126 29.348C145.134 29.348 145.942 29.692 146.55 30.38C147.158 31.052 147.462 31.988 147.462 33.188V42.5H143.67V33.836C143.67 32.7 143.31 32.132 142.59 32.132C142.19 32.132 141.838 32.268 141.534 32.54C141.23 32.812 140.934 33.228 140.646 33.788V42.5H136.854V33.836C136.854 32.7 136.494 32.132 135.774 32.132C135.39 32.132 135.038 32.276 134.718 32.564C134.414 32.836 134.118 33.244 133.83 33.788V42.5H130.038V29.756H133.35L133.614 31.244C134.11 30.604 134.654 30.132 135.246 29.828C135.854 29.508 136.542 29.348 137.31 29.348C138.03 29.348 138.646 29.524 139.158 29.876C139.686 30.228 140.07 30.724 140.31 31.364C140.822 30.676 141.382 30.172 141.99 29.852C142.614 29.516 143.326 29.348 144.126 29.348ZM160.559 38.804C160.559 39.284 160.623 39.636 160.751 39.86C160.895 40.084 161.119 40.252 161.423 40.364L160.631 42.836C159.847 42.772 159.207 42.604 158.711 42.332C158.215 42.044 157.831 41.596 157.559 40.988C156.727 42.268 155.447 42.908 153.719 42.908C152.455 42.908 151.447 42.54 150.695 41.804C149.943 41.068 149.567 40.108 149.567 38.924C149.567 37.532 150.079 36.468 151.103 35.732C152.127 34.996 153.607 34.628 155.543 34.628H156.839V34.076C156.839 33.324 156.679 32.812 156.359 32.54C156.039 32.252 155.479 32.108 154.679 32.108C154.263 32.108 153.759 32.172 153.167 32.3C152.575 32.412 151.967 32.572 151.343 32.78L150.479 30.284C151.279 29.98 152.095 29.748 152.927 29.588C153.775 29.428 154.559 29.348 155.279 29.348C157.103 29.348 158.439 29.724 159.287 30.476C160.135 31.228 160.559 32.356 160.559 33.86V38.804ZM154.823 40.196C155.687 40.196 156.359 39.788 156.839 38.972V36.716H155.903C155.039 36.716 154.391 36.868 153.959 37.172C153.543 37.476 153.335 37.948 153.335 38.588C153.335 39.1 153.463 39.5 153.719 39.788C153.991 40.06 154.359 40.196 154.823 40.196ZM157.175 22.46L158.663 25.292L152.999 27.572L151.943 25.628L157.175 22.46ZM167.953 29.348C168.865 29.348 169.721 29.484 170.521 29.756C171.321 30.028 172.025 30.412 172.633 30.908L171.241 33.044C170.201 32.388 169.153 32.06 168.097 32.06C167.601 32.06 167.217 32.148 166.945 32.324C166.689 32.484 166.561 32.716 166.561 33.02C166.561 33.26 166.617 33.46 166.729 33.62C166.857 33.764 167.105 33.916 167.473 34.076C167.841 34.236 168.409 34.428 169.177 34.652C170.505 35.036 171.489 35.54 172.129 36.164C172.785 36.772 173.113 37.62 173.113 38.708C173.113 39.572 172.865 40.324 172.369 40.964C171.873 41.588 171.193 42.068 170.329 42.404C169.465 42.74 168.505 42.908 167.449 42.908C166.377 42.908 165.377 42.74 164.449 42.404C163.537 42.068 162.761 41.604 162.121 41.012L163.969 38.948C165.041 39.78 166.169 40.196 167.353 40.196C167.929 40.196 168.377 40.092 168.697 39.884C169.033 39.676 169.201 39.38 169.201 38.996C169.201 38.692 169.137 38.452 169.009 38.276C168.881 38.1 168.633 37.94 168.265 37.796C167.897 37.636 167.313 37.444 166.513 37.22C165.249 36.852 164.305 36.34 163.681 35.684C163.057 35.028 162.745 34.212 162.745 33.236C162.745 32.5 162.953 31.844 163.369 31.268C163.801 30.676 164.409 30.212 165.193 29.876C165.993 29.524 166.913 29.348 167.953 29.348Z" fill="#004056"/>
<rect x="2" y="2.5" width="256" height="64" rx="4" stroke="#004056" stroke-width="4"/>
</svg>
