<svg width="48" height="48" viewBox="0 0 48 48" fill="none" xmlns="http://www.w3.org/2000/svg">
<path fill-rule="evenodd" clip-rule="evenodd" d="M24.001 12C20.742 12 20.333 12.0143 19.053 12.0725C17.7755 12.131 16.9035 12.3332 16.1405 12.63C15.3513 12.9365 14.6818 13.3465 14.0148 14.0138C13.3473 14.6808 12.9373 15.3502 12.6298 16.1392C12.3323 16.9025 12.1298 17.7748 12.0723 19.0518C12.015 20.3317 12 20.741 12 24C12 27.259 12.0145 27.6667 12.0725 28.9467C12.1313 30.2242 12.3335 31.0963 12.63 31.8593C12.9368 32.6485 13.3468 33.318 14.014 33.985C14.6808 34.6525 15.3503 35.0635 16.139 35.37C16.9025 35.6668 17.7748 35.869 19.052 35.9275C20.332 35.9858 20.7408 36 23.9995 36C27.2588 36 27.6665 35.9858 28.9465 35.9275C30.224 35.869 31.097 35.6668 31.8605 35.37C32.6495 35.0635 33.318 34.6525 33.9848 33.985C34.6523 33.318 35.0623 32.6485 35.3698 31.8595C35.6648 31.0963 35.8673 30.224 35.9273 28.947C35.9848 27.667 35.9998 27.259 35.9998 24C35.9998 20.741 35.9848 20.332 35.9273 19.052C35.8673 17.7745 35.6648 16.9025 35.3698 16.1395C35.0623 15.3503 34.6523 14.6808 33.9848 14.0138C33.3173 13.3463 32.6498 12.9363 31.8598 12.63C31.0948 12.3332 30.2223 12.131 28.9448 12.0725C27.6648 12.0143 27.2573 12 23.9973 12H24.001ZM22.9244 14.1625C23.2439 14.162 23.6004 14.1625 24.0009 14.1625C27.2049 14.1625 27.5847 14.174 28.8499 14.2315C30.0199 14.285 30.6549 14.4805 31.0779 14.6447C31.6379 14.8622 32.0372 15.1222 32.4569 15.5422C32.8769 15.9622 33.1369 16.3622 33.3549 16.9222C33.5192 17.3447 33.7149 17.9797 33.7682 19.1497C33.8257 20.4147 33.8382 20.7947 33.8382 23.9972C33.8382 27.1997 33.8257 27.5797 33.7682 28.8447C33.7147 30.0147 33.5192 30.6497 33.3549 31.0722C33.1374 31.6322 32.8769 32.031 32.4569 32.4507C32.0369 32.8707 31.6382 33.1307 31.0779 33.3482C30.6554 33.5132 30.0199 33.7082 28.8499 33.7617C27.5849 33.8192 27.2049 33.8317 24.0009 33.8317C20.7967 33.8317 20.4169 33.8192 19.1519 33.7617C17.9819 33.7077 17.3469 33.5122 16.9237 33.348C16.3637 33.1305 15.9637 32.8705 15.5437 32.4505C15.1237 32.0305 14.8637 31.6315 14.6457 31.0712C14.4814 30.6487 14.2857 30.0137 14.2324 28.8437C14.1749 27.5787 14.1634 27.1987 14.1634 23.9942C14.1634 20.7897 14.1749 20.4117 14.2324 19.1467C14.2859 17.9767 14.4814 17.3417 14.6457 16.9187C14.8632 16.3587 15.1237 15.9587 15.5437 15.5387C15.9637 15.1187 16.3637 14.8587 16.9237 14.6407C17.3467 14.4757 17.9819 14.2807 19.1519 14.227C20.2589 14.177 20.6879 14.162 22.9244 14.1595V14.1625ZM30.4065 16.155C29.6115 16.155 28.9665 16.7992 28.9665 17.5945C28.9665 18.3895 29.6115 19.0345 30.4065 19.0345C31.2015 19.0345 31.8465 18.3895 31.8465 17.5945C31.8465 16.7995 31.2015 16.155 30.4065 16.155ZM24.001 17.8375C20.5978 17.8375 17.8385 20.5967 17.8385 24C17.8385 27.4032 20.5978 30.1612 24.001 30.1612C27.4043 30.1612 30.1625 27.4032 30.1625 24C30.1625 20.5967 27.4043 17.8375 24.001 17.8375ZM24.001 20C26.21 20 28.001 21.7907 28.001 24C28.001 26.209 26.21 28 24.001 28C21.7917 28 20.001 26.209 20.001 24C20.001 21.7907 21.7917 20 24.001 20Z" fill="#0D1009"/>
</svg>
