<svg width="48" height="48" viewBox="0 0 48 48" fill="none" xmlns="http://www.w3.org/2000/svg">
<path d="M32.4937 15.4891C31.3885 14.3786 30.0722 13.4982 28.6217 12.8992C27.1713 12.3002 25.6155 11.9945 24.0452 12.0001C17.4651 12.0001 12.1025 17.3371 12.0964 23.889C12.0964 25.9875 12.6479 28.029 13.6891 29.8365L12 36L18.3345 34.347C20.0869 35.2964 22.0501 35.794 24.0452 35.7945H24.0512C30.6328 35.7945 35.994 30.4575 36 23.8995C36.0015 22.3366 35.6923 20.7888 35.0903 19.3454C34.4883 17.9019 33.6053 16.5913 32.4922 15.4891H32.4937ZM24.0452 33.7815C22.2657 33.7821 20.5189 33.3054 18.9884 32.4015L18.6268 32.1855L14.8689 33.1665L15.8724 29.517L15.6374 29.1405C14.6426 27.566 14.1165 25.7431 14.12 23.883C14.12 18.4441 18.5756 14.0071 24.0512 14.0071C25.3557 14.0047 26.6478 14.2595 27.8529 14.7566C29.058 15.2537 30.1523 15.9834 31.0728 16.9036C31.9965 17.8201 32.7288 18.9097 33.2274 20.1094C33.726 21.3091 33.9811 22.5952 33.9779 23.8935C33.9719 29.352 29.5163 33.7815 24.0452 33.7815ZM29.4922 26.3805C29.1954 26.232 27.7293 25.5135 27.4535 25.4115C27.1793 25.314 26.9789 25.263 26.783 25.56C26.5826 25.8555 26.01 26.529 25.8383 26.7225C25.6665 26.922 25.4887 26.9445 25.1904 26.7975C24.8935 26.6475 23.9307 26.3355 22.7916 25.32C21.9026 24.5325 21.3074 23.5575 21.1296 23.262C20.9578 22.965 21.113 22.806 21.2622 22.6575C21.3933 22.5255 21.559 22.3095 21.7082 22.1385C21.8589 21.9675 21.9086 21.8415 22.0065 21.6435C22.1045 21.4425 22.0578 21.2715 21.9839 21.123C21.9086 20.9745 21.3134 19.5091 21.0618 18.9181C20.8207 18.3346 20.5751 18.4156 20.3913 18.4081C20.2195 18.3976 20.0191 18.3976 19.8187 18.3976C19.6673 18.4013 19.5184 18.4361 19.3813 18.4999C19.2441 18.5637 19.1216 18.655 19.0216 18.7681C18.7474 19.0651 17.9804 19.7835 17.9804 21.249C17.9804 22.7145 19.0502 24.123 19.2009 24.3225C19.3486 24.522 21.3014 27.5205 24.2983 28.8105C25.0065 29.118 25.564 29.2995 25.9995 29.4375C26.7152 29.6655 27.3616 29.631 27.8769 29.5575C28.4495 29.4705 29.6414 28.8375 29.893 28.143C30.1401 27.447 30.1401 26.853 30.0648 26.7285C29.991 26.6025 29.7906 26.529 29.4922 26.3805Z" fill="#0D1009"/>
</svg>
