<svg width="326" height="359" viewBox="0 0 326 359" fill="none" xmlns="http://www.w3.org/2000/svg">
<g clip-path="url(#clip0)">
<path d="M217.69 349.35C208.69 352.35 172.35 363.56 126.05 354.79C109.94 351.74 65.7102 342.74 31.3902 305.47C21.1102 294.31 5.93018 277.41 1.36018 251C0.110185 243.78 -2.63982 222.15 6.89018 199.12C16.6002 175.75 24.3102 178.55 38.5902 150.06C49.9102 127.46 56.8802 100.79 59.5002 90.74C62.3532 80.0913 65.9042 69.6421 70.1302 59.46C70.4302 58.73 70.7302 58.04 71.0702 57.27C75.0702 48.27 82.3202 32.27 98.2002 19.4C116.91 4.19 137.38 1.6 145.92 0.629996C168.9 -2 186.44 4 200 8.84C236.76 21.94 261.19 44.89 273.25 58.08C279.84 65.3 314.53 104.4 322.74 167.08C325.74 190.08 333.5 249.22 295.13 298.19C268.64 332 233.4 344.15 217.69 349.35Z" fill="#FFEFC5"/>
</g>
<defs>
<clipPath id="clip0">
<rect width="325.42" height="358.08" fill="white"/>
</clipPath>
</defs>
</svg>
