<svg width="60" height="47" viewBox="0 0 60 47" fill="none" xmlns="http://www.w3.org/2000/svg">
<g clip-path="url(#clip0)">
<path d="M59.82 11.65L58.98 11.89C54.06 13.68 50.18 16.94 45.05 19.42C41.32 20.93 37.89 23.87 34.66 26.12C42.78 21.47 50.66 15.61 59.76 13.04C59.7574 13.6891 59.6159 14.3301 59.3451 14.9199C59.0743 15.5098 58.6805 16.0349 58.19 16.46C55.46 17.85 52.84 19.32 50.3 20.85L49.3 19.39C43.14 25.32 34.63 26.87 29 33.54C29.38 33.54 29.44 33.97 29.56 34.24H29.51H29.56C29.66 34.48 29.8 34.62 30.23 34.32C29.8 34.62 29.66 34.48 29.56 34.24C36.002 29.2783 42.838 24.8503 50 21C39 27.67 29.31 35.48 18.51 43L16.67 44.29C14.3031 44.451 12.0295 45.2759 10.11 46.67C9.27999 44.5 4.85999 42.1 9.10999 40.27C8.85999 39.9 8.33999 39.16 8.10999 38.79C3.10999 39.52 -1.89001 35.32 0.809987 31.27C3.84999 27 10.41 24.56 15 20.29C18.43 17.35 21.86 14.41 26.06 12.57C31.9 10.14 37.17 5.92001 43.26 3.86001C45.33 2.94001 47.78 -0.419986 49.47 1.43349e-05C50.47 0.0700143 51.08 0.840014 51.59 1.79001C48.47 3.79001 45.42 5.84001 42.32 7.79001C38.32 9.93001 34.39 12.03 30.22 13.85C34.4656 12.2893 38.524 10.2601 42.32 7.80001C45.54 6.06001 48.73 4.28001 52 2.60001C52.3623 3.45718 52.8888 4.23515 53.55 4.89001L54.93 3.89001C58.06 4.45001 59.4 7.36001 59.77 9.89001C59.79 10.41 59.82 11 59.82 11.65Z" fill="#F60000"/>
</g>
<defs>
<clipPath id="clip0">
<rect width="59.82" height="46.72" fill="white"/>
</clipPath>
</defs>
</svg>
