<svg width="211" height="179" viewBox="0 0 211 179" fill="none" xmlns="http://www.w3.org/2000/svg">
<g clip-path="url(#clip0)">
<path d="M69.8299 6.99996C48.4799 15.19 29.1499 30.09 15.3099 47.06C9.43988 54.26 4.22988 62.28 2.09988 71.32C-2.53012 91 8.37988 110.87 17.1999 127.8C23.1999 139.34 29.4599 151.18 39.3799 159.6C57.1899 174.72 83.4399 180.15 106.2 176.7C132.2 172.76 151.64 152.39 171.2 136.39C179.7 129.44 188.55 122.78 195.73 114.46C213.33 94.05 215.13 62.93 196.92 42.37C189.48 33.97 178.92 29.14 169.4 23.54C158.04 16.9 146.33 10.75 133.85 6.53996C112.68 -0.750043 90.7999 -1.08004 69.8299 6.99996Z" stroke="#004056" stroke-width="2" stroke-miterlimit="10"/>
<path d="M106.27 37.4301C127.74 37.4301 149.17 47.7801 163.43 63.6401C167.07 67.7001 170.43 72.5101 170.57 77.9601C170.72 83.8501 167.05 89.1601 162.93 93.3901C154.77 101.77 144.42 107.66 133.93 112.78C125.5 116.89 116.77 120.61 107.54 122.35C98.3101 124.09 88.5401 123.76 79.9101 120C70.5601 115.91 63.3501 108.15 56.9701 100.18C46.7201 87.4101 40.7401 71.3701 56.5601 60.0201C62.8601 55.5101 70.3801 53.0201 77.1201 49.2301C87.1201 43.5601 94.3901 37.4301 106.3 37.4301H106.27ZM106.3 17.2501C102.797 17.588 99.3212 18.1728 95.9001 19.0001C79.9001 22.7901 67.3201 32.8301 53.0201 40.3001C43.5701 45.3001 33.9501 50.7101 29.3201 60.8701C22.8801 75.0101 28.1301 93.3501 36.0201 105.87C49.8601 127.79 73.2901 143.55 98.4401 143.55C105.645 143.548 112.792 142.254 119.54 139.73C149.3 128.73 198.88 108.48 188.89 67.4401C184.66 50.0001 156.16 31.5301 141 23.5601C130.34 18.0001 118.14 16.1801 106.24 17.2901L106.3 17.2501Z" fill="#F60000"/>
<path d="M98.9397 56.4499C92.4297 56.3999 83.3597 61.1299 78.7397 65.5699C74.1197 70.0099 73.4597 75.8899 75.7397 81.5699C80.9997 94.7999 93.7897 99.2399 107 100.57C118.83 101.76 145.37 99.1899 142.64 81.2399C141.28 72.2399 130.86 70.9499 124.1 67.9299C119.01 65.6499 114.45 62.4299 109.37 60.0199C106.026 58.4717 102.531 57.2753 98.9397 56.4499Z" fill="#004056"/>
</g>
<defs>
<clipPath id="clip0">
<rect width="210.79" height="178.7" fill="white"/>
</clipPath>
</defs>
</svg>
