<svg width="95" height="81" viewBox="0 0 95 81" fill="none" xmlns="http://www.w3.org/2000/svg">
<g clip-path="url(#clip0)">
<path d="M31.6398 3.65978C22.1634 7.44881 13.81 13.5925 7.36983 21.5098C4.75983 24.7098 2.43983 28.2798 1.48983 32.3098C-0.570171 41.0798 4.28983 49.9098 8.20983 57.4498C10.8898 62.5898 13.6698 67.8598 18.0898 71.6098C25.9998 78.3398 37.6998 80.7598 47.8298 79.2198C59.4098 77.4698 68.0698 68.3998 76.7698 61.2798C80.5598 58.1798 84.4998 55.2198 87.6998 51.5098C95.5298 42.4298 96.3298 28.5698 88.2298 19.4198C84.9198 15.6798 80.2298 13.5298 75.9698 11.0298C70.9611 7.98174 65.6617 5.43924 60.1498 3.43978C50.9244 0.110739 40.8128 0.188766 31.6398 3.65978V3.65978Z" stroke="#004056" stroke-width="2" stroke-miterlimit="10"/>
<path d="M47.8697 17.24C52.6839 17.3356 57.4269 18.421 61.8036 20.4287C66.1803 22.4364 70.0969 25.3234 73.3097 28.91C74.9297 30.71 76.4297 32.85 76.4897 35.28C76.5597 37.9 74.9197 40.28 73.0897 42.15C69.4597 45.88 64.8497 48.5 60.1697 50.78C56.4587 52.7043 52.507 54.1236 48.4197 55C44.3118 55.9023 40.0279 55.554 36.1197 54C31.9997 52.17 28.7497 48.72 25.8997 45.17C21.3397 39.49 18.6797 32.34 25.7197 27.3C28.5297 25.3 31.8697 24.19 34.8797 22.49C39.3297 19.97 42.5597 17.24 47.8797 17.24H47.8697ZM47.8797 8.23997C46.3308 8.38756 44.7938 8.6415 43.2797 8.99997C36.1697 10.69 30.5597 15.15 24.1897 18.48C19.9997 20.7 15.6697 23.13 13.6097 27.65C10.7397 33.94 13.0797 42.11 16.6097 47.65C22.7697 57.41 33.1997 64.43 44.3997 64.43C47.6091 64.4252 50.792 63.8496 53.7997 62.73C66.9997 57.85 89.0897 48.84 84.6497 30.56C82.7697 22.82 70.0797 14.56 63.3197 11.04C58.5385 8.64214 53.1674 7.67347 47.8497 8.24997L47.8797 8.23997Z" fill="#F60000"/>
<path d="M44.6 25.6899C41.7 25.6899 37.67 27.7699 35.6 29.7499C34.6644 30.6545 34.0329 31.8274 33.7928 33.1065C33.5528 34.3856 33.716 35.7077 34.26 36.8899C36.59 42.7599 42.26 44.7399 48.16 45.3299C53.43 45.8599 65.24 44.7199 64.03 36.7199C63.42 32.7199 58.79 32.1399 55.77 30.7999C53.51 29.7999 51.48 28.3499 49.22 27.2699C47.7393 26.5838 46.1908 26.0543 44.6 25.6899Z" fill="#004056"/>
</g>
<defs>
<clipPath id="clip0">
<rect width="94.95" height="80.67" fill="white"/>
</clipPath>
</defs>
</svg>
