<svg width="46" height="39" viewBox="0 0 46 39" fill="none" xmlns="http://www.w3.org/2000/svg">
<g clip-path="url(#clip0)">
<path d="M38.3699 36.6301C39.4189 35.9275 40.3277 35.0356 41.0499 34.0001C46.1999 26.7801 48.4599 11.8501 39.5899 6.43007C35.8199 4.15007 30.9999 2.71007 26.8599 1.30007C20.6199 -0.80993 15.1999 -0.59993 9.91989 3.79007C5.71989 7.27007 1.21989 12.0501 0.189886 17.6101C-0.138248 19.1114 -0.101546 20.6695 0.296911 22.1537C0.695368 23.6379 1.44396 25.0049 2.47989 26.1401C4.26989 27.9201 6.79989 28.6801 9.15989 29.5801C17.2099 32.6501 29.6099 42.3401 38.3699 36.6301Z" fill="#F60000"/>
</g>
<defs>
<clipPath id="clip0">
<rect width="45.58" height="38.4" fill="white"/>
</clipPath>
</defs>
</svg>
