<svg width="313" height="111" viewBox="0 0 313 111" fill="none" xmlns="http://www.w3.org/2000/svg">
<g clip-path="url(#clip0)">
<path d="M171.82 23.7401C161.82 17.7901 138.64 10.5101 132.87 25.1901C128.09 37.3101 142.68 48.3901 153.13 51.2501C161.3 53.4801 175.2 53.0001 178.29 43.5401C180 38.3101 176.07 29.0001 171.82 23.7401Z" fill="#004056"/>
<path d="M240.47 55.2C214.05 39.08 206.63 76.06 230.22 76.46C237.78 76.58 244.49 74.95 245.57 67.1C246.27 61.92 243.8 56 239 54" fill="#004056"/>
<path d="M87.6099 29.7101C54.3599 15.8001 50.4299 65.1701 79.6099 59.4101C95.9999 56.1701 94.6299 41.2001 87.6099 29.7101Z" fill="#004056"/>
<path d="M22.72 49.8502C12.44 48.7502 2 50.2302 0 61.8602C5.86 66.0002 16 70.1402 22.73 65.2802C27.01 62.2002 30.43 52.2802 24.48 50.0402" fill="#004056"/>
<path d="M238.27 6.48007C229.47 -4.33993 203.65 -1.42993 218.12 13.8501C227.31 23.5501 245.65 21.4801 238.27 6.48007Z" fill="#004056"/>
<path d="M144 82.7401C139.9 73.9101 132.56 71.5601 122.73 74.3701C115.02 76.5701 112.58 79.5601 116.19 86.7701C121.63 97.6401 151.6 95.0001 144 82.7401Z" fill="#004056"/>
<path d="M207.38 98.85C203.02 97.52 191.95 92.85 189.64 99.2501C187.96 103.87 192.92 106.43 196.15 107.92C199.54 109.49 207.02 112.15 210.21 108.51C212.33 106.1 210.74 99.99 207.09 99.57" fill="#004056"/>
<path d="M311.16 19.8001C304.3 16.7401 288.49 16.0501 286.63 25.8001C285.17 33.5001 292.88 35.4201 299.01 34.8001C307.28 34.0001 314.66 27.7701 311.16 19.8001Z" fill="#004056"/>
<path d="M310.44 72.27C304.91 70.81 293 69.88 289.85 76C287.47 80.68 290.64 86.68 295.75 88.1C303.3 90.23 315 81.08 310.44 72.27Z" fill="#004056"/>
</g>
<defs>
<clipPath id="clip0">
<rect width="312.05" height="110.34" fill="white"/>
</clipPath>
</defs>
</svg>
