<svg width="199" height="131" viewBox="0 0 199 131" fill="none" xmlns="http://www.w3.org/2000/svg">
<g clip-path="url(#clip0)">
<path d="M0 130.3L3.71 75.3001C4.41 64.9701 5.13 54.3001 8.96 44.3001C16.12 25.5601 34.32 10.5801 57.65 4.18005C78.91 -1.64995 101.83 -0.219946 121.65 1.57005C133.02 2.57005 144.85 4.20005 153.56 11.3501C167.24 22.5701 173.56 39.3501 179.69 55.4901C180.89 58.6601 182.13 61.9401 183.38 65.0501C191.38 84.9901 194.84 106.43 198.15 127.17L194.65 127.72C191.37 107.18 187.99 85.94 180.1 66.3801C178.83 63.23 177.58 59.9301 176.37 56.7501C170.37 41.0001 164.26 24.7501 151.31 14.1001C143.37 7.58005 132.6 6.10005 121.31 5.10005C101.8 3.34005 79.31 1.93005 58.57 7.60005C36.34 13.7001 19 27.8801 12.27 45.5201C8.63 55.0201 7.93 65.4301 7.27 75.5201L3.56 130.52L0 130.3Z" fill="#004056"/>
<path d="M12.1602 126.62C12.1642 104.805 14.2469 83.0401 18.3802 61.6202C20.2702 51.8702 22.9202 40.8202 30.5502 32.9702C37.3802 25.9702 47.0102 22.7602 56.2902 20.1002C70.0002 16.1702 84.7301 12.5002 100 12.2202C111.62 12.0002 128.51 13.8002 143 23.6202C154.7 31.5302 164.11 44.1402 171 61.0902C180.4 84.3102 184.39 97.8702 180.34 121.87L176.84 121.28C180.75 98.1702 176.84 85.0002 167.71 62.4202C161.11 46.1302 152.14 34.0602 141.04 26.5602C127.29 17.2602 111.17 15.5602 100.04 15.7602C85.1402 16.0402 70.6402 19.6502 57.1902 23.5002C48.4502 26.0002 39.3202 29.0002 33.1002 35.4302C26.1002 42.5802 23.6502 53.0402 21.8702 62.2902C17.7728 83.4886 15.7068 105.029 15.7002 126.62V127.29H12.1602V126.62Z" fill="#004056"/>
<path d="M22.8301 110.17C22.8301 90.0698 27.6801 71.4498 36.9601 56.6098C50.5501 34.8898 74.1801 21.4998 97.1801 22.4898C108.289 22.9965 119.031 26.6178 128.18 32.9398C134.015 37.0948 139.207 42.0848 143.59 47.7498C151.863 58.1811 157.987 70.1475 161.611 82.9584C165.234 95.7693 166.284 109.171 164.7 122.39L161.18 121.96C162.708 109.209 161.695 96.2813 158.201 83.9236C154.706 71.5659 148.799 60.0226 140.82 49.9598C136.652 44.5633 131.712 39.8091 126.16 35.8498C117.558 29.8924 107.452 26.4786 97.0001 25.9998C75.2801 25.0998 52.8901 37.8398 40.0001 58.4898C28.7701 76.4898 24.2801 100.22 27.3401 125.43L23.8201 125.86C23.1711 120.655 22.8405 115.415 22.8301 110.17Z" fill="#004056"/>
<path d="M34.3598 114C34.26 106.905 34.7517 99.8136 35.8298 92.8001C37.7998 81.2001 41.9998 71.6901 48.3198 64.5501C56.7798 55.0001 69.1498 50.0001 77.7198 47.0001C97.8998 40.0001 114.52 39.9001 127.12 46.5801C138.34 52.5801 147.03 64.5801 150.97 79.7501C154.46 93.1401 154.19 107.07 153.9 120.55C154.063 120.782 154.153 121.057 154.16 121.34H151.8C151.796 121.538 151.852 121.733 151.96 121.9C151.714 121.621 151.564 121.27 151.53 120.9C151.82 107.47 152.12 93.5701 148.68 80.3901C144.91 65.9001 136.68 54.3901 126.01 48.7101C114.01 42.3501 98.0098 42.5401 78.4898 49.2701C70.1698 52.1301 58.1798 57.0001 50.0898 66.1201C44.0898 72.9201 40.0898 82.0401 38.1598 93.2401C36.4698 103.24 36.6598 113.6 36.8398 123.61H34.4798C34.4198 120.48 34.3598 117.27 34.3598 114Z" fill="#004056"/>
<path d="M42.0002 106.24C41.9754 102.424 42.2261 98.6104 42.7502 94.8301C43.7702 88.0001 46.4402 78.3001 53.5202 71.0001C58.7602 65.6201 66.3202 61.7701 75.4002 59.8601C83.4002 58.1601 91.7202 58.0701 99.7302 57.9801C109.67 57.8701 123.28 57.7201 133.17 64.8201C140.73 70.2401 145.82 79.8201 147.17 91.2101C148.35 101.3 146.72 111.39 145.17 121.14L142.83 120.76C144.39 111.17 146 101.25 144.83 91.4901C143.58 80.7901 138.83 71.7701 131.83 66.7401C123.26 60.5901 112.26 60.2101 99.8302 60.3501C91.9302 60.4301 83.7602 60.5201 75.9502 62.1701C67.2702 64.0001 60.1202 67.6401 55.2102 72.6801C48.5702 79.4901 46.0602 88.6801 45.1202 95.1701C43.9102 103.6 44.4902 112.28 45.0502 120.68L42.6902 120.83C42.3702 116 42.0002 111.14 42.0002 106.24Z" fill="#004056"/>
<path d="M54.3901 119.49C54.5215 108.35 56.0159 97.2674 58.8401 86.4902C60.0001 82.0802 61.5401 77.5802 64.8401 74.4902C68.6101 71.0402 73.7801 70.1002 79.1801 69.3702C91.6201 67.7002 105.78 66.5202 116.48 73.7902C123.07 78.2702 128.04 85.9802 130.48 95.4902C132.63 103.93 132.71 112.68 132.79 121.15H130.42C130.35 112.82 130.27 104.21 128.19 96.0602C125.9 87.0602 121.27 79.8802 115.19 75.7302C105.19 68.9302 91.5401 70.0802 79.5401 71.7302C74.5401 72.4002 69.7401 73.2602 66.4801 76.2502C63.4801 79.0302 62.1101 83.2502 61.1201 87.0802C58.3454 97.6648 56.8745 108.549 56.7401 119.49H54.3901Z" fill="#004056"/>
<path d="M65.4302 118.92C66.4302 111.92 67.5602 104.76 70.0102 97.92C72.7902 90.23 77.0902 84.11 82.4402 80.21C88.9002 75.5 97.0302 74.14 103.67 76.64C109.32 78.77 113.06 83.2 115.2 86.55C117.759 90.8722 119.71 95.5258 121 100.38C123.122 107.461 124.726 114.687 125.8 122L123.46 122.34C122.414 115.159 120.847 108.063 118.77 101.11C117.53 96.4747 115.655 92.0327 113.2 87.91C111.26 84.91 107.88 80.84 102.83 78.91C96.9302 76.69 89.6502 77.91 83.8302 82.18C78.8302 85.8 74.8302 91.54 72.2402 98.78C69.8602 105.36 68.8002 112.44 67.7702 119.29L65.4302 118.92Z" fill="#004056"/>
<path d="M76 115.77C76.0767 110.179 77.7826 104.732 80.9088 100.096C84.0349 95.4601 88.4455 91.8368 93.6 89.67C96.6 88.46 101.15 87.35 105.43 88.95C109.05 90.31 112.18 93.56 114.43 98.34C117.313 104.416 118.426 111.181 117.64 117.86L115.29 117.58C116.026 111.345 114.986 105.03 112.29 99.36C110.88 96.42 108.39 92.6 104.55 91.16C100.98 89.83 97.07 90.81 94.42 91.86C89.5163 93.9318 85.3587 97.4461 82.4991 101.936C79.6396 106.426 78.2135 111.68 78.41 117L76.05 117.13C76 116.7 76 116.23 76 115.77Z" fill="#004056"/>
<path d="M79.5298 116.57L85.6898 108.21C86.8945 106.44 88.3006 104.816 89.8798 103.37C90.8931 102.379 92.1213 101.634 93.469 101.194C94.8167 100.753 96.2477 100.629 97.651 100.832C99.0543 101.034 100.392 101.556 101.561 102.359C102.729 103.162 103.697 104.223 104.39 105.46C105.994 108.039 107.166 110.863 107.86 113.82L105.59 114.48C104.962 111.771 103.902 109.182 102.45 106.81C101.18 104.99 98.8698 103.06 96.2098 103.11C94.4198 103.222 92.7237 103.949 91.4098 105.17C89.9728 106.501 88.6913 107.991 87.5898 109.61L81.4298 118L79.5298 116.57Z" fill="#004056"/>
<path d="M87.48 121.47C87.6288 118.552 88.4943 115.715 90 113.21C90.8255 111.867 91.9998 110.772 93.398 110.043C94.7962 109.314 96.3659 108.978 97.94 109.07C98.8452 109.19 99.7152 109.499 100.494 109.976C101.272 110.453 101.942 111.088 102.46 111.84C102.915 112.461 103.23 113.173 103.384 113.928C103.538 114.682 103.526 115.461 103.35 116.21C103.27 116.901 103.342 117.6 103.56 118.26C103.75 118.955 103.857 119.67 103.88 120.39H101.51C101.484 119.853 101.4 119.32 101.26 118.8C100.935 117.776 100.866 116.687 101.06 115.63C101.151 115.206 101.149 114.768 101.054 114.345C100.959 113.922 100.773 113.525 100.51 113.18C100.183 112.708 99.7616 112.308 99.273 112.005C98.7844 111.702 98.2388 111.503 97.67 111.42C95.33 111.16 93.12 112.79 91.97 114.52C90.6851 116.694 89.9696 119.156 89.89 121.68L87.48 121.47Z" fill="#004056"/>
</g>
<defs>
<clipPath id="clip0">
<rect width="198.15" height="130.54" fill="white"/>
</clipPath>
</defs>
</svg>
