<svg width="193" height="202" viewBox="0 0 193 202" fill="none" xmlns="http://www.w3.org/2000/svg">
<g clip-path="url(#clip0)">
<path d="M115.65 114.411C117.689 114.223 119.65 113.536 121.36 112.411C122.478 111.734 123.489 110.895 124.36 109.921L125.05 109.231L125.63 108.421L126.23 107.631C126.43 107.361 126.56 107.041 126.73 106.761C128.132 104.299 129.017 101.577 129.33 98.7609C129.959 92.7195 128.525 86.643 125.26 81.5209C124.81 80.9209 124.45 80.2609 123.96 79.7009C123.47 79.1409 123.02 78.5809 122.52 78.0409C122.02 77.5009 121.46 77.0409 120.93 76.5509L119.1 75.1809C116.549 73.4206 113.724 72.0959 110.74 71.2609C104.74 69.5109 97.74 69.8109 91.25 71.5909C88.0025 72.4792 84.8808 73.7763 81.96 75.4509C79.0958 77.1317 76.4861 79.2127 74.21 81.6309C69.5582 86.8671 66.2619 93.1644 64.61 99.9709C64.14 101.721 63.77 103.501 63.45 105.351L63.22 106.781C63.16 107.231 63.09 107.671 63.04 108.121C62.92 109.021 62.83 109.921 62.77 110.831C62.5041 114.501 62.6315 118.188 63.15 121.831C64.2055 129.202 66.9877 136.219 71.27 142.311C77.17 151.031 86.71 157.721 97.63 161.161C103.079 162.902 108.781 163.72 114.5 163.581C120.318 163.413 126.078 162.378 131.59 160.511C134.364 159.597 137.065 158.474 139.67 157.151C140.96 156.481 142.22 155.821 143.43 155.041C144.64 154.261 145.87 153.501 147.01 152.611C151.616 149.211 155.662 145.112 159 140.461C162.369 135.739 165.191 130.65 167.41 125.291C168.64 122.511 169.69 119.931 170.62 117.231L171.31 115.231L171.92 113.231C172.35 111.881 172.68 110.521 173.02 109.161C172.199 112.381 171.198 115.553 170.02 118.661C169.43 120.221 168.82 121.741 168.13 123.291C167.44 124.841 166.74 126.471 166.02 127.971C163.312 133.941 159.74 139.48 155.42 144.411C153.29 146.82 150.948 149.033 148.42 151.021C147.81 151.531 147.13 152.021 146.49 152.461L145.49 153.171L144.49 153.811C143.81 154.241 143.14 154.691 142.49 155.101C141.84 155.511 141.12 155.891 140.4 156.261C134.624 159.261 128.405 161.321 121.98 162.361C115.622 163.385 109.13 163.249 102.82 161.961C102.034 161.812 101.256 161.622 100.49 161.391L98.17 160.771C96.57 160.301 95.07 159.771 93.57 159.161C90.5879 157.949 87.7199 156.473 85 154.751C79.6079 151.397 74.9454 146.993 71.29 141.801C67.6558 136.647 65.1262 130.798 63.86 124.621C63.2268 121.527 62.8919 118.379 62.86 115.221C62.86 113.641 62.86 112.061 63.02 110.491C63.09 109.711 63.17 108.921 63.27 108.151C63.37 107.381 63.49 106.611 63.63 105.741C64.5661 99.5258 66.6697 93.5439 69.83 88.1109C71.3455 85.5472 73.1913 83.1937 75.32 81.1109C76.3595 80.0844 77.4581 79.1195 78.61 78.2209C79.83 77.4309 80.97 76.5209 82.27 75.8509C87.488 72.9257 93.2992 71.2165 99.27 70.8509C104.91 70.3995 110.566 71.5064 115.62 74.0509C116.23 74.3409 116.76 74.7509 117.34 75.0509C117.63 75.2209 117.92 75.3909 118.2 75.5709L118.99 76.1909C119.524 76.5744 120.038 76.9849 120.53 77.4209C120.97 77.8609 121.43 78.2909 121.88 78.7109C123.585 80.6526 124.975 82.8492 126 85.2209C127.074 87.6115 127.765 90.1558 128.05 92.7609C128.194 94.0389 128.254 95.325 128.23 96.6109L128.06 98.5009C128.06 99.1309 127.84 99.7209 127.75 100.321C127.288 102.609 126.414 104.795 125.17 106.771C124.561 107.665 123.865 108.496 123.09 109.251C122.384 110.031 121.569 110.705 120.67 111.251C121.29 110.659 121.852 110.009 122.35 109.311C122.59 108.931 122.84 108.571 123.1 108.221C123.237 108.042 123.351 107.847 123.44 107.641L123.75 107.031C124.182 106.206 124.553 105.35 124.86 104.471C125.153 103.507 125.384 102.525 125.55 101.531C126.288 96.8198 125.699 91.9963 123.85 87.6009C122.787 84.833 121.132 82.3312 119 80.2709C118.73 80.0309 118.51 79.7709 118.23 79.5409L117.3 78.8509L116.38 78.1509L115.38 77.5609L114.38 76.9609L113.32 76.4709C112.97 76.3109 112.63 76.1209 112.32 75.9709L111.2 75.5809C105.26 73.4509 97.89 73.5809 91.09 75.6609C84.4839 77.5608 78.6883 81.585 74.6 87.1109C72.51 89.9784 70.8274 93.1216 69.6 96.4509C68.9768 98.196 68.4428 99.9716 68 101.771C67.55 103.611 67.21 105.411 66.9 107.461L65.13 107.211C64.4506 112.564 64.6465 117.991 65.71 123.281C66.768 128.454 68.7315 133.4 71.51 137.891C76.93 146.841 85.67 153.551 95.7 157.281L97.6 157.951C98.25 158.171 98.92 158.371 99.6 158.521L101.5 159.041C102.13 159.233 102.771 159.387 103.42 159.501L105.42 159.851C106.06 159.991 106.708 160.091 107.36 160.151L109.36 160.361L110.36 160.461H111.36C116.625 160.671 121.892 160.122 127 158.831C129.614 158.141 132.182 157.289 134.69 156.281C142.134 153.3 148.77 148.607 154.06 142.581C157.669 138.458 160.722 133.879 163.14 128.961C163.78 127.701 164.39 126.411 165 125.071L165.91 123.071C166.2 122.411 166.51 121.731 166.77 121.071C167.877 118.456 168.848 115.786 169.68 113.071C173.127 102.289 174.225 90.893 172.9 79.6509L172.79 78.6509L172.6 77.6509L172.21 75.5909L171.83 73.5309C171.69 72.8509 171.47 72.1809 171.29 71.5309C170.91 70.1909 170.57 68.8309 170.16 67.5309L168.69 63.6109C168.466 62.9473 168.205 62.2963 167.91 61.6609L166.99 59.7609C166.36 58.5109 165.81 57.2109 165.12 55.9909L163 52.2309C162.81 51.9309 162.64 51.6209 162.45 51.3309L161.83 50.4709L160.6 48.7609C157.269 44.1783 153.371 40.0354 149 36.4309C144.569 32.8068 139.742 29.6969 134.61 27.1609C137.35 28.9609 135.47 28.3309 134.75 28.2709L134.19 27.9609L134.75 28.2709C134.43 28.2709 134.33 28.2709 134.92 28.7309C135.51 29.1909 136.84 29.8509 139.2 31.3809C136.84 29.8509 135.5 29.1709 134.92 28.7309C134.34 28.2909 134.43 28.2309 134.75 28.2709C144.565 33.3448 153.045 40.6631 159.5 49.6309L160.67 51.2909L161.26 52.1209L161.78 53.0009L163.85 56.5009C164.52 57.6809 165.03 58.9409 165.64 60.1509C166.271 61.3438 166.816 62.5803 167.27 63.8509L168.68 67.6409C169.12 68.9109 169.41 70.2309 169.78 71.5209L170.32 73.4609L170.69 75.4609C170.91 76.7809 171.23 78.0909 171.39 79.4609C172.724 90.3123 171.784 101.323 168.63 111.791C167.87 114.431 166.95 117.021 165.95 119.571C164.95 122.121 163.68 124.901 162.53 127.341C160.271 132.149 157.437 136.665 154.09 140.791C150.817 144.744 146.959 148.173 142.65 150.961C133.878 156.539 123.715 159.536 113.32 159.611C108.226 159.576 103.167 158.76 98.32 157.191C88.41 153.961 79.64 147.871 74 139.631C73.637 139.124 73.3031 138.596 73 138.051L72 136.451C71.44 135.331 70.79 134.251 70.31 133.091C69.83 131.931 69.31 130.781 68.88 129.611C68.45 128.441 68.09 127.231 67.79 126.001C66.5315 121.036 66.0991 115.897 66.51 110.791C66.2066 114.767 66.4116 118.766 67.12 122.691C67.832 126.556 69.0561 130.309 70.76 133.851C72.4727 137.374 74.667 140.642 77.28 143.561C79.9321 146.488 82.9581 149.054 86.28 151.191C87.9597 152.304 89.7101 153.306 91.52 154.191C93.3346 155.077 95.2014 155.852 97.11 156.511C99.11 157.231 101.02 157.631 102.93 158.181C104.88 158.579 106.849 158.873 108.83 159.061C118.992 159.8 129.161 157.724 138.22 153.061C139.12 152.601 139.97 152.121 140.81 151.621L143.34 149.991C146.651 147.697 149.673 145.01 152.34 141.991C155.057 138.919 157.441 135.567 159.45 131.991C160.45 130.181 161.45 128.281 162.36 126.301C163.27 124.321 164.25 122.101 165.06 120.141C168.314 112.187 170.337 103.784 171.06 95.2209C171.2 94.1609 171.21 93.1109 171.25 92.0509C171.29 90.9909 171.34 89.9309 171.34 88.8709L171.23 85.7209L171.18 84.1409L171 82.5309L170.67 79.4009C170.55 78.4009 170.29 77.3409 170.12 76.3109C169.95 75.2809 169.78 74.2509 169.51 73.2409L168.68 70.2409C167.532 66.2289 165.998 62.3374 164.1 58.6209C163.87 58.1509 163.66 57.6709 163.42 57.2109L162.61 55.8609L161 53.1409C160.744 52.685 160.456 52.2473 160.14 51.8309L159.23 50.5509C158.62 49.7009 158.05 48.8209 157.41 48.0009L155.41 45.5809L154.41 44.3709L153.32 43.2409L151.15 40.9609C150.39 40.2409 149.59 39.5509 148.82 38.8409L147.65 37.7709L146.41 36.7709C145.58 36.1209 144.76 35.4409 143.92 34.7709C142.17 33.5709 140.47 32.3109 138.63 31.2309C131.429 26.733 123.49 23.5408 115.18 21.8009C106.831 20.1943 98.2604 20.1062 89.88 21.5409C85.6597 22.2613 81.5081 23.3385 77.47 24.7609C73.4515 26.1945 69.5666 27.9781 65.86 30.0909C62.1298 32.2492 58.5903 34.7214 55.28 37.4809C53.6 38.8809 51.97 40.3409 50.28 41.9509L49.64 42.5509L49.06 43.1509L47.92 44.3309L45.61 46.6909C33.61 59.5609 25.68 76.3509 22.24 94.1409C22.07 94.9009 21.95 95.7509 21.79 96.6709C21.63 97.5909 21.47 98.5909 21.35 99.6709C21.05 101.751 20.86 104.031 20.75 106.151C20.5516 110.247 20.6151 114.352 20.94 118.441C21.1077 124.488 22.0247 130.49 23.67 136.311C23.86 137.051 24.12 137.761 24.33 138.491C24.54 139.221 24.78 139.941 25.06 140.651L25.84 142.791L26.75 144.881C27.9365 147.682 29.2889 150.41 30.8 153.051C37.1461 163.702 45.8276 172.773 56.19 179.581C54.58 179.191 54.51 179.961 54.68 180.971C54.85 181.981 55.3 183.121 54.6 183.441C53.9 183.761 52.02 183.271 47.79 180.441C46.79 179.731 45.52 178.921 44.22 177.841L42.11 176.131C41.38 175.491 40.63 174.791 39.83 174.061C39.03 173.331 38.18 172.541 37.35 171.641C36.52 170.741 35.61 169.841 34.71 168.831C33.81 167.821 32.93 166.691 31.96 165.541C30.99 164.391 30.14 163.071 29.16 161.751L27.7 162.861C31.1375 168.051 35.0403 172.918 39.36 177.401C42.8805 181.056 46.5959 184.517 50.49 187.771C57.31 193.451 62.49 196.951 64.49 199.011C65.49 200.011 65.61 200.651 64.95 200.891C64.4113 201.034 63.8476 201.054 63.3 200.951C62.2438 200.792 61.2009 200.555 60.18 200.241C56.575 199.104 53.086 197.627 49.76 195.831C44.3131 192.929 39.1794 189.474 34.44 185.521C27.6751 179.885 21.7161 173.348 16.73 166.091L14.81 163.221C14.14 162.271 13.62 161.221 13.02 160.221L11.27 157.171C10.7 156.171 10.27 155.061 9.7 154.001C7.55316 149.696 5.76704 145.221 4.36 140.621C2.90593 135.918 1.81276 131.11 1.09 126.241C0.366618 121.304 0.00232911 116.321 0 111.331C0 110.091 0 108.841 0.05 107.631L0.11 105.831L0.21 103.831C0.37 101.211 0.66 98.7009 1.01 96.1809C1.74174 91.1718 2.76683 86.2099 4.08 81.3209C6.81384 71.3676 10.7848 61.7963 15.9 52.8309C21.1463 43.7025 27.6838 35.3799 35.31 28.1209C39.0448 24.4563 43.0348 21.0611 47.25 17.9609C51.5881 14.8128 56.1883 12.0426 61 9.68091C70.5377 5.01148 80.7891 1.96955 91.33 0.680906C98.97 -0.262407 106.699 -0.225441 114.33 0.790906C115.33 0.890906 116.24 1.07091 117.19 1.23091C118.14 1.39091 119.1 1.52091 120.04 1.74091C121.91 2.15091 123.81 2.53091 125.73 3.09091C129.44 4.1338 133.081 5.40967 136.63 6.91091C143.67 9.87179 150.339 13.6475 156.5 18.1609C162.741 22.7482 168.343 28.1456 173.16 34.2109C177.977 40.3116 181.99 47.0065 185.1 54.1309C188.104 61.3092 190.171 68.8445 191.25 76.5509C192.24 84.1842 192.263 91.9118 191.32 99.5509C190.421 107.054 188.687 114.433 186.15 121.551C185.3 123.991 184.31 126.411 183.28 128.781L181.76 132.161C181.24 133.291 180.69 134.441 180.12 135.601C177.783 140.428 175.008 145.031 171.83 149.351C168.543 153.825 164.748 157.902 160.52 161.501C158.376 163.292 156.132 164.962 153.8 166.501C152.61 167.251 151.46 168.021 150.22 168.731C148.98 169.441 147.73 170.101 146.48 170.731C141.506 173.182 136.283 175.09 130.9 176.421C125.458 177.781 119.878 178.513 114.27 178.601C108.593 178.626 102.934 177.954 97.42 176.601L93.31 175.491C92.04 175.091 90.69 174.621 89.38 174.131C86.749 173.138 84.178 171.993 81.68 170.701C71.4805 165.506 62.8766 157.648 56.78 147.961C53.7641 143.126 51.4415 137.891 49.88 132.411C49.1087 129.7 48.5174 126.94 48.11 124.151C47.7159 121.381 47.4955 118.589 47.45 115.791C47.4115 113.015 47.5484 110.24 47.86 107.481C48.02 106.121 48.23 104.651 48.44 103.481C48.65 102.311 48.92 100.851 49.21 99.4809C50.385 94.1001 52.2259 88.8866 54.69 83.9609C57.2572 78.9386 60.6131 74.3605 64.63 70.4009C68.6578 66.4808 73.3334 63.287 78.45 60.9609C86.7228 57.1388 95.784 55.3328 104.89 55.6909C110.103 55.9301 115.238 57.0597 120.07 59.0309L121.9 59.8509C122.516 60.1133 123.117 60.4104 123.7 60.7409C124.85 61.4209 126.05 62.0309 127.15 62.7409C128.25 63.4509 129.32 64.2709 130.37 65.0909C131.42 65.9109 132.44 66.9109 133.37 67.8609C136.966 71.5537 139.791 75.9253 141.68 80.7209C143.367 84.946 144.353 89.4181 144.6 93.9609C144.825 97.7625 144.45 101.576 143.49 105.261C143.109 106.759 142.607 108.224 141.99 109.641C141.524 110.808 140.952 111.929 140.28 112.991L139.13 114.871C138.772 115.414 138.382 115.935 137.96 116.431L136.87 117.731C136.57 118.096 136.235 118.431 135.87 118.731C134.983 119.585 134 120.334 132.94 120.961C131.57 121.591 131.52 120.961 131.81 119.961C134.233 117.67 136.261 114.994 137.81 112.041C138.571 110.584 139.222 109.074 139.76 107.521C140.03 106.761 140.2 105.961 140.43 105.181C140.655 104.406 140.832 103.618 140.96 102.821L141.33 100.431C141.43 99.6309 141.44 98.8309 141.49 98.0309C141.59 96.4425 141.59 94.8493 141.49 93.2609C141.226 90.0958 140.585 86.9737 139.58 83.9609C138.58 80.9321 137.206 78.0397 135.49 75.3509C134.611 74.0041 133.642 72.7178 132.59 71.5009C132.05 70.8909 131.54 70.2709 130.97 69.6909L129.17 68.0309C124.351 63.855 118.572 60.9381 112.35 59.5409C106.297 58.1747 100.035 58.0116 93.92 59.0609C93.16 59.1509 92.42 59.3409 91.67 59.4909C90.92 59.6409 90.17 59.7909 89.44 59.9909C87.97 60.4109 86.49 60.7709 85.06 61.3109C82.156 62.3013 79.3505 63.5601 76.68 65.0709C71.2386 68.1615 66.4849 72.3298 62.71 77.3209C61.7776 78.5413 60.9098 79.8097 60.11 81.1209C59.26 82.4009 58.57 83.7609 57.85 85.1209C56.5039 87.8166 55.3575 90.6074 54.42 93.4709C53.2884 96.9312 52.4324 100.476 51.86 104.071C51.57 105.781 51.32 107.701 51.17 109.511C51.02 111.321 50.93 113.181 50.96 115.031C50.9643 122.461 52.3618 129.825 55.08 136.741C56.4279 140.237 58.1266 143.587 60.15 146.741C60.39 147.141 60.63 147.541 60.89 147.931L61.71 149.071C62.26 149.821 62.78 150.591 63.36 151.331C64.55 152.771 65.71 154.241 67.03 155.561C72.1915 160.937 78.2785 165.341 85 168.561C88.3143 170.19 91.764 171.529 95.31 172.561C98.8835 173.64 102.544 174.406 106.25 174.851C113.661 175.724 121.166 175.342 128.45 173.721C132.071 172.95 135.626 171.893 139.08 170.561C142.576 169.246 145.96 167.651 149.2 165.791C155.698 161.982 161.518 157.119 166.42 151.401C163.996 154.17 161.365 156.751 158.55 159.121C155.701 161.467 152.675 163.59 149.5 165.471C146.318 167.315 142.994 168.903 139.56 170.221C136.154 171.538 132.654 172.598 129.09 173.391C125.5 174.196 121.852 174.721 118.18 174.961L115.42 175.061H114.03H112.65L109.87 174.971C108.95 174.971 108.03 174.791 107.11 174.701C106.19 174.611 105.26 174.521 104.35 174.381L101.61 173.871C99.7863 173.538 97.9833 173.101 96.21 172.561C94.4454 172.096 92.7063 171.538 91 170.891C89.27 170.251 87.57 169.521 85.9 168.741C82.5499 167.154 79.3358 165.294 76.29 163.181C73.2329 161.035 70.3748 158.618 67.75 155.961C65.1385 153.282 62.7941 150.355 60.75 147.221C54.5412 137.759 51.1908 126.708 51.1 115.391C51.0496 111.664 51.3273 107.939 51.93 104.261C52.4913 100.603 53.3406 96.9951 54.47 93.4709C55.418 90.6198 56.5744 87.8423 57.93 85.1609C58.65 83.8309 59.34 82.4809 60.19 81.1609C60.9865 79.8596 61.851 78.6012 62.78 77.3909C66.5235 72.501 71.2177 68.4191 76.58 65.3909C79.2207 63.8966 81.9963 62.6544 84.87 61.6809C87.7127 60.6978 90.633 59.9552 93.6 59.4609C95.1 59.2709 96.6 59.0009 98.1 58.9409C98.85 58.9409 99.6 58.8309 100.36 58.7909H103.77L104.91 58.8809L107.19 59.0609C107.94 59.1509 108.7 59.3009 109.46 59.4209C110.217 59.5246 110.968 59.6682 111.71 59.8509C117.764 61.2139 123.409 63.9933 128.18 67.9609C129.385 68.9889 130.514 70.1018 131.56 71.2909C132.07 71.8809 132.56 72.4709 133.09 73.0809L134.43 75.0009L135.09 76.0009L135.66 77.0009L136.79 79.0009C137.13 79.6909 137.42 80.4109 137.73 81.1209C138.057 81.8195 138.341 82.5375 138.58 83.2709C140.668 89.0971 141.287 95.3485 140.38 101.471C140.25 102.231 140.15 103.001 139.99 103.761L139.37 106.021C139.26 106.401 139.17 106.771 139.05 107.141L138.62 108.241C138.32 108.971 138.04 109.711 137.73 110.431L136.61 112.511L136.03 113.511L135.35 114.511L134 116.481L132.38 118.231C132.99 116.231 133.26 114.471 130.7 115.961L130.28 116.421C129.911 116.854 129.514 117.261 129.09 117.641C127.693 118.908 126.157 120.012 124.51 120.931C122.459 122.08 120.232 122.884 117.92 123.311C115.796 123.718 113.614 123.718 111.49 123.311L111.29 123.251C109.67 122.774 108.19 121.909 106.98 120.731C105.996 119.789 105.175 118.691 104.55 117.481C103.649 115.785 103.085 113.931 102.89 112.021C102.64 109.111 103.3 107.881 103.89 107.801C104.48 107.721 105.36 108.741 106.45 110.181C107.588 111.854 109.034 113.296 110.71 114.431C110.901 114.558 111.105 114.662 111.32 114.741L111.61 114.851L111.92 114.931C112.345 115.032 112.785 115.062 113.22 115.021L113.35 114.961C113.443 114.954 113.537 114.954 113.63 114.961L114.27 114.851C114.739 114.735 115.2 114.588 115.65 114.411Z" fill="#E0CFA8"/>
</g>
<defs>
<clipPath id="clip0">
<rect width="192.01" height="201.05" fill="white"/>
</clipPath>
</defs>
</svg>
