<svg width="111" height="26" viewBox="0 0 111 26" fill="none" xmlns="http://www.w3.org/2000/svg">
<g clip-path="url(#clip0)">
<path d="M107.07 22.18L105.67 21.91C96.8799 20.58 88.0899 20.91 78.3499 19.85C71.5499 18.8 63.7499 19.02 56.9299 18.74C73.0699 20.23 90.0499 20.21 105.64 23.29C103.992 24.4885 102.017 25.1549 99.9799 25.2C94.6999 24.77 89.4899 24.42 84.3199 24.14C84.3199 23.68 84.3199 22.8 84.3199 22.35C69.6099 23.46 56.0699 19.35 41.3199 20.85C41.8299 21.12 41.4999 21.47 41.3799 21.75C41.2699 22 41.3199 22.2 42.2299 22.25C41.3199 22.2 41.2299 22 41.3799 21.75C55.8299 22.08 69.2899 23 83.6699 24.11C61.2999 22.88 39.6699 22.79 16.7899 21.11L12.8899 20.82C9.22894 19.2594 5.33778 18.3069 1.36992 18C2.53992 15.84 -0.94008 11 6.72992 12.6L6.88992 10.8C-0.67008 7.89001 -2.94008 1.36001 4.87992 0.240009C13.6699 -0.799991 25.0099 1.88001 35.6699 1.60001C43.3699 1.60001 51.0599 1.53001 58.6699 2.73001C69.1999 4.50001 80.7499 4.35001 91.3299 6.24001C95.1799 6.74001 101.93 5.41001 103.86 6.75001C104.377 6.94126 104.797 7.32987 105.027 7.8305C105.258 8.33112 105.281 8.90282 105.09 9.42001C98.7399 9.27001 92.3999 9.19001 86.1499 8.90001C78.4699 8.27001 70.8099 7.53001 63.1499 6.37001C70.7418 7.79205 78.4304 8.6378 86.1499 8.90001L104.89 10.29C104.566 11.1781 104.545 12.1486 104.83 13.05H107.74C111.63 15.29 110.74 18.44 108.74 20.7C108.25 21.15 107.67 21.66 107.07 22.18Z" fill="#F60000"/>
</g>
<defs>
<clipPath id="clip0">
<rect width="110.42" height="25.2" fill="white"/>
</clipPath>
</defs>
</svg>
