<svg width="189" height="77" viewBox="0 0 189 77" fill="none" xmlns="http://www.w3.org/2000/svg">
<g clip-path="url(#clip0)">
<path d="M115.15 31.7399C118.61 24.1999 126.3 15.2499 135.5 18.0499C145.9 21.1999 144.59 35.4799 141.69 43.5699C141.23 44.8699 144.56 47.6899 145.08 46.2399C148.88 35.6199 147.85 22.6599 137.52 16.2399C126.52 9.46994 116.19 19.3899 111.76 29.0199C111.2 30.2399 114.48 33.1499 115.15 31.6999V31.7399Z" fill="#004055"/>
<path d="M166.18 46.43C168.42 41.6 173 36.13 178.83 36.79C186.58 37.67 185.27 48.5 183.42 53.7C182.99 54.92 186.3 57.7 186.77 56.41C189.54 48.63 188.36 39.98 181.23 35.14C173.54 29.91 166.02 36.85 162.83 43.73C162.31 44.85 165.56 47.78 166.18 46.43Z" fill="#004055"/>
<path d="M150.7 68.7301C152.35 65.1601 155.89 60.7301 160.29 61.7301C165.34 62.8401 164.29 70.2801 163.01 73.8501C162.44 75.4701 165.86 78.2401 166.51 76.4201C168.61 70.5101 168.04 62.6401 161.98 59.2901C155.58 55.7701 149.92 60.3401 147.21 66.2001C146.5 67.7301 149.87 70.5701 150.7 68.7601V68.7301Z" fill="#004055"/>
<path d="M86.1501 10.78C87.7601 7.30002 91.42 2.58002 95.7801 4.00002C100.46 5.53002 99.6601 12.3 98.3601 16C97.6901 17.88 101.21 20.56 101.96 18.47C104.07 12.47 103.67 4.62002 97.5301 1.24002C91.1 -2.29998 85.2601 2.50002 82.5301 8.34002C81.6901 10.15 85.1701 12.87 86.1201 10.81L86.1501 10.78Z" fill="#004055"/>
<path d="M74.8 39.34C77.03 34.53 82 28.34 87.98 30.34C94.55 32.49 93.65 41.68 91.82 46.85C91.17 48.67 94.66 51.37 95.39 49.34C98 42 97.68 32 90.09 27.81C81.94 23.32 74.64 29.47 71.23 36.81C70.42 38.56 73.87 41.3 74.8 39.3V39.34Z" fill="#004055"/>
<path d="M3.68984 39.6701C7.15983 32.1101 14.9398 23.0001 24.1398 26.5001C33.9098 30.2001 32.9298 43.6301 30.0498 51.6801C29.3998 53.4901 32.8898 56.2001 33.6198 54.1701C37.2598 44.0001 36.9998 29.7401 26.2698 24.0001C14.9098 18.0001 4.75983 27.0701 0.119835 37.1701C-0.680165 38.9201 2.76983 41.6601 3.68984 39.6701Z" fill="#004055"/>
<path d="M53.2196 61.11C54.8996 57.48 58.3596 53.32 62.7496 53.81C68.1896 54.43 66.9296 62.5 65.6596 66.08C65.2096 67.33 68.5296 70.15 69.0196 68.77C71.2596 62.47 70.0196 55.68 64.3396 51.77C58.2796 47.66 52.3396 52.94 49.8496 58.4C49.3096 59.57 52.5696 62.48 53.2196 61.09V61.11Z" fill="#004055"/>
</g>
<defs>
<clipPath id="clip0">
<rect width="188.15" height="76.99" fill="white"/>
</clipPath>
</defs>
</svg>
