<svg width="86" height="336" viewBox="0 0 86 336" fill="none" xmlns="http://www.w3.org/2000/svg">
<g clip-path="url(#clip0)">
<path d="M44.7101 145.85C45.1801 145.96 45.5701 146.25 45.5801 146.51L45.6701 146.67C46.1734 147.635 46.6013 148.638 46.9501 149.67L47.0801 150.01C47.3509 150.48 47.5979 150.964 47.8201 151.46C48.0301 151.92 48.5101 153.04 48.6701 153.46C48.8301 153.88 49.5001 154.79 49.5401 155C49.5801 155.21 50.1701 156 50.4001 156.73C50.6301 157.46 51.6801 159.05 51.6801 159.25C51.7761 159.596 51.9468 159.917 52.1801 160.19C52.4225 160.506 52.6399 160.84 52.8301 161.19C53.0136 161.65 53.2274 162.098 53.4701 162.53C53.6601 162.84 54.4101 164.03 54.6401 164.53C54.9514 165.343 55.3156 166.134 55.7301 166.9L55.7801 167.06L55.9701 167.67C56.3401 168.22 56.9701 169.35 57.4501 170.19L57.8701 170.95C58.0863 171.301 58.2736 171.669 58.4301 172.05L58.7001 172.82C59.1009 173.328 59.3844 173.919 59.5301 174.55C59.4701 174.75 59.9901 175.28 60.1601 175.44C60.4089 175.78 60.592 176.163 60.7001 176.57C60.8387 177.162 60.9323 177.764 60.9801 178.37H61.6301C61.7601 178.37 61.9201 178.93 61.9901 179.26V179.36C62.09 179.783 62.3253 180.162 62.6601 180.44C63.1449 181.257 63.5597 182.113 63.9001 183C64.1001 183.36 64.9001 184.07 64.7501 184.12C64.6001 184.17 64.5701 184.38 64.8201 184.5C65.0701 184.62 65.3001 185.5 65.3901 185.5C65.4801 185.5 65.6401 185.62 65.5601 185.83V186.03C65.53 186.107 65.53 186.193 65.5601 186.27C65.7901 186.49 66.1901 186.66 66.2301 186.92L66.3001 187.33C66.4701 187.67 66.8001 188.33 67.0301 188.74C67.2601 189.15 68.3101 191.05 68.8801 191.88L69.3601 192.67C69.4806 192.839 69.5687 193.029 69.6201 193.23C69.6241 193.507 69.6441 193.785 69.6801 194.06C69.6801 194.2 70.0101 194.19 70.1301 194.32L70.2701 194.48C70.3811 194.706 70.5378 194.907 70.7301 195.07V195.18V195.57C70.9703 195.815 71.2276 196.042 71.5001 196.25C71.6901 196.39 71.5001 197.25 71.5601 197.57H71.7001L72.1801 197.68C72.2712 198.082 72.4338 198.465 72.6601 198.81C72.853 199.179 72.9687 199.584 73.0001 200L73.4101 200.13L73.8101 200.26C73.9909 200.58 74.1447 200.914 74.2701 201.26C74.2701 201.31 74.1501 201.53 74.0801 201.67C74.0101 201.81 74.4901 202.28 74.6601 202.45C75.044 203.034 75.3785 203.65 75.6601 204.29L76.0401 204.78L76.4201 205.28C76.6457 205.916 76.9515 206.521 77.3301 207.08C77.5701 207.35 77.7801 208.46 77.8801 208.52C78.3506 209.127 78.7687 209.772 79.1301 210.45L79.3501 211.28C79.4101 211.53 79.3501 211.92 79.4901 212.05L79.9001 212.46C80.0683 212.69 80.1773 212.959 80.2174 213.241C80.2575 213.524 80.2275 213.812 80.1301 214.08L80.6801 214.27L80.9101 214.35C81.0958 214.669 81.253 215.003 81.3801 215.35C81.4401 215.54 81.7501 216.61 81.9501 217.35C82.3781 218.381 82.8725 219.383 83.4301 220.35L83.5401 220.74L83.9801 222.3C84.6201 223.93 85.2501 225.74 85.4001 226.3C85.5501 226.86 85.9701 228.45 85.9201 228.52C85.853 228.709 85.8325 228.911 85.8601 229.11C85.8601 229.31 85.8601 229.95 85.7201 229.97C85.5801 229.99 85.2201 230.35 85.3401 230.63C85.4601 230.91 85.5401 231.58 85.3401 231.56C85.1401 231.54 85.4301 232.47 85.3401 232.81C85.2501 233.15 85.0501 234.1 85.2701 234.2V234.37L85.4301 235.37C85.4301 236.47 85.5101 237.37 85.4901 237.45C85.368 237.628 85.2309 237.795 85.0801 237.95C84.9018 238.747 84.6542 239.526 84.3401 240.28H83.7201C83.2315 240.167 82.7505 240.023 82.2801 239.85L82.1201 239.76C81.8663 239.646 81.6016 239.559 81.3301 239.5C80.9064 239.419 80.4682 239.464 80.0701 239.63C79.8901 239.81 80.0001 240.54 79.6001 240.54C79.2001 240.54 78.1401 240.89 77.9901 241.31C77.8401 241.73 76.7801 242.47 76.6601 243.03L76.0101 242.72L75.6801 242.56C75.2501 242.63 74.4301 242.82 73.8701 242.98C73.3101 243.14 70.9801 244.26 69.8101 244.74L68.8101 245.26H68.7101C68.357 245.104 67.9831 244.999 67.6001 244.95C67.0188 244.983 66.4441 245.091 65.8901 245.27C65.7347 245.224 65.5866 245.157 65.4501 245.07C65.2601 244.96 64.6101 244.91 64.5101 245.2C64.4101 245.49 65.2901 246.2 65.5701 246.67C65.8501 247.14 67.0601 249.32 67.6401 250.39C68.2201 251.46 69.9901 254.39 70.0901 254.63C70.1901 254.87 70.8301 256.18 71.2001 256.96C71.5701 257.74 72.9301 259.88 73.1201 260.29C73.3101 260.7 74.1201 262.04 74.3301 262.48C74.5401 262.92 75.0801 264.27 75.2001 264.48C75.3201 264.69 75.8101 265.66 76.0201 266.11C76.2301 266.56 76.8301 268.27 77.0201 268.77C77.2101 269.27 77.8301 270.84 77.9501 271.14C77.9359 271.785 77.8281 272.425 77.6301 273.04C77.6301 273.16 77.7301 273.5 77.7901 273.32C77.8501 273.14 78.1501 272.84 78.3201 273.06V273.15L78.4201 273.79C78.4802 274.288 78.5136 274.788 78.5201 275.29C78.5201 275.4 78.3201 276.1 78.1801 276.61C78.0401 277.12 77.6101 278.55 77.0601 278.49L76.6901 279.16L76.4601 279.57C75.9701 279.87 75.6201 279.99 75.6701 279.84C75.7201 279.69 75.7601 279.15 75.6001 279.13C75.4401 279.11 75.0301 279.2 75.0401 279.35V279.4L75.3001 279.74C75.0302 280.346 74.6581 280.9 74.2001 281.38L73.7101 281.75L73.5301 281.88C73.2101 281.78 72.9001 281.88 72.8401 282.07C72.7801 282.26 72.3101 281.96 72.2601 281.96C72.0125 282.266 71.8042 282.602 71.6401 282.96L71.0901 282.88C70.9223 282.853 70.7505 282.879 70.5982 282.955C70.446 283.03 70.3208 283.15 70.2401 283.3L70.0801 283.55C69.7901 283.89 69.4901 283.87 69.4201 283.55C69.2642 283.058 69.0051 282.604 68.6601 282.22C68.5067 282.076 68.3836 281.902 68.2977 281.71C68.2119 281.518 68.1651 281.31 68.1601 281.1L68.0701 280.9C67.8699 280.593 67.6459 280.302 67.4001 280.03L67.2701 279.83C67.1128 279.281 66.9893 278.724 66.9001 278.16L66.0201 278.11H65.8401C65.6701 278.11 65.6101 277.94 65.7201 277.72C65.7335 277.623 65.7254 277.525 65.6964 277.432C65.6673 277.339 65.6181 277.254 65.5521 277.182C65.4861 277.11 65.4051 277.054 65.3149 277.017C65.2246 276.981 65.1273 276.965 65.0301 276.97V276.14C65.0301 276 64.7801 275.81 64.6201 275.73H64.5501C64.4101 275.84 64.3301 275.99 64.3801 276.05C64.4301 276.11 64.3801 276.43 63.9401 276.33L63.6801 276.2C63.5601 276.14 63.4101 276.01 63.5801 275.71L63.7001 275.49C63.5603 274.881 63.3203 274.3 62.9901 273.77H62.3901H62.2801C62.2028 273.765 62.1277 273.742 62.0602 273.704C61.9927 273.666 61.9346 273.613 61.8901 273.55C61.8101 273.43 61.7101 273.06 61.8901 273.04L62.0701 272.97C62.1297 272.941 62.1822 272.899 62.2237 272.847C62.2652 272.795 62.2947 272.735 62.3101 272.67C62.3101 272.55 62.2001 272.32 62.1301 272.31L61.7201 272.24C61.4816 272.001 61.2165 271.789 60.9301 271.61H60.4401L59.9401 270.61C59.8693 270.352 59.8257 270.087 59.8101 269.82C59.8101 269.64 59.4201 269.7 59.3601 269.82C59.3001 269.94 58.7801 270.33 58.5701 270.03C58.3601 269.73 58.4301 268.57 58.1901 268.46C57.9501 268.35 57.5601 267.39 57.3301 267.15L57.1701 266.87C56.9701 266.53 56.7901 266.47 56.5501 266.87C56.3977 266.823 56.2668 266.724 56.1801 266.59L56.0501 266.2C55.9601 265.69 56.0501 265.2 56.1601 265.2C56.2701 265.2 56.3601 264.89 55.9101 264.68L55.4701 265.1L55.2401 265.32C55.1998 264.737 55.0326 264.171 54.7501 263.66L54.2701 263.47H54.1601C53.9401 263.78 53.7001 263.9 53.6101 263.74C53.5201 263.58 53.1401 263.23 53.0501 263.48L53.1001 263.57L53.3901 264.11C53.6585 264.62 53.9949 265.091 54.3901 265.51C54.6201 265.7 54.9101 266.51 54.8101 266.51C54.7101 266.51 54.5201 266.82 54.6901 266.95C54.8601 267.08 55.2401 267.47 55.2001 267.53C55.1601 267.59 55.3301 267.53 55.6901 267.34C56.0501 267.15 56.3301 268.51 56.1901 268.45C56.0501 268.39 55.6301 268.28 55.6401 268.36C55.6501 268.44 56.1201 269.36 56.6401 270.36C57.1601 271.36 59.0501 274.62 59.6401 275.57L60.1101 276.49L60.5301 277.32C61.0601 278.16 61.7801 279.43 62.1401 280.14L62.6401 280.66L63.1501 281.19C63.5801 281.95 64.0901 282.89 64.2801 283.29C64.4701 283.69 65.2801 284.95 65.4901 285.45C65.7001 285.95 66.9601 288 67.5701 289.06L68.1301 290.01L68.3901 290.47C68.5715 291.09 68.917 291.65 69.3901 292.09V292.44V293.53C69.9319 294.26 70.3851 295.053 70.7401 295.89C70.9301 296.43 71.9801 297.96 72.0901 298.44C72.2001 298.92 73.3101 299.97 73.5801 300.36C73.8464 301.057 74.0636 301.772 74.2301 302.5L74.3801 302.6L74.9401 302.97C75.2101 303.69 75.5501 304.66 75.7101 305.12C76.1043 305.812 76.5349 306.483 77.0001 307.13L77.1501 307.45C77.2301 307.64 77.2601 307.87 77.3501 308.03C77.7442 308.504 78.0614 309.037 78.2901 309.61L78.4201 310.2C78.6501 310.77 79.0201 311.73 79.2501 312.35C79.3323 313.221 79.369 314.095 79.3601 314.97C79.5342 315.272 79.6011 315.625 79.5501 315.97C79.4301 316.24 79.0801 317.26 78.9001 317.63C78.7201 318 79.5501 319.5 79.7401 320.38V321.24V321.96C79.5251 322.651 79.1112 323.263 78.5501 323.72L78.2401 323.63L77.6801 323.48C77.1491 323.327 76.6077 323.213 76.0601 323.14C75.7801 323.14 75.4201 324.08 75.3601 324.14C75.3001 324.2 75.1101 324.67 75.0101 324.87C74.9101 325.07 74.1801 325.19 73.9201 325.19C73.6601 325.19 73.0101 325.27 72.9201 325.38L72.9901 325.73C73.0701 326.11 72.9901 326.33 72.7001 326.22L72.4201 326.55L72.1301 326.89C71.6501 327.05 70.4101 327.53 69.3701 327.97L68.4501 328.42L68.1301 328.57C67.8176 328.908 67.4835 329.225 67.1301 329.52C66.6084 329.871 66.0438 330.153 65.4501 330.36L65.1101 330.48C64.8201 330.58 64.6101 330.88 64.2301 330.82H63.9601L63.1801 331.4H63.1101L62.7601 331.23C62.3705 331.204 61.9796 331.204 61.5901 331.23C60.8819 331.056 60.1841 330.843 59.5001 330.59L58.9501 329.89C58.8501 329.76 58.5001 329.89 58.3801 329.81L58.2001 329.61C58.0701 329.27 57.9301 329.05 57.8701 329.1C57.8101 329.15 57.6601 329.1 57.6401 328.91C57.6201 328.72 56.8401 328.5 56.5501 328.34C56.2601 328.18 55.7401 327.98 55.5501 328.14L55.3801 327.82L55.2801 327.62C55.1143 327.577 54.9647 327.487 54.8501 327.36L54.7901 327.26L54.5701 326.9C54.2801 327.11 53.9501 326.97 53.8301 326.58C53.7101 326.19 52.7201 325.83 52.4301 325.71C52.0451 325.38 51.7523 324.957 51.5801 324.48L51.3001 324.83C51.2401 324.89 50.9501 324.83 50.9401 324.76V324.01C50.3967 323.887 49.8812 323.663 49.4201 323.35C49.0801 323.09 48.0501 322.58 48.1001 322.44C48.1266 322.098 48.0231 321.759 47.8101 321.49C47.5501 321.22 46.7301 320.55 46.6401 320.7C46.5501 320.85 46.3101 321.45 46.4001 321.51C46.4369 321.557 46.4623 321.613 46.4743 321.672C46.4862 321.731 46.4844 321.791 46.4689 321.85C46.4534 321.908 46.4247 321.961 46.385 322.007C46.3453 322.052 46.2957 322.087 46.2401 322.11L46.1701 322.29L46.0801 322.52C46.0801 322.86 46.1801 323.4 46.2401 323.71C46.3001 324.02 45.8401 325.16 45.8001 325.71C45.8763 326.545 46.0269 327.372 46.2501 328.18C46.3201 328.45 45.4701 329.18 44.7401 328.59L43.9301 329.32L43.7501 329.48C43.4001 329.4 43.1101 329.48 43.0901 329.66C43.0733 329.879 43.0261 330.094 42.9501 330.3C42.7957 330.353 42.6334 330.38 42.4701 330.38C42.2901 330.38 41.6501 330.38 41.4701 330.33C41.2901 330.28 40.8201 330.94 40.5501 330.94L40.4401 331.1C40.3259 331.389 40.2486 331.691 40.2101 332L40.1401 332.25C40.0074 332.425 39.8319 332.563 39.6305 332.65C39.4291 332.738 39.2086 332.772 38.9901 332.75C38.5101 332.75 37.3801 333.7 37.3001 333.75L36.5401 333.05C36.1787 333.808 35.7325 334.522 35.2101 335.18H34.7601L34.2101 335.25C33.5801 335.25 33.1001 335.3 33.1401 335.41C33.1502 335.456 33.151 335.504 33.1423 335.55C33.1336 335.596 33.1157 335.64 33.0895 335.68C33.0634 335.719 33.0296 335.752 32.9901 335.778C32.9507 335.804 32.9065 335.822 32.8601 335.83V335.74C32.7401 335.46 32.7501 334.64 32.5301 335.74C32.5301 335.74 32.5301 335.86 32.4401 335.86C32.0468 335.974 31.6333 336 31.2289 335.936C30.8244 335.872 30.4391 335.719 30.1001 335.49C29.9401 335.37 29.8901 335.08 29.7601 334.9C29.6301 334.72 29.2901 334.32 29.2301 334.36C28.6401 334.85 29.0401 333.99 28.8201 333.93C28.5109 333.869 28.2261 333.719 28.0001 333.5C27.6064 333.051 27.2518 332.569 26.9401 332.06L26.7501 331.75C26.1311 331.344 25.5459 330.89 25.0001 330.39L25.1501 329.39V329.3L24.5501 328.76C24.3501 328.58 24.0301 327.93 23.8101 327.84C23.5901 327.75 23.6001 326.75 23.4201 326.44C23.2401 326.13 22.6301 325.63 22.9001 325.3L22.4701 324.97C22.2701 325.22 22.1101 325.2 22.1101 324.97C22.1101 324.74 21.9001 324.12 21.6501 324.19L21.5201 324.12L21.1501 323.92C21.1501 323.47 21.0601 323.08 20.8901 323.06C20.7201 323.04 20.3501 322.56 20.1901 322.24C19.9947 321.647 19.8377 321.043 19.7201 320.43C19.4884 320.013 19.2347 319.609 18.9601 319.22C18.9601 319.05 18.8601 318.48 18.6101 318.49H18.4401H18.3601C18.2024 318.089 18.1242 317.661 18.1301 317.23H17.4801C17.3654 316.596 17.1421 315.987 16.8201 315.43L16.6101 315.02L16.4701 314.77C16.4673 314.374 16.375 313.985 16.2001 313.63L16.0801 313.35C15.9301 313.02 15.8101 312.68 15.6501 312.35C15.4901 312.02 15.3201 311.83 15.1901 311.55C15.1328 311.341 15.1026 311.126 15.1001 310.91C15.0101 310.28 14.9101 309.7 14.3201 309.43C14.0589 309.254 13.8568 309.003 13.7401 308.71C13.6801 308.59 14.1101 308.42 13.7401 308.1L13.4901 307.84C13.3894 307.649 13.3367 307.436 13.3367 307.22C13.3367 307.004 13.3894 306.791 13.4901 306.6L13.1301 306.35L12.8001 306L12.7201 305.95C12.599 305.77 12.5362 305.557 12.5401 305.34C12.5401 305.06 12.1001 304.34 12.1601 304.12C12.2201 303.9 11.7701 303.4 11.8401 303.18L11.7101 302.96C11.6601 302.88 11.7101 302.7 11.6401 302.66L10.7001 302C10.2001 300.72 9.70007 299.55 9.62007 299.39C9.54007 299.23 9.37007 298.5 9.22007 298.08C9.07007 297.66 8.43007 296.71 8.53007 296.52C8.63007 296.33 8.84007 295.7 8.53007 295.39L8.38007 295L8.25007 294.63C8.30007 294.08 8.25007 293.7 8.12007 293.78C7.99007 293.86 7.60007 293.78 7.59007 293.32L7.45007 293.11L7.27007 292.82C7.31344 292.604 7.31185 292.382 7.26539 292.167C7.21893 291.952 7.12861 291.748 7.00007 291.57L6.77007 291.13L6.70007 291C6.70007 290.75 6.86007 290.64 6.97007 290.75L7.08007 290.82C7.08007 290.82 7.23007 290.68 7.22007 290.62V290.46C7.00461 290.217 6.71742 290.049 6.40007 289.98L6.25007 289.46C5.98007 288.57 5.97007 287.53 5.25007 286.85C5.25007 286.8 5.25007 286.63 5.25007 286.51V286.13C5.34511 285.758 5.33472 285.366 5.22007 285C5.02368 284.539 4.85994 284.064 4.73007 283.58C4.61007 283.15 4.17007 282.1 4.28007 281.94C4.39007 281.78 4.62007 281.29 4.50007 281.27C4.38007 281.25 4.25007 280.79 4.23007 280.38C4.09834 279.673 3.92131 278.975 3.70007 278.29C3.59007 277.94 4.08007 277.06 4.06007 276.95C4.24985 276.43 4.49811 275.934 4.80007 275.47C5.17007 274.88 4.57007 272.36 4.40007 271.6L4.57007 270.8L4.71007 270.19C4.56007 269.41 4.41007 268.6 4.39007 268.4C4.37007 268.2 4.61007 267.47 4.51007 267.27C4.41007 267.07 4.37007 266.52 4.62007 266.52C4.87007 266.52 4.62007 265.61 4.53007 265.46V265.37L4.79007 264.8C5.16007 264.27 5.65007 263.62 5.88007 263.37C6.11007 263.12 6.46007 262.26 6.54007 262.37C6.62007 262.48 7.07007 262.37 7.43007 262.14L7.77007 261.91L8.49007 261.44C9.08007 260.59 9.68007 260.04 9.82007 260.21C9.96007 260.38 10.5001 260.67 10.6601 260.41L10.7201 260.14V260.07C10.6554 260.016 10.6022 259.95 10.5636 259.875C10.525 259.8 10.5017 259.719 10.4952 259.635C10.4886 259.551 10.499 259.466 10.5256 259.387C10.5522 259.307 10.5945 259.233 10.6501 259.17L11.0001 259C11.0801 258.92 11.2501 259 11.3701 259C11.4901 259 11.2401 259.89 11.7601 259.44C12.1001 259.15 12.2301 259.44 12.4501 259.62L12.6601 259.8C12.8154 259.865 12.9875 259.879 13.1512 259.839C13.3149 259.8 13.4617 259.709 13.5701 259.58C13.7401 259.33 14.5701 259.22 14.6601 259.15L16.5501 257.77L17.5501 257.92C17.8083 257.996 18.0851 257.977 18.3308 257.867C18.5764 257.757 18.7748 257.563 18.8901 257.32L18.9901 257.11L19.8001 256.75C20.0001 256.67 20.2801 255.7 20.3801 255.36L20.5301 255.31C20.9901 255.15 21.0001 254.92 20.7601 254.5C20.7601 254.5 20.7601 254.29 20.8401 254.21L20.9301 254.08C21.0801 253.9 21.2401 253.87 21.3001 254.01C21.3731 254.119 21.4811 254.201 21.6065 254.241C21.7319 254.281 21.8672 254.277 21.9901 254.23L22.1701 254.14L22.3701 254.05L22.9501 253.83C23.5582 254.019 24.1501 254.256 24.7201 254.54L25.3201 255.38L25.6201 255.81C26.1171 255.967 26.6017 256.161 27.0701 256.39C27.2701 256.52 27.9901 257.48 28.4301 257.82L28.5501 258.25C28.7401 258.97 28.9201 258.19 29.0601 258.34C29.2342 258.531 29.3978 258.731 29.5501 258.94L29.9301 259.48C30.2436 259.959 30.6018 260.408 31.0001 260.82C31.2301 261 31.7901 261.82 32.0001 261.71C32.2101 261.6 32.6001 262.76 32.9001 263.17L33.2001 263.51L33.5401 263.9C34.0101 264.49 34.3501 264.71 34.3101 264.38C33.988 263.463 33.6141 262.565 33.1901 261.69L32.9201 260.69L32.7701 260.13C32.4575 260.16 32.1427 260.16 31.8301 260.13V260.07C31.7942 259.963 31.7942 259.847 31.8301 259.74L31.9801 259.63C32.2301 259.52 32.2401 259.25 31.9801 259.04L31.8001 258.88C31.7001 258.79 31.5201 258.68 31.5301 258.61L31.6201 257.77C31.1101 257.34 30.4901 256.85 30.2601 256.68C30.0301 256.51 29.8901 255.22 29.6201 254.75L29.5401 254.19C29.4875 253.942 29.3779 253.709 29.2201 253.51C29.0301 253.63 28.8701 253.61 28.8801 253.46C28.8752 253.173 28.8105 252.89 28.6901 252.63C28.3914 252.373 28.0739 252.139 27.7401 251.93L27.8601 251.4C27.9101 251.14 27.5101 250.65 27.2401 250.4L27.0001 250.17C26.8709 249.953 26.754 249.73 26.6501 249.5C26.6501 249.42 26.6001 249.09 26.5501 248.82C26.3868 248.298 26.1292 247.809 25.7901 247.38L25.4901 247.18C25.1701 246.97 26.0301 246.63 25.4201 246.54C24.8101 246.45 25.4201 246.09 25.3301 245.97L25.0601 245.71C25.2301 245.51 25.1801 245.31 24.9501 245.27L24.7801 245.14L24.6601 245.05C24.5836 244.674 24.5301 244.293 24.5001 243.91C24.2848 243.299 23.9442 242.741 23.5001 242.27L23.2901 241.99L23.2401 241.93C23.3501 241.67 23.3201 241.43 23.2401 241.4C23.1601 241.37 22.6201 241.16 22.7901 241.05C22.9006 240.966 22.9808 240.848 23.0187 240.715C23.0565 240.581 23.05 240.439 23.0001 240.31C22.8601 240.08 22.5701 239.66 22.2901 239.58V239.09V238.75C22.103 238.363 21.8334 238.021 21.5001 237.75L21.4001 237.35C21.3401 237.15 21.1901 237.05 21.4001 236.84L21.4801 236.76C21.4159 236.407 21.2449 236.082 20.9901 235.83L20.8901 235.34L20.7901 234.9C20.4024 234.347 20.0834 233.75 19.8401 233.12C19.5422 232.084 19.3018 231.032 19.1201 229.97L18.7501 229.55L18.3501 229.1C18.2301 228.39 18.3501 227.72 18.6001 227.6C18.9242 227.46 19.2326 227.285 19.5201 227.08C19.4824 227.037 19.4331 227.006 19.3782 226.99C19.3233 226.974 19.2649 226.974 19.2101 226.99C19.0501 226.99 18.4701 227.2 18.2101 227.23L17.7801 226.47C17.4301 225.84 17.6301 224.83 16.8701 224.52C16.8295 224.41 16.8295 224.29 16.8701 224.18C17.2701 223.62 17.5501 223.7 17.9201 224.46C17.944 224.007 17.9104 223.554 17.8201 223.11L17.7101 222.78C17.5806 222.425 17.5295 222.046 17.5601 221.67L17.6301 221.08C17.2501 220.96 17.0401 220.79 17.1801 220.69C17.3201 220.59 17.6901 220.2 17.5501 220.15C17.1058 220.06 16.6534 220.016 16.2001 220.02L15.4501 219.02L15.3201 218.85C15.1801 218.68 15.3201 218.46 15.5401 218.37C15.7533 218.215 15.9156 218 16.0064 217.752C16.0972 217.505 16.1124 217.236 16.0501 216.98C15.8101 216.51 15.6201 214.98 15.4401 214.98C15.2601 214.98 14.7401 215.1 14.9801 215.24C15.2201 215.38 15.1801 216.24 15.0501 216.24H14.9301C14.7501 216.24 14.2501 216.45 14.6501 215.78L14.7201 215.67C14.3501 215.12 14.2501 214.67 14.4901 214.55H14.6501H14.8301C15.0601 214.55 15.2501 214.43 15.2501 214.28C15.2221 214.117 15.1593 213.962 15.0661 213.826C14.973 213.69 14.8515 213.575 14.7101 213.49C14.4101 213.39 13.5701 212.85 13.7901 212.64C14.0101 212.43 14.3901 211.64 14.1501 211.35L14.0201 211.07L13.8501 210.71C13.7301 210.27 13.6001 209.63 13.5501 209.3L13.6201 208.98C13.6606 208.767 13.6576 208.549 13.6112 208.337C13.5648 208.126 13.4759 207.926 13.3501 207.75L13.0401 207.34L12.3901 206.34L12.3301 206.15C12.2501 205.93 12.0601 205.25 11.8901 204.64C11.7201 204.03 11.3101 202.29 11.2501 201.81C11.1782 201.089 11.1582 200.364 11.1901 199.64C11.1901 199.41 11.8501 199.36 11.9901 199.74C12.1301 200.12 13.0501 200.33 12.9201 200.14C12.8387 199.94 12.8115 199.721 12.8413 199.507C12.8712 199.293 12.957 199.09 13.0901 198.92L13.3201 198.57L13.5201 198.25C13.6823 197.697 13.9321 197.174 14.2601 196.7L14.6201 197.34L14.7001 197.47C15.1901 197.41 15.4401 197.23 15.2501 197.08C15.0601 196.93 14.7701 196.54 15.1101 196.6C15.4501 196.66 16.0201 197.08 16.1101 196.77C16.1145 196.203 16.0609 195.636 15.9501 195.08C15.8701 194.71 15.0601 194.45 15.1901 194.29C15.2761 194.152 15.3216 193.993 15.3216 193.83C15.3216 193.667 15.2761 193.508 15.1901 193.37C14.8966 192.924 14.6833 192.43 14.5601 191.91C14.5601 191.67 14.1101 191.22 14.1701 190.91V190.67V190.52C14.1701 190.35 14.0801 190.25 13.9801 190.31C13.8801 190.37 13.6301 190.06 13.4401 189.66C13.2501 189.26 12.7401 187.94 12.6401 187.71C12.5401 187.48 11.9201 187.29 11.8701 187.24C11.8307 187.17 11.81 187.09 11.81 187.01C11.81 186.929 11.8307 186.85 11.8701 186.78L11.9801 186.65L12.0501 186.59C12.1501 186.53 11.8601 186.23 11.4001 185.92L11.0101 185.61C10.9558 185.561 10.9127 185.5 10.8834 185.433C10.8541 185.366 10.8393 185.293 10.8401 185.22L10.9201 184.58L10.0001 183.31V183V182.59C9.85007 182.22 9.69007 181.83 9.62007 181.71C9.55007 181.59 9.13007 181.56 8.94007 181.27L8.92007 181C8.85793 180.617 8.83115 180.228 8.84007 179.84C8.84007 179.57 8.09007 180.05 8.51007 179.33C8.51007 179.28 8.24007 178.93 8.10007 178.72C7.98806 178.59 7.88451 178.453 7.79007 178.31C7.63007 177.99 7.52007 177.64 7.35007 177.31L7.20007 177.04C7.17799 176.62 7.02403 176.217 6.76007 175.89L6.53007 175.6L6.30007 175.32C6.10739 175.103 5.99141 174.829 5.97007 174.54C5.97007 174.36 5.83007 174.06 5.62007 174.22L5.40007 173.89C5.14007 173.5 5.40007 173.33 5.50007 173.03L5.56007 172.89C5.34237 172.512 5.10193 172.148 4.84007 171.8L5.18007 171.37C5.31007 171.21 5.18007 171.05 4.77007 171.25L4.62007 171.34C4.39672 171.032 4.21514 170.696 4.08007 170.34L4.02007 169.84C4.02007 169.74 3.57007 169.72 3.55007 169.24V169.05C3.55007 168.82 3.49007 168.18 3.42007 167.63C3.35007 167.08 2.10007 166.25 2.02007 165.84C1.88568 165.079 1.68148 164.333 1.41007 163.61C1.17007 163.2 0.900074 162.61 0.990074 162.5C1.08007 162.39 1.27007 161.95 1.14007 161.85H1.07007L0.920074 161.91C0.880777 161.939 0.835045 161.959 0.786646 161.967C0.738246 161.976 0.688564 161.972 0.64169 161.958C0.594817 161.943 0.552094 161.918 0.517041 161.883C0.481988 161.849 0.455608 161.806 0.440074 161.76C0.290716 161.279 0.200057 160.782 0.170074 160.28L0.0900738 159.78V159.48C-0.0699262 159.19 0.280074 158.19 0.860074 157.24L1.41007 156.37L1.50007 156.23C1.69866 155.964 1.85081 155.667 1.95007 155.35C1.96198 154.69 1.84302 154.034 1.60007 153.42L1.83007 152.89C2.14648 152.327 2.29241 151.684 2.25007 151.04C2.50684 150.371 2.81441 149.722 3.17007 149.1C3.25007 148.92 3.17007 148.62 3.24007 148.42C3.31007 148.22 3.59007 148 3.62007 147.76C3.70007 147.19 4.03007 147.4 4.26007 147.41H4.41007C4.62335 147.612 4.87045 147.774 5.14007 147.89C5.38007 147.98 6.14007 147.07 6.25007 147.22C6.37405 147.355 6.53296 147.454 6.70935 147.505C6.88575 147.556 7.07283 147.558 7.25007 147.51C7.60007 147.38 8.19007 146.37 8.41007 146.51C8.63007 146.65 9.25007 146.9 9.34007 146.8C9.43007 146.7 9.73007 146.5 9.87007 146.56C10.0871 146.624 10.2953 146.715 10.4901 146.83C10.5501 146.9 10.5801 147.27 10.7601 147.41L10.8201 147.35L11.1501 147.09C11.4801 146.76 11.7201 146.44 11.6901 146.38C11.6601 146.32 11.5601 146.02 11.6901 146.03C11.9075 146.054 12.12 146.111 12.3201 146.2C12.504 146.268 12.7062 146.268 12.8901 146.2C13.1301 146.11 14.2401 145.92 14.7901 145.78L15.2601 145.39L15.5101 145.18C15.7556 145.214 16.0053 145.163 16.218 145.035C16.4307 144.908 16.5937 144.712 16.6801 144.48L16.8601 144.06V143.97C17.1601 143.61 17.4901 143.46 17.5901 143.63C17.6793 143.726 17.7909 143.798 17.9148 143.839C18.0387 143.881 18.1711 143.892 18.3001 143.87C18.931 144.099 19.5486 144.362 20.1501 144.66V145.66C20.2172 145.721 20.2983 145.766 20.3864 145.789C20.4744 145.812 20.5668 145.813 20.6554 145.792C20.7441 145.771 20.8263 145.73 20.8951 145.67C20.9639 145.61 21.0171 145.535 21.0501 145.45L21.1901 145.15C21.2601 145.01 21.2401 145.02 20.8701 144.86C20.7301 144.79 20.5001 144.65 20.4901 144.53C20.4401 143.79 19.4901 143.32 20.0801 142.4L19.1901 140.81L19.1301 140.75C19.0119 140.536 18.9339 140.302 18.9001 140.06C18.765 139.643 18.5623 139.251 18.3001 138.9C18.1801 138.78 18.1401 137.68 17.8501 137.3L17.5901 136.96L17.3101 135.5L17.6201 135.24C17.4501 134.97 17.0901 134.46 16.8301 134.1C16.3583 133.456 15.7799 132.898 15.1201 132.45L15.5601 131.78C15.8201 131.39 15.4101 130.78 15.8401 130.37L15.9001 130.32C15.7409 129.903 15.5109 129.518 15.2201 129.18L15.0401 128.66C14.5201 127.09 14.3201 126.81 14.6301 126.1L14.9201 125.46C14.9201 124.73 14.7201 124.21 14.5601 124.3C14.4001 124.39 13.8501 124.19 13.5601 123.72C13.2001 122.937 12.8895 122.132 12.6301 121.31L12.7501 121.11C12.9001 120.86 12.9101 120.55 12.5601 120.53C12.2101 120.51 12.2001 120.13 12.2801 119.93L12.6101 119.08C12.4501 118.19 12.1101 117.45 11.8601 117.46C11.6101 117.47 11.3101 116.22 11.1801 115.46L10.9001 114.87C10.7476 114.481 10.6435 114.074 10.5901 113.66L10.5301 113.31C10.2701 113.02 10.1701 112.7 10.3201 112.59C10.4701 112.48 10.8101 112.11 10.7701 111.99V111.93L10.5101 111.6C10.3626 111.421 10.2692 111.203 10.2408 110.973C10.2125 110.743 10.2504 110.509 10.3501 110.3L9.85007 110.07C9.78007 110.07 9.85007 109.56 9.85007 109.29V109.14C9.82037 108.837 9.73565 108.542 9.60007 108.27C9.46932 107.502 9.46932 106.718 9.60007 105.95L9.12007 105.49C8.95007 105.32 8.91007 105.21 9.12007 104.98L9.20007 104.89C9.1312 104.573 9.03758 104.262 8.92007 103.96C8.81007 103.7 8.77007 102.48 8.60007 101.96L8.70007 101.84L9.13007 101.28C8.79163 100.826 8.50957 100.332 8.29007 99.8099L8.17007 99.4199C8.17007 99.3599 8.17007 99.2599 8.25007 99.1799C8.64007 98.3899 8.68007 98.3399 8.40007 98.0199L8.00007 97.6899C8.18007 97.2999 8.37007 96.8299 8.43007 96.6899C8.49007 96.5499 8.00007 95.9999 7.80007 95.8999V95.7699C7.80007 95.3199 8.12007 95.5299 8.32007 95.4699H8.41007C8.36303 94.9942 8.22377 94.5323 8.00007 94.1099L7.74007 93.4599C7.44007 92.7299 7.55007 93.0099 8.23007 92.6299L8.85007 92.2799C8.85007 92.7199 9.00007 92.8399 9.23007 92.5499V92.3599C9.17007 92.0299 8.73007 91.5599 8.78007 91.4899C8.90615 91.3465 8.98447 91.1674 9.00418 90.9774C9.02389 90.7875 8.98401 90.5961 8.89007 90.4299C8.63007 90.0699 8.89007 89.9999 8.96007 89.7899V89.6999C8.84007 89.5099 8.63007 89.5599 8.50007 89.8099L8.40007 89.3899C8.40915 89.3125 8.43429 89.2378 8.4739 89.1706C8.51351 89.1035 8.5667 89.0453 8.63007 88.9999C8.83007 88.9199 8.99007 88.8999 8.75007 88.6499L8.69007 88.5899C8.50007 88.5899 8.47007 88.1099 8.62007 87.4699C8.77007 86.8299 9.85007 85.6599 10.0001 85.8499C10.1501 86.0399 10.6701 86.2499 10.9001 86.0299C11.1301 85.8099 11.6701 85.0299 11.6001 84.7499C11.5301 84.4699 11.2201 83.7499 11.0901 83.7499C10.9601 83.7499 10.6801 83.3299 10.7701 82.8099L11.3301 83.3699L11.6101 83.6399C11.9102 83.324 12.1907 82.99 12.4501 82.6399C12.5401 82.4899 13.1201 83.0799 13.0201 83.1999C12.9201 83.3199 12.7001 83.6699 12.7501 83.6999C12.9291 83.7257 13.111 83.7257 13.2901 83.6999C13.5401 83.6999 13.9001 82.5099 14.1401 82.0299L14.6601 82.5799L14.7901 82.7199C15.1702 82.4845 15.5083 82.1871 15.7901 81.8399C15.9201 81.6299 16.4601 81.5099 16.5801 81.3299C16.7001 81.1499 17.2401 81.6099 17.3501 81.7099C17.4601 81.8099 17.8401 81.7699 17.7801 81.6599L17.7101 81.5599L17.6201 81.4399C17.5425 81.3613 17.499 81.2553 17.499 81.1449C17.499 81.0345 17.5425 80.9285 17.6201 80.8499C17.7901 80.6999 18.3501 80.5499 18.6201 80.7599C18.8806 81.2595 19.0112 81.8166 19.0001 82.3799C19.0001 82.7299 19.1601 83.7599 19.3601 83.7599C19.5601 83.7599 20.0701 83.9199 20.0001 84.1099L19.5801 83.9999C19.1301 83.9999 18.7601 84.0899 18.7601 84.2899C18.7512 84.5286 18.7747 84.7675 18.8301 84.9999L19.3601 84.7999C19.5701 84.7199 20.0001 85.7999 19.8501 85.5899H19.7701C19.5201 85.5899 19.1101 85.4799 19.0401 85.5899C18.8201 86.0299 19.2101 85.9999 19.4101 86.1799C19.6819 86.4875 19.8863 86.8486 20.0101 87.2399C20.054 87.4274 20.054 87.6224 20.0101 87.8099V88.0099C20.0446 88.5304 20.1877 89.038 20.4301 89.4999L20.7301 90.0099C20.8601 90.2299 20.9801 90.8899 21.3901 90.2999C21.5748 90.6387 21.7095 91.0025 21.7901 91.3799C21.9301 91.8799 22.8801 92.7999 22.9201 92.9099C22.9048 93.3332 22.8376 93.753 22.7201 94.1599L23.2201 94.3699L23.7101 94.5799C23.6301 95.0199 23.7101 95.4399 23.7901 95.4999C24.0052 95.6395 24.2003 95.8077 24.3701 95.9999V96.0899C24.2717 96.513 24.3063 96.9561 24.4692 97.3588C24.6321 97.7615 24.9152 98.1041 25.2801 98.3399L25.6901 98.5999C25.8901 99.0199 25.9701 99.4199 25.8701 99.4799C25.7024 99.9761 25.7024 100.514 25.8701 101.01L26.0601 101.65V101.77L26.8901 102.44C27.2301 102.72 28.1001 103.02 27.8401 102.96C27.5801 102.9 27.0001 103.24 27.1101 103.51C27.2201 103.78 28.1101 104.24 27.8201 104.34L27.7401 104.51C27.6101 104.78 27.6901 105.03 28.0201 105.07C28.1101 105.07 28.2401 105.38 28.2501 105.55V106.55C28.9342 107.307 29.5097 108.155 29.9601 109.07L30.0801 109.81C30.0801 109.81 30.3101 109.87 30.3401 109.81C30.5701 109.39 30.7501 109.53 30.9401 109.81C31.0301 109.95 31.1801 110.04 31.2301 110.19V110.36C31.2252 110.414 31.2083 110.466 31.1805 110.512C31.1528 110.559 31.1149 110.598 31.0697 110.628C31.0246 110.658 30.9733 110.677 30.9197 110.684C30.8661 110.692 30.8115 110.687 30.7601 110.67V110.1C30.4601 110.18 30.2801 110.41 30.3601 110.61C30.518 110.928 30.702 111.232 30.9101 111.52C31.0101 111.64 30.8001 112.16 30.8501 112.29C30.9001 112.42 31.4301 113.42 31.9001 114.29L32.3401 115.04L32.4801 115.29C32.4008 115.52 32.4008 115.77 32.4801 116C32.5601 116.11 32.7701 116.15 32.7801 115.85C32.7901 115.55 32.8401 114.7 32.9901 114.61C33.1401 114.52 33.6801 114.39 33.7301 114.61L33.8101 114.76L33.8701 114.91C33.9801 115.06 33.9901 115.23 33.8701 115.29C33.7501 115.35 33.7601 115.79 34.1301 116.12L34.4801 116.35C34.5601 116.41 34.7201 116.35 34.8501 116.27H34.9501C35.0601 116.27 35.1601 116.35 35.1701 116.54L35.1101 116.65C34.9595 116.885 34.8861 117.161 34.9001 117.44V117.55C34.9001 117.68 34.8401 118 34.8001 118.26C34.7601 118.52 34.1001 118.9 34.0201 119.39L34.1401 119.76L34.3701 120.49C34.9701 120.97 35.2201 121.49 34.9101 121.7V121.83C34.9294 122.087 35.0477 122.328 35.2401 122.5L35.5301 122.71C35.85 122.825 36.1927 122.863 36.5301 122.82V122.42C36.7315 122.354 36.9486 122.354 37.1501 122.42C37.2901 122.48 37.6301 122.84 37.4701 123C37.3101 123.16 36.7701 123.44 36.5501 123.61V124.13C36.4372 124.171 36.3196 124.198 36.2001 124.21C36.1401 124.21 36.0301 124.39 36.0601 124.63L36.8201 124.69C36.8701 125.46 37.0901 125.97 37.3101 125.82C37.5301 125.67 37.6501 124.76 37.8601 124.69C38.0701 124.62 38.7401 124.69 38.8001 124.88C38.8601 125.07 37.8901 125.73 37.4801 126.1L38.0701 126.79L38.2101 126.95C38.2901 127.24 38.4001 127.37 38.4401 127.24C38.4801 127.11 38.7201 127.06 38.8901 127.39C39.0601 127.72 39.8901 127.31 40.0901 127.55V127.71L40.0101 128.05C39.7701 128.49 39.6901 128.8 39.8401 128.75C39.9901 128.7 40.4201 128.7 40.4401 128.87C40.4601 129.04 40.7201 129.55 40.8901 129.39C41.0601 129.23 41.6201 129.09 41.6701 129.47L41.5701 129.65L41.4401 129.86C41.1717 129.871 40.906 129.918 40.6501 130C40.4645 130.002 40.2803 129.966 40.1086 129.896C39.9368 129.826 39.7809 129.722 39.6501 129.59C39.3401 129.26 38.3801 129.46 38.5101 129.7C38.6401 129.94 39.1401 130.47 39.3601 130.41C39.5801 130.35 40.1201 130.41 40.0101 130.62C39.9001 130.83 40.7001 132.15 40.6401 132.43L40.5601 132.67L40.4801 132.91C40.4111 133.182 40.4111 133.468 40.4801 133.74C40.5501 133.91 41.2201 134.02 41.4801 134.06C41.4801 134.78 41.9501 134.54 42.2501 134.66L42.4101 134.73C42.5701 134.98 42.6001 135.24 42.4801 135.29C42.3601 135.34 42.1601 135.6 42.3401 135.77C42.6114 136.048 42.8046 136.393 42.9001 136.77C42.9001 137.01 43.4601 136.88 43.5201 136.77C43.6793 136.673 43.856 136.609 44.0401 136.58C44.2201 136.58 44.4401 135.75 44.5401 135.58C44.6029 135.519 44.6793 135.474 44.763 135.449C44.8466 135.423 44.9352 135.418 45.0212 135.434C45.1072 135.449 45.1883 135.485 45.2577 135.539C45.327 135.592 45.3827 135.661 45.4201 135.74L44.8701 136.18L44.6801 136.34C44.597 136.592 44.5302 136.849 44.4801 137.11C44.4801 137.17 44.6001 137.69 44.7301 138.11L45.2201 138.03H45.5501C45.3701 138.343 45.2354 138.679 45.1501 139.03H45.5401C45.7121 139.055 45.8725 139.132 46.0001 139.25C45.9301 139.47 45.7501 139.68 45.6101 139.7C45.3043 139.665 45.0139 139.548 44.7701 139.36L44.6101 139.18C44.6101 139.12 44.6101 138.92 44.6101 138.86C44.6101 138.8 44.3801 138.65 44.2801 138.67C44.1801 138.69 44.0801 138.87 44.0701 138.99V139.31C44.0701 139.73 44.2301 140.01 44.4101 139.93C44.5901 139.85 44.8301 140.41 44.8101 140.75V141.05C44.8101 141.05 44.7201 141.05 44.6801 141.05L44.1401 141.29C43.9944 141.752 43.9268 142.235 43.9401 142.72H44.0201C44.0857 142.734 44.154 142.728 44.2163 142.703C44.2785 142.678 44.332 142.635 44.3701 142.58L45.0001 142C45.4095 141.821 45.7876 141.578 46.1201 141.28V141.16C46.1023 141.096 46.0707 141.037 46.0275 140.987C45.9842 140.937 45.9305 140.897 45.8701 140.87L45.7001 140.8C45.3401 140.74 45.7901 140.29 46.7001 139.8L47.1901 139.07C47.3501 138.82 47.3501 138.56 47.0201 138.46H46.9201C46.8008 138.313 46.7063 138.147 46.6401 137.97C46.5701 137.8 46.6401 137.29 46.4401 137.22C46.3861 137.17 46.3431 137.11 46.3136 137.043C46.2842 136.976 46.269 136.903 46.269 136.83C46.269 136.757 46.2842 136.684 46.3136 136.617C46.3431 136.55 46.3861 136.49 46.4401 136.44C46.7201 136.15 47.4401 135.61 47.4401 135.87C47.4401 136.13 48.0301 136.79 48.1701 137.22L48.4001 137.56C48.3924 137.592 48.3779 137.622 48.3575 137.648C48.337 137.674 48.3112 137.696 48.2818 137.711C48.2524 137.726 48.22 137.735 48.1869 137.736C48.1538 137.738 48.1208 137.732 48.0901 137.72C47.9701 137.66 47.6401 137.63 47.6401 137.8C47.6401 137.97 47.9901 138.24 48.4001 138.19L48.7201 138.31L49.0201 138.44C49.0201 138.29 49.2601 138.3 49.4401 138.44C49.5712 138.616 49.6526 138.824 49.6754 139.042C49.6983 139.26 49.6619 139.481 49.5701 139.68V139.98C49.6401 140.64 49.1101 140.39 48.9901 140.7C48.8701 141.01 48.8001 141.15 48.6701 140.99C48.4201 140.67 48.0401 140.48 48.3801 139.82L48.5201 139.55C48.0501 139.35 47.6601 139.55 47.6401 140.03C47.7549 140.74 48.0099 141.42 48.3901 142.03L48.7201 142.17L48.9901 142.29C49.3424 142.123 49.6774 141.922 49.9901 141.69C50.1501 141.56 50.5901 142.13 50.4301 142.69L50.2801 143.22C49.9072 143.318 49.5252 143.379 49.1401 143.4L49.4001 143.59C49.8101 143.89 49.8101 143.8 49.9501 143.33C50.0101 143.14 50.2301 142.93 50.1301 142.7L50.0801 142.58C49.7415 142.56 49.4022 142.604 49.0801 142.71C48.7701 142.81 48.0101 142.71 48.0801 142.91V143.08V143.33L49.6601 143.56C50.0001 143.56 50.5701 143.56 50.7201 143.12L50.8501 142.8C51.0301 142.36 51.0901 142.38 51.4101 142.93L51.4601 143.01L51.9401 143.15C52.1001 143.15 52.4001 143.44 52.3901 143.6C52.43 143.989 52.583 144.357 52.8301 144.66V145.09V145.43C53.0804 145.601 53.3088 145.803 53.5101 146.03C53.7357 146.435 53.8625 146.887 53.8801 147.35C53.8801 147.6 53.3501 147.91 53.2901 147.79C53.2301 147.67 52.8501 147.37 52.7301 147.61L52.6201 147.78C52.4601 148.02 52.2701 148.17 52.0501 147.89L51.8701 147.66C51.8279 147.269 51.8515 146.873 51.9401 146.49C52.0201 146.18 51.1501 145.57 51.0701 145.49C50.8957 145.136 50.7421 144.772 50.6101 144.4L50.3001 144.79C50.2054 144.91 50.1249 145.041 50.0601 145.18L50.0001 145.31C50.0001 145.49 49.8601 145.54 49.7601 145.42C49.6601 145.3 49.2601 144.97 49.2101 145.09C49.1846 145.23 49.1893 145.374 49.2238 145.511C49.2583 145.649 49.3218 145.778 49.4101 145.89C49.6301 146.09 50.8201 146.54 50.8801 146.89C50.9401 147.24 51.0101 148.06 50.8801 147.98C50.6467 147.855 50.3848 147.793 50.1201 147.8V147.9C50.1036 147.975 50.1022 148.052 50.116 148.128C50.1297 148.203 50.1583 148.275 50.2001 148.34L50.5001 148.54C50.6827 148.626 50.8301 148.773 50.9175 148.955C51.0049 149.137 51.027 149.343 50.9801 149.54V149.89C50.9801 149.97 51.2301 150.13 51.3801 150.14H51.5001C51.6501 150.02 51.7501 150.14 51.7101 150.35L51.6201 150.51L51.4901 150.74C51.3001 150.95 51.0801 151 51.0101 150.86C50.7735 150.624 50.4696 150.467 50.1401 150.41L49.8901 150.5L49.6201 150.6C49.4722 150.5 49.3105 150.423 49.1401 150.37C48.9242 150.212 48.7293 150.027 48.5601 149.82C48.2801 149.53 47.5601 148.13 47.2501 147.7C46.8973 147.168 46.5991 146.602 46.3601 146.01H46.4201L46.7001 146.07C46.9901 146.16 47.1301 146.14 47.0101 146.07C46.8763 145.825 46.7594 145.571 46.6601 145.31C46.5946 144.98 46.5946 144.64 46.6601 144.31H45.6601C45.3065 144.048 44.9723 143.76 44.6601 143.45C44.5801 143.35 44.4801 143.39 44.5001 143.45C44.5201 143.51 44.5001 144.03 44.5801 144.29C44.6601 144.55 45.2701 144.86 45.3801 145.1V145.16L44.7101 145.85ZM49.3901 148C49.4589 148.329 49.4958 148.664 49.5001 149V149.28V149.75C49.7901 149.96 50.1201 150.06 50.2401 149.98C50.3331 149.887 50.3925 149.766 50.4088 149.635C50.4251 149.505 50.3974 149.373 50.3301 149.26C50.1501 149.03 48.8201 148.61 49.1601 148.53C49.5001 148.45 49.3401 147.83 49.3901 148ZM51.6301 261.26C52.3901 262.67 52.6301 262.67 53.1701 261.35L51.6301 261.26Z" fill="#004055"/>
<path d="M76.3699 168.42C76.3204 168.717 76.2225 169.004 76.0799 169.27C75.8522 169.745 75.7068 170.256 75.6499 170.78C75.6499 171.05 76.1699 171.58 76.2199 171.71C76.2699 171.84 76.5899 173.03 76.8399 173.11V172.87C76.8399 172.77 76.5399 172.62 76.3999 172.47L76.2199 172.27C76.0399 172.03 75.7899 171.98 75.6699 172.15C75.5499 172.32 75.9599 173.02 76.0399 173.15C76.1199 173.28 76.4999 172.83 76.6999 172.67C76.8999 172.51 77.2099 172.36 77.1099 173.11C76.8394 173.913 76.3956 174.647 75.8099 175.26C75.7171 175.359 75.6453 175.475 75.5989 175.602C75.5525 175.729 75.5324 175.865 75.5399 176L75.2199 175.83L74.8699 175.65C74.4299 175.46 74.0599 175.51 74.0499 175.74V175.95V176.56C73.2336 176.989 72.3882 177.36 71.5199 177.67L70.6199 178.03L70.4599 178.09C70.3699 178.18 70.1199 178.09 69.9199 177.76C69.7199 177.43 69.1099 176.88 68.9999 177.02C68.8899 177.16 68.5199 176.52 68.4199 176.26L68.3099 176.03L67.7699 175.89C67.3515 175.633 66.9625 175.331 66.6099 174.99C66.4099 174.82 65.7499 174.46 65.6099 174.52H65.2099C65.1947 173.981 65.1513 173.444 65.0799 172.91H64.7499H64.5899C64.3799 173.3 64.1499 173.46 64.0799 173.27C64.0099 173.08 63.8599 172.48 63.7999 172.39C63.7399 172.3 63.4399 172.31 63.3299 172.13V172V171.73C63.3299 171.36 63.1599 171.21 62.8999 171.4C62.6399 171.59 61.9999 171.93 62.0899 171.72C62.1799 171.51 62.2199 170.72 61.9699 170.59L61.7399 170.45C61.5899 170.37 61.3899 170.33 61.3199 170.19L61.1999 169.95C61.0999 169.67 60.9399 169.47 60.8499 169.52C60.7599 169.57 60.4199 169.52 60.5899 169.21C60.7599 168.9 61.2599 168.34 61.3899 168.63L61.5699 168.7L61.7199 168.76C61.9864 169.138 62.277 169.499 62.5899 169.84L62.9499 169.76C63.0128 169.744 63.0719 169.715 63.1235 169.676C63.175 169.636 63.218 169.587 63.2499 169.53V169.4C63.1699 169.23 62.9899 168.75 62.8499 168.33H62.3999L61.7499 168.41C61.8315 168.802 61.8817 169.2 61.8999 169.6C61.8999 169.67 61.9799 168.8 61.9899 168.39C61.9999 167.98 62.5099 167.54 62.5599 167.39C62.6901 167.264 62.8498 167.172 63.0244 167.123C63.199 167.074 63.383 167.07 63.5599 167.11V167.86C63.8563 167.915 64.1247 168.07 64.3199 168.3C64.4924 168.767 64.5705 169.263 64.5499 169.76C64.5499 170 64.8499 170.54 64.8299 170.56C64.75 170.625 64.6523 170.663 64.5499 170.67C64.3983 170.765 64.2726 170.896 64.1836 171.051C64.0947 171.206 64.0453 171.381 64.0399 171.56L64.1799 171.66C64.5599 171.91 64.5599 171.45 64.6599 171.15V171.06C64.7659 171.066 64.8672 171.106 64.9483 171.175C65.0295 171.243 65.0862 171.336 65.1099 171.44V171.6L64.8999 172.41C65.3599 172.58 65.7499 172.61 65.7499 172.49C65.7424 172.258 65.7157 172.027 65.6699 171.8C65.6699 171.66 65.4999 170.88 65.4399 170.39L66.0399 169.76C66.3799 169.42 66.6499 169.11 67.1099 169.42L67.2699 169.54C67.4699 169.6 67.4399 169.27 67.1999 168.8L66.8899 168.65C66.7099 168.56 66.4199 168.84 66.1799 168.96L65.9399 169.07C65.6799 169.2 65.5199 169.07 65.5799 168.85C65.6399 168.63 65.9199 168.07 66.0499 168.13C66.1799 168.19 66.4399 168.13 66.3899 167.95C66.3399 167.77 65.8299 167.55 65.3899 167.47C64.9499 167.39 64.1099 167.63 64.2099 167.26C64.3099 166.89 64.5399 165.77 64.3699 165.97C64.1999 166.17 63.7199 166.11 63.4899 165.63L63.1799 165.39L62.8699 165.16C62.5799 164.85 62.3399 164.89 62.3399 165.24C62.3329 165.847 62.2727 166.453 62.1599 167.05C62.0599 167.32 61.5699 167.81 61.5299 167.7C61.455 167.602 61.3491 167.531 61.2294 167.5C61.1096 167.47 60.983 167.48 60.8699 167.53C60.5699 167.65 60.2199 168.53 60.1499 168.38C60.0799 168.23 59.9499 167.69 60.0499 167.65L60.1399 167.58C60.2493 167.501 60.33 167.389 60.3699 167.26C60.3699 167.14 60.2499 166.92 60.1799 166.91H59.8099C59.5316 166.944 59.2494 166.906 58.9899 166.8C58.9899 166.8 59.0499 166.72 59.0899 166.68C59.1299 166.64 59.1899 166.57 59.1799 166.56C59.0399 166.31 58.8999 166.07 58.7499 165.83L58.5199 165.47C58.3492 165.638 58.1397 165.762 57.9099 165.83C57.9099 165.74 57.8499 165.56 57.9099 165.51C58.007 165.419 58.1231 165.351 58.2499 165.31L58.5499 165.16C58.4139 164.848 58.2127 164.568 57.9599 164.34C57.7399 164.15 57.0199 163.75 56.8199 163.83H56.6199C56.6199 163.83 56.4799 163.45 56.5199 163.41L56.9899 162.85C56.5899 162.67 56.0899 162.45 55.8899 162.38C55.6899 162.31 55.1699 161.87 55.2299 161.58C55.2899 161.29 55.2899 160.5 55.1199 160.47C54.9499 160.44 54.5399 160.27 54.6799 160.19C54.8199 160.11 55.1099 159.7 55.0299 159.44L54.9099 159.36L54.3299 158.95C54.3959 158.515 54.5453 158.098 54.7699 157.72C54.8653 157.64 54.9359 157.535 54.9731 157.416C55.0103 157.297 55.0127 157.17 54.9799 157.05C54.7827 156.642 54.5229 156.268 54.2099 155.94L54.1099 156.09C54.0529 156.29 54.0744 156.505 54.1699 156.69C54.2379 156.832 54.251 156.995 54.2067 157.146C54.1624 157.297 54.0638 157.427 53.9299 157.51L53.7799 157.81L53.6399 158.1C53.6399 158.79 53.6399 158.99 53.5499 158.52C53.4599 158.05 52.7099 157.85 52.7099 157.74C52.7099 157.63 52.7599 157.39 52.8099 157.43C52.874 157.459 52.9466 157.463 53.0133 157.44C53.08 157.418 53.1359 157.372 53.1699 157.31C53.3604 157.001 53.5779 156.71 53.8199 156.44L53.5599 156.24L53.4499 156.16C53.293 156.14 53.1337 156.164 52.9899 156.23C52.8899 156.29 52.5099 155.96 52.3999 155.82C52.2899 155.68 51.5399 155.82 51.5299 155.65C51.5199 155.48 51.6299 154.89 51.8199 154.97C52.0099 155.05 52.4999 155.2 52.5199 155.13C52.5399 155.06 52.3399 154.84 52.1199 154.67C51.6874 154.287 51.3749 153.787 51.2199 153.23L51.3599 152.86C51.4599 152.57 51.5699 152.37 51.3599 152.15C51.32 152.123 51.273 152.108 51.2249 152.108C51.1767 152.108 51.1297 152.123 51.0899 152.15L50.9599 152.33C50.8542 152.538 50.7607 152.751 50.6799 152.97C50.6799 153.11 50.4399 153.25 50.2999 152.97L50.1199 152.83L50.0399 152.77C49.8299 152.96 49.6399 152.77 49.6199 152.29C49.5999 151.81 48.8999 150.86 49.1299 150.37L49.5699 150.95C49.6499 151.06 49.7299 151.33 49.6799 151.41L49.5299 151.68C49.7215 152.004 49.9936 152.273 50.3199 152.46L50.6999 151.96L51.1699 151.37C51.6299 151.45 51.7399 152.15 51.3999 152.91L52.3199 153.29C52.3199 153.29 52.3199 153.51 52.3199 153.61L52.4899 154.29C52.8699 153.96 53.0399 153.51 52.8699 153.29C52.6999 153.07 52.3499 152.38 52.4299 152.17C52.5099 151.96 52.8199 151.69 52.8899 152.05C52.9599 152.41 54.3099 152.87 54.5999 152.96H54.8499C54.9479 152.952 55.0426 152.92 55.1261 152.868C55.2096 152.816 55.2794 152.745 55.3299 152.66L55.3899 152.56C55.2436 152.247 55.0066 151.986 54.7099 151.81L54.5499 151.45C54.4799 151.3 54.3099 151.07 54.2299 151.09L53.5999 151.24C52.9299 151.31 52.3699 151.24 52.3599 151.19C52.3596 151.006 52.4272 150.828 52.5499 150.69L53.1599 150.29C53.2316 150.2 53.2815 150.094 53.3058 149.981C53.3301 149.869 53.3281 149.752 53.2999 149.64L53.1699 149.57L52.7099 149.31C52.0299 149.01 51.7099 148.55 51.9899 148.31C52.2699 148.07 53.1599 148.12 53.1699 148.31C53.1799 148.5 54.0099 149.54 54.0199 149.25V149.03V148.71C53.9299 148.27 54.0199 148.01 54.2099 148.14C54.3999 148.27 54.9199 148.65 54.7999 148.68C54.6799 148.71 54.5299 149.06 54.6199 149.41L54.7499 149.7C54.7499 149.75 55.0399 149.63 55.1999 149.57H55.3499C55.5899 149.47 55.7199 149.64 55.6499 149.95C55.6197 150.367 55.7211 150.783 55.9399 151.14C56.2536 151.538 56.4479 152.016 56.4999 152.52C56.4999 152.93 56.7199 154.06 56.4999 154.19C56.2799 154.32 55.7599 154.54 55.7399 154.28L55.6899 154.13C55.6488 153.946 55.5778 153.771 55.4799 153.61C55.2656 153.781 55.0857 153.992 54.9499 154.23C54.8199 154.45 54.4299 154.92 54.2999 154.86C54.1699 154.8 53.8099 154.86 53.9699 155.1C54.1514 155.28 54.3695 155.418 54.6093 155.506C54.8492 155.594 55.1051 155.63 55.3599 155.61H55.6599H55.7899C55.8837 155.634 55.9718 155.676 56.049 155.735C56.1263 155.793 56.1912 155.866 56.2399 155.95L56.1399 156.11C55.9935 156.231 55.8231 156.32 55.6399 156.37C55.5099 156.37 55.2699 156.66 55.3299 156.73L55.6299 157.13C55.6899 157.22 55.8699 158.13 55.9999 158.21H56.1499H56.2799C56.4399 158.31 56.5299 158.44 56.4899 158.5C56.4736 158.541 56.4675 158.585 56.4722 158.629C56.4769 158.673 56.4923 158.715 56.5169 158.751C56.5416 158.788 56.5748 158.818 56.6136 158.838C56.6525 158.859 56.6958 158.87 56.7399 158.87C57.0099 158.87 57.7399 159.15 57.7399 159.48C57.6144 160.037 57.3872 160.566 57.0699 161.04L57.3399 161.34C57.2677 161.517 57.1462 161.67 56.9899 161.78C56.8699 161.84 57.2699 162.13 57.6199 161.95L57.6999 161.46C57.7799 160.99 57.8799 160.53 57.9799 160.06V160C57.9799 160 58.1699 160.08 58.3099 160.22C58.519 160.562 58.6136 160.961 58.5799 161.36L58.6799 161.56L58.7799 161.75C59.1318 161.933 59.4158 162.224 59.5899 162.58L59.4599 163V163.08C59.4599 163.21 59.5999 163.3 59.7999 163.29C59.9999 163.28 60.5799 162.97 60.4499 162.67C60.2328 162.175 60.1172 161.641 60.1099 161.1C60.2399 160.95 60.4599 160.5 60.3799 160.4C60.2999 160.3 59.9399 160.06 59.8099 160.18C59.6799 160.3 59.2499 160.57 59.2099 160.49C59.1754 160.181 59.1754 159.869 59.2099 159.56L59.1299 159.2L59.0099 158.59C59.9006 158.798 60.8019 158.958 61.7099 159.07C62.1699 159.07 61.7999 158.61 61.4599 158.33C61.114 157.778 60.8827 157.163 60.7799 156.52H60.7299C60.6099 156.47 60.3799 156.46 60.3699 156.52C60.3542 156.784 60.3106 157.045 60.2399 157.3C60.1199 157.53 59.8699 157.65 59.6999 157.85C59.6999 157.85 59.7899 158.17 59.8299 158.16H60.0999C60.2109 158.432 60.3739 158.68 60.5799 158.89H60.6699C60.8499 158.78 60.9299 158.47 61.1799 158.83L61.4399 159.22C61.1299 159.15 60.4899 158.97 59.9999 158.81C59.4345 158.609 58.9193 158.289 58.4899 157.87L58.2999 157.56C58.2999 157.49 58.2999 157.31 58.2999 157.24C58.2999 157.17 58.0699 156.99 57.9799 156.85L57.6199 156.29C57.0799 155.94 56.6799 155.43 56.7399 155.14C56.8521 154.574 57.0127 154.019 57.2199 153.48L57.5499 153.98L57.6399 154.12C57.8463 154.031 58.0659 153.977 58.2899 153.96C58.2649 154.246 58.2215 154.53 58.1599 154.81H58.6199C58.9799 154.81 58.8599 154.42 58.8599 154.17V153.67C58.5479 153.09 58.1971 152.532 57.8099 152C57.6599 151.86 57.7599 151.3 57.9699 151.41C58.537 151.619 59.1231 151.773 59.7199 151.87C59.9499 151.87 59.9699 151.6 59.8399 151.44C59.6764 151.336 59.4902 151.272 59.2971 151.255C59.1039 151.237 58.9093 151.266 58.7299 151.34L58.8899 151.83C59.1199 152.31 59.3999 152.89 59.5199 153.12C59.6399 153.35 60.1099 153.92 60.2899 153.82C60.4699 153.72 60.8999 153.35 60.7799 153.3C60.6599 153.25 60.4299 153.06 60.4799 152.97C60.5299 152.88 60.5499 152.6 60.3999 152.58C59.8866 152.21 59.4685 151.723 59.1799 151.16C58.9917 150.544 58.6973 149.965 58.3099 149.45C58.0599 149.21 58.0199 148.18 57.9299 148.16C57.6947 148.049 57.4967 147.871 57.3599 147.65C57.2299 147.4 56.7799 146.89 56.6599 147.03C56.5399 147.17 56.2899 147.64 56.4199 147.68C56.6122 147.782 56.7961 147.899 56.9699 148.03C57.1199 148.13 57.5899 148.22 57.5699 148.39C57.4634 148.689 57.3153 148.972 57.1299 149.23C57.0199 149.39 56.5899 149.7 56.3899 149.57C56.1899 149.44 56.2399 148.66 56.2699 148.23L55.9499 148.11C55.6599 148 55.2799 148.19 55.3199 147.54V147.38C55.2648 147.16 55.2648 146.93 55.3199 146.71C55.3199 146.51 55.6899 146 55.8999 146.18V146.32C55.8999 146.73 56.1599 146.83 56.3499 146.65C56.4187 146.536 56.4639 146.408 56.4828 146.276C56.5017 146.144 56.4939 146.009 56.4599 145.88L56.3699 145.55C55.9075 145.527 55.4441 145.561 54.9899 145.65L54.8699 145.78L54.7599 145.91C54.6499 146.31 54.5599 146.31 54.5699 145.91C54.5799 145.51 55.3899 144.77 55.5699 144.43L55.8399 144.26C55.8856 144.197 55.9181 144.126 55.9352 144.05C55.9524 143.975 55.954 143.896 55.9399 143.82C55.7299 143.4 55.4899 143.01 55.2499 142.62C55.2499 142.56 55.0599 142.57 54.9899 142.62C54.9199 142.67 54.8199 142.8 54.8399 142.86L54.9199 143.2C55.0799 143.66 55.0499 143.95 54.8599 143.84C54.6699 143.73 54.3999 143.37 54.5599 143.23C54.7199 143.09 54.1699 142.41 53.9999 142.18C53.7267 141.677 53.5663 141.121 53.5299 140.55L53.5899 140.18V140.1C53.4713 139.694 53.2962 139.307 53.0699 138.95L52.7299 138.56L52.5299 138.32C52.1099 138.41 51.7199 138.32 51.6699 138.03C51.6199 137.74 51.5199 136.82 51.4399 136.42C51.3599 136.02 50.5199 135.84 50.4399 135.97L50.8699 136.59C50.4399 136.82 50.1999 137.03 50.3399 137.06C50.4799 137.09 50.9499 137.38 50.9499 137.61C50.9499 137.84 51.0599 138.44 51.1999 138.32C51.3399 138.2 51.8299 138.74 51.8699 139.06H51.9599C52.1299 139.11 52.4199 138.81 52.4999 138.89C52.8099 139.22 52.4999 139.43 52.3399 139.69L52.2799 139.81C52.2799 140.02 52.2199 140.09 52.0899 139.97C51.9599 139.85 51.5899 139.69 51.4899 139.8C51.3424 139.892 51.1779 139.954 51.0061 139.981C50.8343 140.009 50.6588 140.002 50.4899 139.96L50.8799 139.39C50.9096 139.299 50.9196 139.203 50.9093 139.109C50.8989 139.014 50.8684 138.922 50.8199 138.84C50.6699 138.66 50.4299 138.61 50.2699 138.44C50.2904 138.388 50.3002 138.333 50.2987 138.277C50.2972 138.222 50.2843 138.167 50.2609 138.116C50.2375 138.066 50.2041 138.021 50.1627 137.983C50.1212 137.946 50.0726 137.918 50.0199 137.9L49.8399 137.81L49.1799 137.48C49.418 137.068 49.6349 136.644 49.8299 136.21C49.8299 136.13 49.4599 135.77 48.9299 135.63L48.5199 136.19L48.3999 136.36C48.1399 136.36 48.0999 136.18 48.3099 135.87L48.4499 135.54V135.44C48.4499 135.24 48.5099 135.05 48.6099 135.03C48.6573 134.998 48.6961 134.955 48.723 134.904C48.7499 134.854 48.7639 134.797 48.7639 134.74C48.7639 134.683 48.7499 134.626 48.723 134.576C48.6961 134.525 48.6573 134.482 48.6099 134.45L48.4099 134.39L47.7899 134.22C47.5371 133.966 47.3664 133.642 47.2999 133.29C47.2999 133.07 47.1399 132.49 46.9499 132.49C46.7599 132.49 46.1999 132.39 46.2999 132.11C46.4692 131.576 46.4692 131.004 46.2999 130.47C46.0799 130.13 45.0299 130.47 44.9299 130.41C44.8299 130.35 44.7399 130.2 44.9299 130.25C45.1199 130.3 44.8199 129.25 44.5799 128.93C44.3399 128.61 44.7799 127.44 44.7099 127.21H44.5999L44.3199 127.13C44.2748 126.836 44.158 126.558 43.9799 126.32C43.8399 126.16 43.4799 125.99 43.4899 126.32C43.4999 126.65 43.3999 127.15 43.3299 126.84C43.2599 126.53 42.7499 126.09 42.9299 125.97C43.1847 125.692 43.3487 125.343 43.3999 124.97C43.3999 124.73 43.1199 124.12 42.7699 124.48C42.4124 124.701 42.0003 124.819 41.5799 124.819C41.1594 124.819 40.7473 124.701 40.3899 124.48L39.8499 123.97C39.8076 123.868 39.8076 123.752 39.8499 123.65V123.57C40.1128 123.457 40.394 123.393 40.6799 123.38H41.0299H40.9999C41.2499 123.38 41.1799 123.59 40.8399 123.79V123.95V124.16C40.9567 124.354 41.1094 124.523 41.2899 124.66C41.372 124.662 41.4535 124.644 41.528 124.61C41.6025 124.575 41.6681 124.524 41.7199 124.46C42.0599 124.153 42.3743 123.818 42.6599 123.46L42.2399 123.06C42.2878 122.871 42.3619 122.689 42.4599 122.52C42.5599 122.33 42.7699 122.16 42.7699 121.99V121.63C42.6799 121.25 42.5399 121.05 42.4599 121.19C42.3205 121.514 42.2069 121.848 42.1199 122.19C42.0599 122.44 41.7399 123.13 41.5899 123.02H41.4199L41.2599 122.97C41.0399 122.97 40.9199 122.88 40.9899 122.72C41.0599 122.478 41.0599 122.222 40.9899 121.98C40.899 121.736 40.7851 121.502 40.6499 121.28C40.5199 121.15 40.0299 121.11 40.1399 121.48C40.2811 121.969 40.3913 122.467 40.4699 122.97C40.3386 122.975 40.2082 122.947 40.0899 122.89C40.0399 122.89 40.0899 122.7 40.0299 122.59L39.8599 121.88C39.544 122.011 39.1997 122.06 38.8599 122.02L38.9399 121.86L39.0799 121.57C38.9899 121.31 39.0799 121.09 39.1499 121.07C39.5408 120.93 39.9189 120.756 40.2799 120.55C40.6699 120.33 41.9299 119.77 42.1699 119.61L42.2499 119.39C42.2795 119.125 42.2557 118.856 42.1799 118.6C42.1799 118.6 42.0099 118.52 41.9299 118.54C41.5899 118.64 41.7599 118.99 41.7199 119.24C41.7199 119.3 41.4099 119.36 41.0299 119.37C40.5371 119.243 40.0747 119.018 39.6699 118.71C39.5334 118.188 39.4628 117.65 39.4599 117.11L38.8299 116.76C38.5599 116.6 38.5999 116.35 38.7699 116.09L39.1699 115.48C38.8099 115.08 38.4399 114.91 38.3699 115.12C38.2999 115.33 38.2299 115.97 38.3699 116.05C38.5099 116.13 37.9899 116.3 37.8299 116.18V116.03L37.7699 115.57C37.5721 115.339 37.4317 115.065 37.3599 114.77V114.7L37.7299 114.13C37.4646 113.935 37.2516 113.677 37.1099 113.38C37.1099 113.21 36.9899 112.62 36.7099 112.38C36.4299 112.14 35.8199 111.38 35.6299 111.54C35.3082 111.712 34.9739 111.859 34.6299 111.98C34.4999 111.98 34.4899 111.61 34.6299 111.63L34.7899 111.42C34.9238 111.189 35.1371 111.015 35.3899 110.93C35.642 110.887 35.8853 110.802 36.1099 110.68C36.1699 110.61 35.9799 110.22 35.5599 109.96C35.1399 109.7 34.1499 108.96 34.2199 108.88C34.2899 108.8 34.5399 108.6 34.5899 108.66C34.6399 108.72 34.8499 108.79 34.9199 108.66V108.58C34.9199 108.43 34.8299 108.19 34.7699 108.18H34.4599C34.1499 108.18 33.7699 108.58 33.6199 109.04C33.4699 109.5 34.7399 110.3 34.7799 110.32C34.8136 110.4 34.8211 110.488 34.8014 110.573C34.7816 110.657 34.7355 110.733 34.6699 110.79C34.4799 110.95 34.2699 111.64 34.1399 111.63C33.937 111.636 33.7355 111.666 33.5399 111.72C33.4699 111.72 33.2799 111.72 33.2899 111.64C33.2999 111.56 33.7199 110.95 33.8999 110.57L33.4599 110.27L32.9399 109.91C32.6399 109.1 32.5199 108.57 32.6599 108.72C32.7999 108.87 33.2599 109.02 33.2599 108.65V108.38V108.05C33.4535 107.93 33.6121 107.761 33.7199 107.56C33.7699 107.42 33.7199 106.86 33.4499 106.86C33.1799 106.86 32.4499 106.77 32.4499 106.65C32.4499 106.53 32.5399 106.32 32.6499 106.37H32.9099C33.1865 106.37 33.456 106.457 33.6799 106.62L33.7999 106.31L33.8799 106.11C33.7899 105.78 33.5499 105.59 33.3399 105.69L33.1499 105.77L33.0099 105.61L33.0799 105.26C33.1599 104.88 33.0799 104.56 32.9099 104.55H32.7599H32.5999C32.3599 104.55 32.2499 104.48 32.3499 104.34C32.4499 104.2 32.6199 103.65 32.4399 103.52C32.2148 103.403 31.963 103.348 31.7099 103.36C31.5099 103.36 31.3299 102.67 31.3099 102.26C31.2899 101.85 30.3099 101.48 30.2099 101.35V101.23C30.2252 101.165 30.2547 101.105 30.2962 101.053C30.3377 101.001 30.3902 100.959 30.4499 100.93C30.5799 100.93 30.7499 100.93 30.8599 100.93C30.9125 100.882 30.9541 100.823 30.9818 100.758C31.0094 100.692 31.0224 100.621 31.0199 100.55L30.8899 100.23C30.7385 99.9743 30.608 99.7068 30.4999 99.43C30.4999 99.29 30.3099 98.97 30.2599 99.1C30.2099 99.23 30.0199 99.52 29.9499 99.47C29.784 99.1529 29.6564 98.8172 29.5699 98.47C29.3019 97.8316 29.1268 97.1581 29.0499 96.47V96.18V95.59C28.7226 95.6803 28.3771 95.6803 28.0499 95.59C27.8399 95.51 28.0499 94.76 27.9799 94.59L27.8599 94.51C27.5499 94.27 26.9899 94.19 27.5699 93.51C27.593 93.3265 27.5467 93.141 27.4399 92.99C26.8499 92.76 26.4899 92.49 27.0399 91.72L27.0899 91.65C26.9499 91.38 26.5099 90.65 26.0899 90.04L25.7299 89.48C25.6108 89.3205 25.4693 89.1791 25.3099 89.06H25.2499C25.0632 89.0216 24.8884 88.9394 24.7399 88.82C24.5299 88.68 24.3999 87.91 24.6199 87.98H24.7899C24.9354 87.9723 25.0751 87.9199 25.1899 87.83C25.2322 87.8023 25.2656 87.7628 25.2858 87.7164C25.3061 87.67 25.3123 87.6187 25.3038 87.5688C25.2953 87.5189 25.2725 87.4725 25.238 87.4355C25.2035 87.3984 25.159 87.3721 25.1099 87.36L24.3199 87.14C24.0493 86.0945 23.6496 85.0867 23.1299 84.14V83.23C23.1299 83.14 22.9399 83.05 22.8299 82.99L22.3099 82.68C22.6099 82.38 22.6499 82.03 22.3899 81.92C21.9835 81.141 21.6649 80.3193 21.4399 79.47L21.1499 79.2C20.9667 79.0368 20.793 78.8632 20.6299 78.68V78.62C20.6299 78.41 20.7799 78.29 20.9099 78.34C21.0399 78.39 21.3599 78.34 21.2299 77.95C21.0046 77.3843 20.7509 76.8302 20.4699 76.29C20.1619 75.801 19.9387 75.2634 19.8099 74.7C19.8099 74.31 19.3499 73.45 19.7399 72.94L20.2999 73.62C20.5399 73.37 20.4299 73.07 20.0499 72.96C19.6699 72.85 18.7999 72.36 18.9199 72.12C19.0399 71.88 19.4699 71.43 19.0799 71.4L19.2299 70.74C19.2299 70.6 19.0999 70.39 18.9999 70.25C18.8999 70.11 18.8099 70.25 18.7599 70.32C18.5599 70.61 18.7599 70.82 18.8999 71.02C18.8999 71.17 18.7699 71.22 18.5599 71.12C18.3499 71.02 17.8999 70.69 17.9699 70.59C18.0399 70.49 17.9199 70.11 17.7099 69.98C17.4999 69.85 17.1899 68.8 16.7899 68.58V67.73C17.1899 67.48 17.4599 67.2 17.3999 67.11C16.7199 67.44 16.4799 66.55 15.9899 66.35C15.9899 66.29 15.8499 65.94 15.7399 65.56L15.9199 65.14C16.1399 64.6 15.7399 64.46 15.4299 64.21C15.1199 63.96 15.5599 63.43 14.9499 63.21C14.3399 62.99 14.3899 62.21 14.5099 61.69C14.5899 61.35 14.6499 61.2 14.9399 61.23H15.1599C15.5099 61.23 15.6299 60.97 15.4399 60.67H15.3099L14.8399 60.53C14.4499 60.89 13.8999 60.73 13.6299 60.17L13.3599 59.64C13.2999 59.51 13.1299 59.36 13.1499 59.25C13.3799 57.81 12.0899 57.25 11.8799 56.12V56.04C11.5799 55.99 11.4499 55.89 11.5799 55.82C11.7032 55.6683 11.7854 55.4875 11.8187 55.2949C11.852 55.1022 11.8352 54.9043 11.7699 54.72C11.6099 54.24 10.7199 53.44 10.7699 53.38H10.8499H10.9299C11.0699 53.38 11.0399 53.11 10.8699 52.89L10.7199 52.71C10.5792 52.558 10.4521 52.3941 10.3399 52.22C10.374 52.1895 10.3991 52.1502 10.4125 52.1064C10.4258 52.0626 10.4269 52.0159 10.4155 51.9716C10.4042 51.9272 10.3809 51.8868 10.3481 51.8548C10.3154 51.8228 10.2745 51.8004 10.2299 51.79L10.1499 51.64L10.0799 51.53C10.1352 51.2979 10.2088 51.0706 10.2999 50.85C10.1661 50.3589 9.95336 49.8928 9.66986 49.47C9.37986 48.98 8.78986 47.6 8.60986 47.19L8.42986 46.82C8.35986 46.68 8.12986 46.51 8.14986 46.47L8.31986 46.09C8.31112 45.8803 8.25535 45.6753 8.15669 45.4901C8.05802 45.3049 7.91899 45.1442 7.74986 45.02L7.80986 44.52C7.84774 44.2708 7.91142 44.0261 7.99986 43.79L8.05986 43.66C8.05986 43.48 7.99986 43.34 7.94986 43.35L7.49986 43.54V43C7.4868 42.7978 7.43234 42.6003 7.33986 42.42C7.23986 42.18 7.08986 41.97 6.96986 41.74C6.96986 41.65 7.11986 41.61 7.25986 41.66C7.39986 41.71 7.77986 41.78 7.81986 41.66C7.83666 41.5831 7.82704 41.5028 7.79257 41.432C7.75809 41.3613 7.70077 41.3042 7.62986 41.27L7.47986 41.15L6.61986 40.49C6.74589 39.8679 6.76617 39.2289 6.67986 38.6L6.75986 38.46C6.84986 38.31 7.14986 38.33 7.20986 38.19L7.25986 38C7.25986 37.66 7.08986 37.38 6.89986 37.38C6.70986 37.38 6.13986 37.56 6.12986 37.78C6.11986 38 5.98986 38.63 5.87986 38.59L5.76986 38.36C5.68479 38.0491 5.68479 37.721 5.76986 37.41C5.80835 36.9759 5.78817 36.5387 5.70986 36.11V36C5.83986 35.39 6.12986 35.17 6.55986 35.34C6.63986 35.34 6.68986 35.55 6.75986 35.56H6.89986C6.9461 35.5433 6.98854 35.5176 7.02472 35.4843C7.06089 35.451 7.09007 35.4109 7.11056 35.3662C7.13104 35.3215 7.14241 35.2732 7.14401 35.224C7.1456 35.1749 7.1374 35.1259 7.11986 35.08L6.99986 35L6.56986 34.54C6.66441 34.0759 6.80857 33.6233 6.99986 33.19C6.99986 33.19 6.99986 32.82 6.71986 32.44V32.08V31.56C6.85986 30.98 7.14986 30.46 7.36986 30.4C7.58986 30.34 7.61986 29.58 7.70986 29.54C8.04376 29.5044 8.38117 29.5213 8.70986 29.59V28.9C9.15931 28.9179 9.60238 29.0126 10.0199 29.18L10.5299 28.8C10.7799 28.61 11.2799 27.99 11.6799 28.74C11.6799 28.74 11.9099 28.63 12.0299 28.59C12.1875 28.5439 12.3478 28.5071 12.5099 28.48L13.7299 28.41L14.2199 28.21C14.709 28.0029 15.2235 27.8617 15.7499 27.79C16.0599 27.79 16.7499 27.01 16.9199 26.93C17.0899 26.85 17.5699 26.86 17.5799 27.04L17.6399 27.18C17.7264 27.4668 17.8473 27.7422 17.9999 28C18.0799 28.11 18.3799 27.34 18.4599 28.12V28.35C18.6699 28.57 18.9399 28.86 19.0499 28.99C19.2585 29.2057 19.5019 29.3849 19.7699 29.52V29.62L19.8799 30C19.9018 30.2413 19.9725 30.4756 20.0877 30.6887C20.2028 30.9019 20.3601 31.0894 20.5499 31.24L20.7799 31.55L21.0499 31.9C21.2799 32.36 21.6199 33.08 21.8299 33.48C22.0399 33.88 22.9399 35.48 23.3699 36.25L23.7599 36.9V36.95C23.8017 37.205 23.8017 37.465 23.7599 37.72C23.7599 38.1 24.5699 38.93 24.7599 39.16C25.1402 39.764 25.4745 40.3958 25.7599 41.05C26.1256 41.7408 26.533 42.4087 26.9799 43.05C26.9799 43.17 27.0799 43.6 27.1399 43.79C27.3341 44.1112 27.5549 44.4156 27.7999 44.7C27.9299 44.89 28.0199 45.43 28.5599 45.42V46.42C28.6299 46.63 28.6199 46.78 28.5599 46.74C28.4999 46.7 28.2599 46.74 28.2199 46.81C28.1987 47.0398 28.2259 47.2714 28.2999 47.49C28.3699 47.73 29.2999 47.64 29.9699 48.03L30.0699 48.8L30.1499 49.41C30.4282 49.8377 30.6532 50.2977 30.8199 50.78C31.0193 51.2224 31.282 51.6333 31.5999 52L31.7799 52.29L32.0499 52.7C32.2919 53.0251 32.4561 53.4015 32.5299 53.8V53.92V54.07C32.5657 54.3899 32.6943 54.6923 32.8999 54.94C33.356 55.4324 33.7802 55.9534 34.1699 56.5C34.3299 56.86 34.7599 57.84 34.7899 57.85C34.8199 57.86 34.8999 57.63 34.8699 57.27C34.7938 56.6858 34.6632 56.1099 34.4799 55.55L34.3699 55.32L33.8699 54.32C33.9713 54.0225 34.0351 53.7134 34.0599 53.4C34.0599 53.28 33.7499 53.19 33.6499 53.03C33.478 52.772 33.3684 52.4776 33.3299 52.17V51.59C33.1599 51 32.6999 50.49 32.3299 50.47L32.5399 50L32.8899 49.21C32.3699 49.07 31.9599 48.79 31.9599 48.59C31.9599 48.39 31.9599 47.59 31.8999 47.39H31.3199C31.3199 46.82 31.2599 46.16 31.2299 45.92C31.1999 45.68 30.8799 44.92 30.8499 44.75C30.8199 44.58 30.8499 43.63 30.7499 43.29C30.5305 42.7826 30.1866 42.3389 29.7499 42L30.0399 41.53C29.7499 41.22 29.5799 40.95 29.6599 40.91C29.7399 40.87 29.7699 40.57 29.4299 40.34L29.2799 40.04C29.1924 39.7143 29.1686 39.3747 29.2099 39.04V38.57C28.9663 38.3103 28.7911 37.9942 28.6999 37.65V37.5C28.6999 37.37 28.8299 37.25 28.8299 37.13C28.8299 36.82 28.1199 36.86 28.5499 36.26L28.6299 36.14C28.4699 35.75 28.1999 35.14 28.0199 34.79L27.8099 34.51C27.5299 34.13 28.3199 33.91 27.8799 33.51L27.5899 33.28C27.6799 32.94 27.8599 32.28 28.0099 31.71L27.4199 31.55H27.3399C27.2899 31.43 27.1499 30.98 27.0399 30.55C26.8739 30.0029 26.8062 29.4307 26.8399 28.86C26.9499 28.79 27.2099 28.53 27.0399 28.49C26.886 28.3791 26.7692 28.2242 26.705 28.0458C26.6407 27.8673 26.632 27.6735 26.6799 27.49L26.5799 27.18C26.6102 26.9411 26.6673 26.7063 26.7499 26.48C26.886 26.2936 26.9939 26.088 27.0699 25.87C27.1599 25.59 28.0699 25.27 28.2299 25.21C28.3899 25.15 28.4099 23.76 28.4499 23.21C28.544 22.3251 28.7351 21.4532 29.0199 20.61C29.5513 20.0763 30.1618 19.6277 30.8299 19.28L30.8899 19.95C30.8899 20.02 31.2099 20.14 31.3299 20.09L31.4999 20.01C31.6597 20.1318 31.8101 20.2656 31.9499 20.41C32.0699 20.54 32.3699 20.15 32.5199 20C32.6699 19.85 33.2699 20.13 33.5199 20.35L33.6599 19.7L33.7799 19.2L35.0299 19.73C35.3299 19.85 36.3899 19.83 36.7399 20.27V19.27C36.9954 19.2053 37.2566 19.1651 37.5199 19.15C37.8299 19.15 38.7399 19 38.8699 18.97L38.9299 19.02L39.3799 19.45C39.7199 19.06 40.1799 18.56 40.3799 18.32C40.5799 18.08 41.6199 19.4 41.8599 19.91L42.0599 20.38C42.2899 20.93 42.9299 21.25 43.4299 21.57C43.7699 21.79 44.0599 21.38 43.8199 20.99C43.5799 20.6 44.2099 20.38 43.9099 19.99C43.6099 19.6 43.3099 19.47 43.3599 18.88V18.52C43.2638 18.0785 43.2638 17.6215 43.3599 17.18L43.2999 16.94C43.2999 16.7 42.9499 16.56 42.8499 16.32L42.7599 16C42.7788 15.5934 42.8598 15.1922 42.9999 14.81C43.1399 14.45 42.7699 13.39 42.7899 13.27C42.8099 13.15 43.0199 12.52 43.1499 12.06C43.2799 11.6 42.8899 10.14 43.0399 9.85001C43.1899 9.56001 43.5499 8.61001 43.4399 8.46001C43.3299 8.31001 43.1999 7.86001 43.3199 7.70001C43.4572 7.51003 43.6185 7.33861 43.7999 7.19001C43.836 7.65931 43.836 8.1307 43.7999 8.60001V9.23001V9.56001C44.0799 9.88001 44.3699 9.56001 44.4399 8.86001L44.2799 8.32001C44.1199 7.77001 44.8399 7.39001 44.3299 6.84001L44.1399 6.63001C44.2083 6.29123 44.2985 5.95721 44.4099 5.63001C44.5152 5.4903 44.6323 5.35983 44.7599 5.24001C44.8399 5.15001 44.7599 4.62001 44.6499 4.40001C44.5444 4.07787 44.507 3.73736 44.5399 3.40001C44.6099 3.28001 44.8899 3.14001 44.9799 3.18001C45.0691 3.27931 45.1352 3.39723 45.1732 3.52522C45.2113 3.65321 45.2204 3.78807 45.1999 3.92001C45.1999 4.24001 45.9399 4.57001 46.0199 4.82001C46.0999 5.07001 46.7499 5.25001 46.7799 5.14001C46.8324 5.05046 46.9121 4.97992 47.0074 4.93858C47.1026 4.89724 47.2085 4.88724 47.3099 4.91001C47.5099 4.99001 47.6399 4.18001 47.7899 3.91001V3.64001C47.7873 3.51847 47.7705 3.39765 47.7399 3.28001V3.06001C47.7399 2.83001 47.6799 2.54001 47.6699 2.43001C47.6599 2.32001 47.9999 2.00001 48.1499 2.00001C48.2999 2.00001 48.8799 2.00001 48.9099 2.14001C48.9118 2.53476 48.8851 2.92913 48.8299 3.32001C48.8299 3.68001 49.5799 3.67001 49.3699 3.53001C49.1599 3.39001 49.5199 2.64001 49.7199 2.79001C49.9199 2.94001 50.5099 3.29001 50.5499 3.17001C50.7606 2.6719 51.0149 2.19338 51.3099 1.74001L51.4499 1.04001V1.00001C51.7449 1.09272 52.0222 1.23473 52.2699 1.42001C52.5599 1.63001 53.4599 1.27001 53.5199 1.42001C53.5611 1.45967 53.6109 1.48949 53.6653 1.50725C53.7197 1.525 53.7775 1.53023 53.8342 1.52253C53.8909 1.51484 53.9452 1.49443 53.9929 1.46282C54.0406 1.43122 54.0806 1.38923 54.1099 1.34001L54.2199 1.04001C54.2391 0.882978 54.2038 0.724107 54.1199 0.590007C54.0677 0.509927 54.0451 0.414134 54.0561 0.319185C54.067 0.224237 54.1108 0.136099 54.1799 0.0700066H54.2599C54.3399 -0.0299934 54.5699 0.270007 54.7699 0.740007C54.9699 1.21001 54.5199 2.58001 54.5299 2.67001C54.72 3.08895 54.9405 3.49337 55.1899 3.88001C55.5222 4.68819 55.7669 5.52966 55.9199 6.39001C56.0483 6.74295 56.2196 7.07879 56.4299 7.39001L56.5599 7.78001L56.6899 8.18001C56.6899 8.66001 56.7899 9.52001 56.8299 10.07L57.0499 10.26L57.5899 10.71C57.42 11.2218 57.3554 11.7626 57.3999 12.3C57.4699 12.57 57.4699 13.48 57.5099 13.74C57.5499 14 57.7999 15.11 57.9599 15.79C58.1199 16.47 58.5999 19.13 58.7699 20.15C58.9399 21.17 59.3099 24.02 59.3599 24.15L59.4099 24.29L59.8299 26V27.45L60.9599 30.81C61.0999 31.23 61.3999 33.21 61.6099 34.27V35.27V36.19C61.7573 36.7785 61.9342 37.3592 62.1399 37.93C62.2243 38.1315 62.2814 38.3434 62.3099 38.56C62.2977 39.0145 62.3212 39.4692 62.3799 39.92C62.6029 40.9077 62.7533 41.9104 62.8299 42.92L63.0499 43.98C63.1199 44.33 62.7999 44.98 62.9299 45.11L63.3299 45.58C63.0899 45.95 62.9999 46.35 63.1299 46.49C63.2599 46.63 63.1299 47.24 63.2199 47.49C63.3099 47.74 62.8299 48.68 62.7599 49.17L62.5899 49.48C62.3819 49.9265 62.2924 50.4189 62.3299 50.91V51C62.1482 51.3225 61.9879 51.6566 61.8499 52C61.6599 52.47 61.0799 54.25 60.8499 54.87L60.4799 55.28L60.1099 55.69C59.8891 55.4709 59.648 55.2734 59.3899 55.1C59.1346 55.1487 58.8884 55.2364 58.6599 55.36L58.3599 55.09L58.2999 55C58.0108 55.0609 57.7338 55.169 57.4799 55.32C57.0171 55.4924 56.522 55.5607 56.0299 55.52C55.7999 55.46 55.4499 56.24 55.3299 56.25L53.4399 56.5L52.7299 56.69H52.5799C52.5297 57.128 52.5568 57.5714 52.6599 58C52.7499 58.29 53.1899 59.48 53.3999 60C53.7076 60.8894 54.1567 61.7235 54.7299 62.47L54.5599 63.3L54.4699 63.77C54.7599 64.4 55.1699 65.29 55.3599 65.77C55.5499 66.25 55.9899 67.77 56.1799 68.14C56.4998 68.879 56.7736 69.6372 56.9999 70.41C57.2944 71.0732 57.6743 71.6951 58.1299 72.26C58.2799 72.44 57.9099 73.05 57.8999 73.13C57.8899 73.21 58.0199 73.79 58.1299 74.4C58.5898 75.3034 59.1145 76.1724 59.6999 77C59.9399 77.52 60.2499 79 60.4699 79C60.6899 79 60.5799 79.84 60.6199 80C60.6599 80.16 60.9899 80.48 60.9699 80.57C61.0492 81.0939 61.1764 81.6094 61.3499 82.11L61.5799 82.68L61.7099 83.02C61.9037 83.3189 62.0142 83.6641 62.0299 84.02C62.0299 84.22 62.3699 84.81 62.4699 85.02C62.7047 85.5147 62.9117 86.0222 63.0899 86.54L63.1899 87C63.3399 87.73 63.3799 88.52 64.1899 88.75C64.1539 89.206 64.1539 89.664 64.1899 90.12C64.1899 90.58 65.0999 91.28 65.1199 91.36C65.1399 91.44 65.2099 91.86 65.2399 92.1C65.4452 92.7515 65.6992 93.3866 65.9999 94C66.3099 94.66 66.9999 96.86 67.1599 97.21C67.3199 97.56 67.8399 98.66 67.9699 98.82C68.0999 98.98 68.1999 99.91 68.3399 100.13C68.5613 100.548 68.7325 100.991 68.8499 101.45C68.9536 101.888 69.0941 102.316 69.2699 102.73C69.3699 102.93 69.9399 104.39 70.3299 105.53L70.8299 106.47L70.9299 106.64C70.9941 107.064 71.0242 107.492 71.0199 107.92L71.5099 108C71.5929 108.46 71.7065 108.915 71.8499 109.36C71.9999 109.87 72.6899 111.42 72.7999 111.96C72.9099 112.5 73.9499 114.18 74.2199 114.96L74.5899 115.64L75.0699 116.52C75.4099 117.62 75.8599 118.98 76.0699 119.52C76.2799 120.06 77.0699 121.68 77.1299 121.94C77.1899 122.2 77.6399 123.38 77.8099 123.94C77.9799 124.5 78.8099 126.22 78.8899 126.63C78.9699 127.04 79.5199 128.51 79.6699 129.21L79.9199 129.8V129.89C80.0207 130.601 80.1609 131.305 80.3399 132L80.7799 132.78C80.9292 132.981 81.0273 133.215 81.0656 133.463C81.104 133.71 81.0814 133.963 80.9999 134.2C80.8463 134.388 80.7624 134.623 80.7624 134.865C80.7624 135.107 80.8463 135.342 80.9999 135.53L81.0499 135.6C80.9899 135.81 80.6999 136.6 80.3899 137.39C80.0799 138.18 79.7799 140.45 79.5899 140.25H79.4599H79.3499C79.2726 140.319 79.2159 140.407 79.1859 140.506C79.1559 140.605 79.1538 140.71 79.1799 140.81L79.2699 140.94L79.3499 141.04C79.6299 141.1 79.4799 141.18 79.0099 141.22C78.5399 141.26 77.4599 140.87 77.3799 141.22L77.2299 141.31C77.1228 141.357 77.007 141.382 76.8899 141.382C76.7728 141.382 76.657 141.357 76.5499 141.31L76.0999 141C75.9799 141.49 75.8599 141.8 75.8199 141.68C75.7799 141.56 75.6299 141.28 75.5399 141.31V141.37C75.399 141.859 75.1867 142.324 74.9099 142.75C74.7099 142.96 74.2499 142.82 73.9099 142.75C73.7999 142.75 73.6499 142.51 73.5799 142.55L73.1899 142.76C72.6336 142.898 72.1079 143.139 71.6399 143.47L71.2999 143.81L71.1699 143.94C71.0799 144.17 70.9099 144.23 70.7899 144.08C70.5333 143.997 70.2607 143.977 69.9947 144.02C69.7287 144.064 69.4768 144.17 69.2599 144.33L68.5499 144.28H68.1699C67.7367 143.857 67.257 143.485 66.7399 143.17L66.4999 143.26C66.443 143.306 66.3972 143.363 66.366 143.429C66.3349 143.495 66.3191 143.567 66.3199 143.64C66.3199 144.03 66.4599 143.82 66.6399 143.75C66.8199 143.68 67.1099 143.98 67.0999 144.08L67.0399 144.69C67.4099 144.75 67.6199 144.9 67.5199 145.03C67.4881 145.086 67.4706 145.148 67.4689 145.212C67.4671 145.277 67.4812 145.34 67.5099 145.397C67.5386 145.455 67.5809 145.504 67.6333 145.541C67.6856 145.578 67.7462 145.602 67.8099 145.61C68.1799 145.61 68.3599 147.08 68.8699 147.22L69.0299 147.81C69.2147 148.562 69.594 149.251 70.1299 149.81L70.3899 150.08C70.503 150.605 70.6775 151.115 70.9099 151.6C71.1263 152.236 71.3766 152.861 71.6599 153.47L71.7899 153.59L72.0499 153.83C72.0874 154.025 72.0846 154.227 72.0416 154.421C71.9986 154.615 71.9164 154.799 71.7999 154.96C71.5799 155.17 71.1099 155.96 71.2099 155.96C71.4226 155.927 71.6246 155.845 71.7999 155.72L71.9599 155.64C71.9599 155.64 72.1099 155.86 72.0899 155.89C72.0699 155.92 71.7699 156.22 72.0899 156.3C72.1899 156.3 72.3999 156.21 72.4099 156.12V155.85C72.4099 155.54 72.4099 155.57 72.4999 155.92C72.5899 156.27 73.1599 156.92 73.0899 156.92V157.01L72.7999 157.62H73.5699C73.6199 157.62 73.7899 157.74 73.8099 157.83C73.8299 157.92 73.8799 158.71 73.9599 159.41L74.4199 159.89C74.8299 160.32 75.3199 160.8 74.6899 161.54C74.6608 161.686 74.6819 161.838 74.7499 161.97C74.9095 161.976 75.0688 161.952 75.2199 161.9H75.2899C75.4099 161.81 75.3799 162.04 75.2199 162.42C75.0599 162.8 75.3999 163.71 75.4499 163.58C75.4999 163.45 75.8899 163.51 76.1999 163.99L75.5299 164.64C75.4141 164.747 75.3162 164.872 75.2399 165.01V165.09C75.2399 165.3 75.5399 165.47 75.8699 165.48L76.1699 165.54C76.2499 165.54 76.3599 165.75 76.3699 165.88V166.2C76.1214 166.077 75.8545 165.996 75.5799 165.96L75.3999 166.21C75.3999 166.27 75.2799 166.4 75.2999 166.44L75.4299 166.68C75.6599 166.85 75.8999 166.98 75.9699 166.95C76.1444 166.911 76.3253 166.911 76.4999 166.95C76.6299 167 76.5999 167.4 76.5599 167.45C76.4567 167.764 76.3929 168.09 76.3699 168.42ZM45.8799 127.49H45.4099C45.5767 127.098 45.6618 126.676 45.6599 126.25L45.4499 125.84L45.2299 125.43C44.7199 125.19 44.4999 125.37 44.7399 125.82L44.9299 126.2L45.1299 126.58C45.5799 126.49 45.8999 126.75 45.8399 127.16L45.6899 127.44L45.5499 127.69C45.2099 127.92 45.1499 128.11 45.4199 128.11C45.6899 128.11 46.1999 127.47 45.8799 127.49ZM74.9999 172.65C75.1099 172.48 74.9999 172.24 74.7699 172.11L74.5999 171.96C74.5318 171.773 74.5056 171.573 74.5228 171.374C74.5401 171.175 74.6005 170.983 74.6999 170.81C74.859 170.686 74.9974 170.538 75.1099 170.37C75.1414 170.301 75.1577 170.226 75.1577 170.15C75.1577 170.074 75.1414 169.999 75.1099 169.93C75.0599 169.83 74.8199 169.74 74.7699 169.79C74.3799 170.22 74.1099 170.39 73.9499 169.54V169.32C73.8802 169.279 73.8014 169.257 73.7207 169.255C73.6401 169.253 73.5602 169.271 73.4884 169.308C73.4166 169.344 73.3553 169.399 73.3101 169.466C73.265 169.533 73.2373 169.61 73.2299 169.69C73.1499 170.06 73.1799 171.13 73.4899 171.11L73.7399 171.17H73.8699C73.9172 171.285 73.9356 171.41 73.9234 171.534C73.9111 171.658 73.8687 171.776 73.7999 171.88L73.5799 171.71L73.4999 171.65C73.4299 171.55 73.3099 171.6 73.2399 171.77V171.91C73.7481 172.254 74.3136 172.505 74.9099 172.65H74.9999ZM60.8799 163.93C61.1299 164.42 61.3499 164.54 61.3699 164.19C61.3899 163.84 62.1599 163.28 62.3699 163.19C62.5799 163.1 62.6799 162.39 62.7099 162.38C62.7654 162.381 62.82 162.395 62.87 162.419C62.92 162.443 62.9643 162.477 62.9999 162.52C63.0418 162.572 63.0992 162.61 63.1637 162.628C63.2283 162.646 63.2969 162.643 63.3599 162.62C63.4699 162.57 63.3599 162.12 62.8699 161.74L62.4299 161.58L61.7599 161.34C61.4358 161.966 61.2194 162.642 61.1199 163.34L60.9899 163.74L60.8799 163.93ZM15.6599 62.76C15.5963 62.9567 15.5726 63.164 15.5899 63.37C15.737 63.5732 15.9083 63.7579 16.0999 63.92C16.3299 64.1 16.8499 63.21 16.6299 62.69L16.4199 62.23L16.3299 62C16.1299 61.74 15.7199 62.48 15.6599 62.76ZM8.26986 40.28C8.35791 40.1952 8.41693 40.0848 8.43848 39.9645C8.46003 39.8441 8.44301 39.7201 8.38986 39.61C8.25555 39.3191 8.08412 39.0469 7.87986 38.8C7.85334 38.7957 7.82621 38.7972 7.80028 38.8041C7.77434 38.8111 7.75018 38.8235 7.72939 38.8405C7.7086 38.8576 7.69166 38.8788 7.67967 38.9028C7.66768 38.9269 7.66093 38.9532 7.65986 38.98V39.09V39.29C7.65986 39.5 7.56986 39.57 7.41986 39.45H7.27986H7.16986C7.02986 39.52 7.01986 39.77 7.16986 40C7.3201 40.1268 7.49715 40.2179 7.68769 40.2664C7.87822 40.3149 8.07727 40.3196 8.26986 40.28ZM12.6399 56.28C12.5998 56.324 12.5698 56.3761 12.5519 56.4329C12.5341 56.4896 12.5288 56.5495 12.5364 56.6085C12.544 56.6675 12.5643 56.7241 12.596 56.7745C12.6277 56.8248 12.67 56.8676 12.7199 56.9C13.0213 57.2884 13.2921 57.6996 13.5299 58.13C13.6102 58.1713 13.7032 58.1808 13.7902 58.1567C13.8773 58.1326 13.9521 58.0767 13.9999 58V57.93L13.8099 57.6C13.7745 57.2132 13.7144 56.8291 13.6299 56.45C13.4999 56.19 12.8199 56.09 12.6399 56.29V56.28ZM25.1999 84.28C25.2699 84.16 24.9899 84.08 24.5799 84.1L24.9999 83.4L25.2699 83C25.0668 82.805 24.8249 82.6551 24.5599 82.56C24.4199 82.56 24.0399 82.63 24.0399 82.77C24.1044 83.1787 24.2655 83.5661 24.5099 83.9L24.6099 84.34C24.6099 84.34 24.9199 84.4 25.0599 84.34L25.1999 84.28ZM40.7499 117.41C41.0699 117.21 41.0999 116.88 40.8099 116.69C40.4351 116.341 40.0998 115.952 39.8099 115.53C39.7299 115.41 39.4099 115.78 39.2999 116.14L39.3999 116.25C39.711 116.671 40.0976 117.03 40.5399 117.31L40.7499 117.41ZM59.7499 155.58C59.8899 155.34 59.6899 155.15 59.3099 155.17C58.9299 155.19 58.4099 155.72 58.4499 155.87C58.4899 156.02 58.6699 156.39 58.7199 156.2C58.7699 156.01 58.9199 155.75 58.9699 155.93C59.0199 156.11 59.3699 156.19 59.5599 156.01L59.6699 155.76L59.7499 155.58ZM8.75986 46.3C8.67986 46.39 8.80986 46.55 9.03986 46.65L9.18986 46.83L9.40986 47.09C9.53825 47.3496 9.69958 47.5916 9.88986 47.81C9.97209 47.8389 10.0624 47.8341 10.1411 47.7966C10.2198 47.7591 10.2805 47.6921 10.3099 47.61V47.42V47.23C10.1555 46.9844 9.97071 46.7593 9.75986 46.56C9.53986 46.39 8.82986 46.21 8.75986 46.3ZM21.8999 77.3C21.9699 77.21 21.8199 77.1 21.5599 77.06C21.2999 77.02 21.6099 75.84 21.5599 75.43L21.4899 75C21.3399 75 21.1499 75.25 21.0599 75.51C21.0061 75.9516 21.054 76.3997 21.1999 76.82C21.2999 77 21.8299 77.36 21.8999 77.27V77.3ZM67.5699 173.85C66.9099 173.96 66.6299 174.22 66.9599 174.42C67.2899 174.62 68.0499 174.7 67.9599 174.15L67.6999 173.93L67.5699 173.85ZM11.1099 49.85C11.1099 49.49 10.9599 49.17 10.7699 49.15L10.6899 49C10.4799 48.76 10.2499 48.51 10.0499 48.92L9.99986 49C10.1899 49.29 10.5899 49.84 10.8999 50.21V50.76V50.86C10.9999 51.11 11.1099 50.14 11.1099 49.77V49.85ZM29.8899 96C30.4899 96.32 30.8099 96.15 30.6099 95.61L29.7599 95.45C29.7599 95.45 29.6999 95.36 29.6599 95.34H29.5599C29.4499 95.34 29.3599 95.47 29.3499 95.7H29.4099L29.8899 96ZM72.7699 167.47C72.7699 167.63 72.9199 167.59 73.0599 167.38C73.1999 167.17 72.8299 166.47 72.7399 166.22V165.97C72.7138 165.758 72.6771 165.548 72.6299 165.34C72.6299 165.29 72.4599 165.27 72.3799 165.29H72.3099C72.1754 165.567 72.0747 165.859 72.0099 166.16C71.8799 166.6 72.7599 167.33 72.7699 167.49V167.47ZM70.3499 164.47C71.5599 164.59 71.5599 164.59 72.1699 163.02L70.3499 164.47Z" fill="#004055"/>
<path d="M38.64 119.32C39.06 118.88 39.45 118.57 39.5 118.64C39.5327 118.739 39.5442 118.843 39.5339 118.946C39.5236 119.05 39.4916 119.15 39.44 119.24C39.3 119.45 38.74 119.91 38.65 119.62L38.56 119.48C38.5 119.36 38.37 119.23 38.28 119.23C38.19 119.23 38.08 119.38 38.02 119.5C37.96 119.62 38.02 119.75 38.02 119.83C38.02 119.91 37.79 120.24 37.72 120.22L37.19 120.04C37.49 119.87 37.66 119.56 37.55 119.34C37.44 119.12 37.05 118.64 37.2 118.51C37.3883 118.342 37.5623 118.158 37.72 117.96C37.5456 117.897 37.3544 117.897 37.18 117.96L36.93 118.03C36.56 118.14 36.53 118.09 36.56 117.46C36.56 117.38 36.56 117.3 36.56 117.21V117.09C36.56 116.96 36.72 116.88 36.92 116.91V116.98C37.01 117.61 37.18 117.78 37.61 117.29C37.79 117.09 38 117.12 38.11 117.52C38.22 117.92 38.51 118.03 38.56 118.32L38.64 119.32Z" fill="#004055"/>
<path d="M45.46 135.19C45.337 135.145 45.2336 135.058 45.1678 134.945C45.102 134.832 45.078 134.699 45.1 134.57C45.1 134.31 44.95 133.57 45.25 133.38C45.55 133.19 46.35 133.85 46.51 133.68C46.67 133.51 47.17 133.98 47.08 134.36C46.99 134.74 46.22 135.36 46.15 135.12V134.97L46.1 134.73C45.98 134.53 45.77 134.48 45.64 134.61V134.77L45.46 135.19Z" fill="#004055"/>
<path d="M44.3202 131.35C44.4602 131.06 45.0202 131.2 45.5502 131.67L45.1302 132.29L44.7802 132.82C44.2202 132.66 44.1802 131.64 44.3202 131.35Z" fill="#004055"/>
<path d="M25.1102 94.47C25.2502 94.58 25.2002 94.76 25.0002 94.89C24.8002 95.02 24.4702 94.1 24.3802 93.89C24.2902 93.68 24.0702 92.89 24.2002 92.74C24.3302 92.59 24.5802 92.63 24.5602 92.96C24.5402 93.29 25.2802 93.49 25.2902 93.57C25.3002 93.65 25.0002 94.36 25.1102 94.47Z" fill="#004055"/>
<path d="M43.5398 136.32C43.2698 136.37 43.1298 136.32 43.2398 136.17C43.3766 135.902 43.4289 135.598 43.3898 135.3C43.3521 134.966 43.3724 134.627 43.4498 134.3C43.4498 134.01 43.6698 133.3 43.7398 133.41C43.8335 133.626 43.8941 133.856 43.9198 134.09C43.9198 134.31 44.3598 134.46 44.2098 134.69C44.0444 135.075 43.9009 135.469 43.7798 135.87L43.6398 136.1L43.5398 136.32Z" fill="#004055"/>
<path d="M26.4001 96.1601C26.5601 96.3401 26.7701 96.3901 26.8601 96.2801C26.9501 96.1701 27.2201 96.1001 27.2601 96.3701C27.3001 96.6401 26.6601 97.1601 26.2601 97.1801L26.0601 96.7601L25.8901 96.4201C25.8401 95.9101 26.2301 96.0001 26.4001 96.1601Z" fill="#004055"/>
<path d="M41.9001 131.58C42.0701 131.96 42.0001 132.21 41.7501 132.11C41.5001 132.01 40.8101 131.74 40.8101 131.51C40.8101 131.28 41.7201 131.19 41.9001 131.58Z" fill="#004055"/>
<path d="M28.46 106C28.89 105.63 29.27 105.67 29.3 106.1C29.33 106.53 30.04 107.1 29.89 107.53L29.73 107.81C29.73 107.81 29.35 107.7 29.35 107.65C29.3817 107.44 29.3629 107.225 29.2951 107.023C29.2273 106.821 29.1124 106.639 28.96 106.49L28.46 106Z" fill="#004055"/>
<path d="M40.8599 125.86C40.9093 125.824 40.9688 125.805 41.0299 125.805C41.0909 125.805 41.1504 125.824 41.1999 125.86C41.3699 125.979 41.5725 126.042 41.7799 126.04C41.9699 126.04 42.4399 126.13 42.3899 126.23C42.1467 126.611 41.883 126.978 41.5999 127.33L41.2799 127.04C41.0299 126.82 40.9899 126.24 40.8599 125.82V125.86Z" fill="#004055"/>
<path d="M43 130C43.22 129.9 43.39 130 43.39 130.15C43.39 130.3 43.45 130.99 43.52 130.79C43.59 130.59 43.83 130.23 43.85 130.5C43.87 130.77 43.73 131.5 43.48 131.62C43.23 131.74 42.92 130.82 42.76 130.81C42.6 130.8 42.77 130.14 43 130Z" fill="#004055"/>
<path d="M44 129.63C43.61 129.76 43.36 129.63 43.45 129.4C43.54 129.17 42.89 128.74 42.83 128.62C42.77 128.5 42.83 128.18 42.89 128.21C42.95 128.24 43.29 128.04 43.39 127.98C43.49 127.92 43.65 128.18 43.39 128.79L43.79 129.32L44 129.63Z" fill="#004055"/>
<path d="M76.33 169.31C76.4 168.92 76.65 168.73 76.87 168.88V169C76.9009 169.261 76.8558 169.525 76.74 169.76L76.27 170.5C76.75 170.55 76.98 170.62 76.78 170.67C76.58 170.72 76.26 169.7 76.33 169.31Z" fill="#004055"/>
<path d="M28.8799 100.15C28.6599 100.76 28.6899 100.74 28.9599 100.1L28.5199 99.49L28.4399 99.3701C28.6799 98.8301 29.1099 98.75 29.3899 99.21L29.1499 99.6601L28.8799 100.15Z" fill="#004055"/>
<path d="M35.6399 115.15C35.6541 115.063 35.6449 114.973 35.6133 114.891C35.5817 114.808 35.5287 114.735 35.4599 114.68C35.3199 114.57 34.9899 114.1 35.2199 114.02H35.3299C35.4899 114.09 35.6199 114.3 35.7799 114.34L36.0199 114.41C36.111 114.544 36.1597 114.703 36.1597 114.865C36.1597 115.027 36.111 115.186 36.0199 115.32L35.8099 115.52L35.7499 115.58C35.5599 115.78 35.5899 115.3 35.6399 115.15Z" fill="#004055"/>
<path d="M34.7602 118.73C34.8802 118.24 35.1502 117.98 35.3702 118.15C35.5902 118.32 35.2202 119.15 35.1902 119.23L35.5702 119.3C35.6402 119.3 35.7702 119.5 35.7602 119.53L35.6602 119.77C35.5202 120 34.6402 119.21 34.7602 118.73Z" fill="#004055"/>
<path d="M41.4103 133.23C41.0803 133.23 40.9303 133.12 41.0803 132.88C41.2303 132.64 41.9303 132.97 42.2303 133.34L42.4803 133.71C42.4728 133.808 42.4302 133.901 42.3603 133.97C42.2903 134.02 42.1403 134.05 42.1003 133.97C42.0603 133.89 41.8303 133.42 41.6403 133.32L41.4103 133.23Z" fill="#004055"/>
<path d="M52.4201 141.46C52.7001 141.58 52.8801 141.74 52.8201 141.82L52.6301 141.98L52.5001 142.1C52.3201 142.18 52.2201 142.15 52.2701 142.1C52.2767 141.851 52.2217 141.603 52.1101 141.38C52.0201 141.2 51.8501 140.7 51.9401 140.68C52.0301 140.66 52.2401 140.44 52.3401 140.33C52.4401 140.22 52.7601 140.45 52.8401 140.68L52.7001 140.96L52.4201 141.46Z" fill="#004055"/>
</g>
<defs>
<clipPath id="clip0">
<rect width="85.99" height="335.94" fill="white"/>
</clipPath>
</defs>
</svg>
