<svg width="116" height="121" viewBox="0 0 116 121" fill="none" xmlns="http://www.w3.org/2000/svg">
<g clip-path="url(#clip0)">
<path d="M68.3601 6.71987C64.5201 11.7199 61.3601 16.9499 65.3601 17.7999C67.2001 18.1799 68.3601 15.0199 69.2101 12.0799C70.2201 8.57987 70.5001 5.08987 68.3601 6.71987Z" fill="#F60000"/>
<path d="M45.0003 11.0802C41.1603 16.0802 37.6003 20.9702 41.6403 21.8202C43.4803 22.2102 44.9203 19.1202 45.7303 16.1802C46.7203 12.6802 47.1803 9.45024 45.0003 11.0802Z" fill="#F60000"/>
<path d="M57.7901 26.5303C55.1701 30.7503 56.2701 31.3403 54.5401 35.8903C52.8101 40.4403 51.0001 44.1203 53.0001 44.4703C54.3901 44.7103 55.3701 42.1103 56.6101 38.6803C57.4655 36.3299 58.1342 33.9158 58.6101 31.4603C59.4001 27.1703 59.7601 24.1603 57.7901 26.5303Z" fill="#F60000"/>
<path d="M6.65021 67.8999C4.04021 72.1199 3.27021 71.8999 1.54021 76.4399C-0.189789 80.9799 -0.739789 85.8699 1.26021 86.2199C2.65021 86.4599 3.63021 83.1599 4.88021 79.7199C5.72021 77.3999 7.18021 74.9799 7.61021 72.6599C8.40021 68.3699 8.63021 65.5299 6.65021 67.8999Z" fill="#F60000"/>
<path d="M38 44.56C34.16 49.51 30.58 54.71 34.62 55.56C36.46 55.94 37.77 52.56 38.62 49.63C39.56 46.13 40.18 42.93 38 44.56Z" fill="#F60000"/>
<path d="M83.0802 26.7699C79.2402 31.7199 75.7602 36.7699 79.8002 37.6099C81.6502 37.9999 83.4702 34.9999 84.2702 31.9999C85.2302 28.5399 85.2202 25.1399 83.0802 26.7699Z" fill="#F60000"/>
<path d="M63.2602 51.0903C59.4102 56.0403 56.2602 61.0903 60.2602 61.9403C62.1102 62.3303 63.4002 59.3602 64.2002 56.4202C65.1502 52.9102 65.4002 49.4603 63.2602 51.0903Z" fill="#F60000"/>
<path d="M44.0904 69.51C40.2504 74.46 37.0904 79.32 41.1804 80.16C43.0204 80.55 44.1204 77.77 44.9204 74.83C45.8804 71.32 46.2304 67.88 44.0904 69.51Z" fill="#F60000"/>
<path d="M25.3504 84.4402C22.7404 88.6602 22.1404 88.5602 20.4104 93.1102C18.6804 97.6602 18.2404 102.34 20.2504 102.69C21.6404 102.93 23.5404 100.2 24.7804 96.7602C25.6304 94.4402 25.4104 91.5402 25.8404 89.2202C26.6404 84.9302 27.3204 82.0702 25.3504 84.4402Z" fill="#F60000"/>
<path d="M103.32 0.810098C101.438 3.5898 99.9532 6.61915 98.91 9.8101C97.23 14.2101 96.65 18.8101 98.65 19.1701C100.05 19.4101 100.96 16.5101 102.2 13.0801C103.101 10.7475 103.813 8.34646 104.33 5.9001C105.12 1.5801 105.29 -1.5499 103.32 0.810098Z" fill="#F60000"/>
<path d="M86.8104 49.1601C84.1904 53.3801 86.1004 54.4701 84.3704 59.0101C82.6404 63.5501 80.7204 67.3601 82.7304 67.7001C84.1204 67.9501 86.4104 65.7001 87.6604 62.2501C88.5004 59.9201 88.4104 56.9701 88.8404 54.6501C89.6304 50.3601 88.7804 46.7901 86.8104 49.1601Z" fill="#F60000"/>
<path d="M67.0004 81.8C63.1504 86.8 59.8204 92.06 63.8604 92.91C65.7004 93.29 66.9904 89.99 67.7904 87.05C68.6904 83.54 69.0904 80.17 67.0004 81.8Z" fill="#F60000"/>
<path d="M43.3502 100.29C39.5102 105.24 36.6402 110.14 40.6802 110.99C42.5302 111.38 44.4902 108.99 45.2902 105.99C46.2502 102.51 45.4902 98.6602 43.3502 100.29Z" fill="#F60000"/>
<path d="M91.1003 93.6501C88.4803 97.8801 89.8303 98.6501 88.1003 103.19C86.3703 107.73 84.4203 112.37 86.4303 112.72C87.8203 112.96 90.2003 109.88 91.4303 106.45C92.3261 104.025 93.0348 101.534 93.5503 99.0001C94.3403 94.7401 93.0703 91.2901 91.1003 93.6501Z" fill="#F60000"/>
<path d="M111.64 73.9399C107.8 78.9399 104.64 83.3699 108.64 84.2199C110.48 84.5999 111.85 82.2199 112.64 79.2199C113.64 75.7499 113.78 72.3099 111.64 73.9399Z" fill="#F60000"/>
<path d="M114.14 108.83C110.29 113.83 107.14 119.33 111.14 120.18C112.98 120.56 114.14 117.1 114.95 114.18C115.9 110.66 116.28 107.2 114.14 108.83Z" fill="#F60000"/>
<path d="M9.2303 19.1003C6.6203 23.3203 7.8203 24.1003 6.0903 28.6903C4.3603 33.2803 3.0003 38.2803 5.0003 38.6203C6.3903 38.8603 8.4303 35.5003 9.6703 32.0603C10.3842 29.6193 10.8993 27.1245 11.2103 24.6003C12.0003 20.3103 11.2003 16.7303 9.2303 19.1003Z" fill="#F60000"/>
</g>
<defs>
<clipPath id="clip0">
<rect width="115.71" height="120.21" fill="white"/>
</clipPath>
</defs>
</svg>
