<svg width="180" height="45" viewBox="0 0 180 45" fill="none" xmlns="http://www.w3.org/2000/svg">
<g clip-path="url(#clip0)">
<path d="M6.24009 6.00003L6.74009 6.26004C6.2874 6.37602 5.81278 6.37602 5.36009 6.26004C8.17161 7.32784 11.1783 7.78463 14.1801 7.60003C17.0201 7.49475 19.831 6.98979 22.5301 6.10003C24.1801 6.23003 25.6701 5.74004 25.8601 5.01004C26.0501 4.28004 24.8601 3.56003 23.2001 3.43003C22.8422 3.3513 22.4911 3.2443 22.1501 3.11003C19.5168 1.74944 16.7162 0.740803 13.8201 0.110035L15.6501 0.860035C14.7232 0.616724 13.7759 0.459391 12.8201 0.390035C12.9201 0.540035 13.0501 0.680035 13.1501 0.820035C11.4951 0.245674 9.75164 -0.0319216 8.00009 3.45758e-05C6.40321 -0.0311351 4.82114 0.311303 3.38009 1.00003C1.09009 2.30003 1.73009 4.29003 4.86009 5.47003L6.24009 6.00003Z" fill="#F60000"/>
<path d="M12.0001 10.7001C10.1001 10.1101 8.30006 9.47011 6.49006 8.82011L6.10006 8.54011L6.15006 9.69011V9.62011C7.20862 9.17233 8.32724 8.88257 9.47006 8.76011C10.1101 8.67011 10.7701 8.61011 11.4701 8.56011C12.1701 8.51011 12.8001 8.46011 13.4701 8.43011L14.4201 8.31011C14.5961 8.27897 14.764 8.21239 14.9136 8.11441C15.0631 8.01643 15.1912 7.88908 15.2901 7.74011C15.5301 7.20011 14.7501 6.64011 13.5301 6.49011L12.1401 6.32011C8.75006 5.46011 3.39006 5.09011 1.35006 6.91011C0.900062 7.33011 1.23006 7.91011 1.29006 8.45011C1.11006 9.20011 2.36006 9.94011 4.07006 10.0901C5.78006 10.2401 7.29006 9.78011 7.45006 9.00011L8.32006 9.22011L7.62006 9.44011C8.14006 8.82011 9.71006 8.76011 10.8901 8.44011C11.4801 8.44011 12.0601 8.39011 12.6401 8.35011L11.7601 6.60011L10.8401 6.78011C10.9101 6.86011 11.0301 6.98011 11.0201 6.98011C9.2738 7.40158 7.504 7.71881 5.72006 7.93011L3.30006 8.43011C2.63006 8.73011 2.66006 9.23011 3.35006 9.58011L4.35006 10.0301L3.89006 9.77011C6.30006 10.3301 8.89006 10.7701 11.2301 11.2901C11.4047 11.3465 11.5891 11.3658 11.7717 11.3468C11.9542 11.3279 12.1307 11.2711 12.2901 11.1801C12.5001 11.0001 12.3501 10.8001 12.0001 10.7001Z" fill="#F60000"/>
<path d="M3.35 10.4201C2.93006 10.2113 2.46891 10.0985 2 10.0901L1.75 10.2101L2.5 10.5601C3.07 10.8101 3.37 10.6701 3.35 10.4201Z" fill="#F60000"/>
<path d="M1.78021 10.2101L1.47021 10.0601L1.67021 10.2401H1.73021L1.78021 10.2101Z" fill="#F60000"/>
<path d="M108.13 8.30002C111.9 8.36002 115.67 8.30002 119.45 8.25002C123.23 8.20002 127 8.06002 130.78 7.93002C131.03 7.93002 131.24 7.83002 131.24 7.72002C131.24 7.61002 131.05 7.54002 130.82 7.55002C127.04 7.67002 123.27 7.82002 119.5 7.85002C115.73 7.88002 111.98 7.96002 108.21 7.85002C107.96 7.85002 107.75 7.95002 107.72 8.05002C107.69 8.15002 107.9 8.29002 108.13 8.30002Z" fill="#F60000"/>
<path d="M165.4 15.3001C165.23 15.4001 165.25 15.5101 165.4 15.5701C165.611 15.6188 165.832 15.5978 166.03 15.5101C166.17 15.4201 166.15 15.2801 166.03 15.2301C165.818 15.1753 165.594 15.2002 165.4 15.3001Z" fill="#F60000"/>
<path d="M164.59 24.0001C163.59 24.2239 162.611 24.5283 161.66 24.9101C161.493 24.9587 161.317 24.9587 161.15 24.9101C161.23 25.0801 161.04 25.2601 160.66 25.3701C159.73 25.6401 158.78 25.9101 157.83 26.1501C156.88 26.3901 155.9 26.6201 154.93 26.8401C152.99 27.2701 151.01 27.6801 149.02 28.0601C147.03 28.4401 145.02 28.7801 143.02 29.1101L136.97 30.1101C136.906 30.2835 136.795 30.4358 136.65 30.5501C135.826 31.1141 134.836 31.3852 133.84 31.3201L132.95 31.2701H127.58C125.8 31.2701 124.02 31.2701 122.24 31.2001C121.439 31.4628 120.61 31.6306 119.77 31.7001C118.25 32.0501 116.77 32.4001 115.19 32.7001C114.43 32.8701 113.66 33.0201 112.88 33.1801L110.54 33.5901C110.627 33.6232 110.704 33.6784 110.764 33.7503C110.824 33.8221 110.864 33.9082 110.88 34.0001C110.88 34.3901 110.12 34.7001 109.26 34.7201L107.97 34.7901C109.21 34.7901 110.45 34.8801 111.69 34.9501C111.853 34.934 112.017 34.934 112.18 34.9501C113.54 34.9501 114.9 34.8301 116.29 34.7301C127.934 33.7345 139.482 31.8321 150.83 29.0401C151.037 28.9652 151.263 28.9652 151.47 29.0401C151.59 29.1201 151.58 29.2501 151.38 29.3201C149.64 29.9401 147.97 30.6101 146.31 31.2501C144.65 31.8901 143 32.5501 141.31 33.1901C139.62 33.8301 137.92 34.4401 136.12 35.0101C134.32 35.5801 132.45 36.0701 130.45 36.5101C120.93 38.6201 111.45 40.2801 101.58 41.6101C98.99 41.6801 96.45 41.8101 93.93 41.9701L90.17 42.2501C88.91 42.3301 87.66 42.4301 86.41 42.5301C83.9 42.7201 81.41 42.9401 78.84 43.1701C76.27 43.4001 73.71 43.5601 71.07 43.7501C56.77 44.7501 43.23 44.6301 29.23 44.2101C26.8497 44.277 24.4773 43.9076 22.23 43.1201C20.32 42.4101 19 41.3601 18.71 40.2301C18.38 38.8501 19.63 37.6301 21.81 36.8501L20.54 36.7701L18.54 36.3901C16.9079 36.1872 15.3497 35.59 14 34.6501L12.64 33.6501C11.6407 32.6678 10.5749 31.7557 9.45002 30.9201C8.35765 30.1194 7.37582 29.1779 6.53002 28.1201L6.91002 27.4401L6.57002 27.2101C5.61677 26.8281 4.84696 26.0941 4.42002 25.1601L4.59002 24.3101C4.978 23.2501 5.6746 22.3305 6.59002 21.6701C6.59223 21.3001 6.73113 20.9439 6.98002 20.6701C6.22002 19.7401 5.90002 18.8001 6.60002 17.8301C6.13002 17.5501 6.23002 17.1801 6.82002 17.0001C7.0447 16.9381 7.27695 16.9078 7.51002 16.9101C7.30107 16.7007 7.07714 16.5069 6.84002 16.3301C6.37002 16.2301 6.09002 16.1501 6.09002 16.1501L3.73002 15.7101C3.19269 15.5114 2.68733 15.2352 2.23002 14.8901C1.28002 13.3001 1.28002 13.3001 1.48002 12.6601L1.70002 12.4801L0.550021 12.0701C0.41243 11.9926 0.284819 11.8985 0.170021 11.7901C0.170021 11.4301 0.170021 11.4301 0.0200212 11.3001C-0.00463362 11.2021 -0.0114088 11.1005 2.12188e-05 11.0001C0.490021 10.6301 0.490021 10.6301 0.510021 10.5201C0.596108 10.4523 0.690134 10.3952 0.790021 10.3501L1.66002 10.2101L2.78002 11.2101L3.06002 10.9201L3.31002 11.3501L3.19002 11.0001L3.77002 11.2701L3.11002 10.8901C3.76798 11.0324 4.43727 11.1161 5.11002 11.1401C5.49231 11.1802 5.87774 11.1802 6.26002 11.1401C6.25068 11.0704 6.25068 10.9998 6.26002 10.9301L9.26002 11.4201C9.39002 11.5201 9.49002 11.6101 9.59002 11.7001C9.81196 11.5863 10.0669 11.5545 10.31 11.6101L11.08 11.7201H11.24L11.9 11.5701H12.04L14.9 10.9301C15.35 11.0001 15.77 11.0901 16.17 11.1801L15.81 10.9901C15.57 10.8501 15.81 10.5201 15.68 10.4901C14 9.94009 12.32 9.61009 10.63 9.30009C8.94002 8.99009 7.20002 8.70009 5.49002 8.40009C4.87002 8.40009 4.30002 8.17009 4.23002 7.89009C4.16002 7.61009 4.62002 7.38009 5.23002 7.38009C7.06156 7.02751 8.91658 6.81026 10.78 6.73009C12.7186 6.62508 14.6614 6.62508 16.6 6.73009C18.55 6.84009 20.51 7.05009 22.42 7.35009C24.33 7.65009 26.23 8.00009 28 8.42009C29.89 8.68009 31.78 8.90009 33.69 9.12009L33.42 8.94009L34.89 9.25009H35.05L34 8.61009L33.23 8.40009C31.0866 8.18436 28.9567 7.85052 26.85 7.40009C24.78 6.96009 22.73 6.50009 20.62 6.07009C18.34 5.62009 16.4 4.93009 14.27 4.39009C13.71 4.32009 13.34 4.08009 13.42 3.83009C13.5 3.58009 14.02 3.45009 14.56 3.50009C21.8 3.50009 29.99 4.19009 35.71 6.50009C36.9486 6.5224 38.1751 6.74877 39.34 7.17009H39.4L38.6 6.63009C39.6 6.78009 40.1 7.23009 41 7.43009C40.9 7.19009 40.78 6.96009 40.68 6.72009C41.9 6.86009 43.14 6.97009 44.39 7.06009C45.64 7.15009 46.89 7.22009 48.13 7.31009C50.5473 7.44011 52.9492 7.77464 55.31 8.31009L55.83 8.38009C57.8617 7.80987 59.952 7.47435 62.06 7.38009L59.7 7.10009C61.387 6.77654 63.1025 6.62576 64.82 6.65009C67.2635 6.69776 69.6973 6.97227 72.09 7.47009C74.0676 7.82779 75.9604 8.55371 77.67 9.61009L84.73 9.34009C87.09 9.25009 89.44 9.17009 91.79 9.03009C94.14 8.89009 96.49 8.76009 98.79 8.61009L100.55 8.50009L102.31 8.36009L105.82 8.07009C106.3 8.02009 106.74 8.15009 106.82 8.36009C106.9 8.57009 106.57 8.78009 106.08 8.83009C104.41 9.07009 102.72 9.30009 101.03 9.51009C99.34 9.72009 97.71 9.87009 96 10.0001C92.6 10.3201 89.18 10.6001 85.75 10.8101C87.19 10.8701 88.63 10.9501 90.07 11.0001L94.4 11.1101C95.84 11.1101 97.3 11.1101 98.75 11.1701H101H103.2L105.46 10.9901C106.199 10.9301 106.941 10.9301 107.68 10.9901L110.48 10.8801H111.87L113.26 10.8101C115.1 10.7201 116.93 10.6301 118.77 10.5201L121.52 10.3501C122.45 10.2801 123.37 10.2101 124.3 10.1201C126.15 9.94009 128.03 9.74009 129.93 9.49009C131.56 9.28009 133.13 9.07009 134.68 8.85009L139.26 8.14009C142.26 7.66009 145.32 7.14009 148.53 6.57009L155.17 5.34009L158.42 4.73009L161.64 4.14009C163.79 3.76009 165.94 3.42009 168.1 3.14009C170.26 2.86009 172.46 2.52009 174.7 2.28009C175.89 2.09009 177.03 2.36009 177.23 2.88009C177.43 3.40009 176.62 3.97009 175.43 4.16009L168.48 5.53009C166.17 5.98009 163.86 6.40009 161.54 6.84009C156.91 7.72009 152.26 8.48009 147.54 9.21009C145.2 9.59009 142.85 9.89009 140.48 10.2101C138.11 10.5301 135.74 10.8101 133.34 11.0501C130.94 11.2901 128.54 11.4901 126.11 11.6701C124.9 11.7601 123.68 11.8501 122.46 11.9101C121.24 11.9701 120 12.0001 118.75 12.0001L112.44 12.2201C112.474 12.2897 112.497 12.3638 112.51 12.4401C112.501 12.606 112.45 12.767 112.363 12.9084C112.275 13.0498 112.154 13.1673 112.01 13.2501C114.377 13.2034 116.763 13.2034 119.17 13.2501L124.17 12.5401C125.83 12.3001 127.497 12.0801 129.17 11.8801C130.86 11.6801 132.56 11.5101 134.28 11.3801C136 11.2501 137.74 11.1301 139.52 11.0801C141.96 11.0101 144.29 11.0801 146.58 11.1501C148.87 11.2201 151.12 11.3301 153.4 11.4401C154.82 11.2301 156.23 11.0401 157.65 10.8101L161.89 10.1301L170.42 8.79009C170.512 8.75816 170.61 8.74699 170.707 8.75736C170.804 8.76773 170.897 8.7994 170.98 8.85009C171.08 8.95009 170.98 9.06009 170.74 9.13009C169.74 9.39009 168.79 9.66009 167.8 9.90009C166.81 10.1401 165.8 10.3801 164.8 10.6101C162.8 11.0634 160.8 11.4968 158.8 11.9101C159.48 12.1801 159.9 12.5701 159.89 13.0501C159.88 13.5301 159.43 14.0501 158.69 14.4101L161.48 14.1801C162.06 14.1801 162.48 14.2901 162.54 14.5301C162.6 14.7701 162.11 15.0301 161.54 15.0801L158.69 15.3201L157.26 15.4401L155.84 15.5501L150.14 15.9701L146.74 16.4501C145.6 16.6101 144.47 16.7401 143.33 16.8801L136.51 17.7001C137.079 17.9029 137.572 18.2766 137.92 18.7701L140 18.6001C152.84 16.3001 165.95 14.3601 179.26 13.1601C179.52 13.1601 179.74 13.1601 179.76 13.3101C179.78 13.4601 179.58 13.5401 179.35 13.5501C175.35 13.8901 171.35 14.3401 167.35 14.8301C167.51 14.8901 167.56 15.0101 167.35 15.1101C167.152 15.1978 166.931 15.2188 166.72 15.1701C166.53 15.1101 166.54 14.9901 166.72 14.9001C164.86 15.1201 163.01 15.3601 161.17 15.6201L155.65 16.4201C153.81 16.6801 151.98 16.9701 150.15 17.2601L144.7 18.1801C146.39 18.0401 148.09 17.8501 149.78 17.7001C151.47 17.5501 153.17 17.3801 154.87 17.2401L159.96 16.8101C161.65 16.6801 163.35 16.5501 165.05 16.4501C165.77 16.2401 166.5 16.0201 167.23 15.8201C167.326 15.7956 167.426 15.7909 167.524 15.8064C167.622 15.8219 167.716 15.8571 167.8 15.9101C167.87 16.0001 167.73 16.1301 167.52 16.1701L166.91 16.3401C168.2 16.2601 169.23 16.6301 169.27 17.2101C169.31 17.7901 168.2 18.3901 166.86 18.4901C165.08 18.7101 163.3 18.9301 161.52 19.1301C159.74 19.3301 157.96 19.5301 156.18 19.6901L155.03 19.8901L153.9 20.2601L158.07 20.0901L162.24 19.9001L166.4 19.7201C167.79 19.6601 169.17 19.6101 170.55 19.5301C171.02 19.4801 171.44 19.6001 171.47 19.8101C171.5 20.0201 171.14 20.2301 170.67 20.2901C169.47 20.5201 168.26 20.7401 167.06 20.9501L163.43 21.5701L159.78 22.1701L157.96 22.4601L156.12 22.7301C151.24 23.4301 146.32 24.1001 141.38 24.6201C138.2 25.7501 135 26.9101 131.72 27.9801C132.14 27.9801 132.57 27.9801 132.99 27.9301C135.609 27.7608 138.216 27.447 140.8 26.9901C142.06 26.7701 143.3 26.5401 144.54 26.2901C145.78 26.0401 147 25.7801 148.22 25.5001C153.09 24.3801 157.91 23.2301 163.09 22.4501C163.34 22.4001 163.57 22.4501 163.61 22.5701C163.65 22.6901 163.48 22.7901 163.22 22.8201C158.22 23.6701 153.61 24.9101 148.61 25.9401C146.54 26.3801 144.51 26.7601 142.52 27.1701C140.53 27.5801 138.59 28.0101 136.66 28.4901C138.66 28.2901 140.61 28.0301 142.56 27.7401C144.51 27.4501 146.45 27.1501 148.38 26.7901L154.16 25.7901C156.09 25.4501 158.03 25.1401 159.99 24.7901C160.29 24.7029 160.61 24.7029 160.91 24.7901C160.91 24.7301 160.98 24.6701 161.09 24.6201C162.095 24.2242 163.124 23.8902 164.17 23.6201C164.268 23.5833 164.373 23.5695 164.477 23.58C164.581 23.5904 164.681 23.6246 164.77 23.6801C164.94 23.8201 164.82 23.9301 164.59 24.0001ZM26.51 15.5001L26.31 15.3601L26.99 15.6001L27.92 16.4901L26.51 15.5001ZM14.29 18.0001L13.76 17.5001L14.29 18.0001ZM91.37 11.8001C89.31 11.8601 87.26 11.8001 85.21 11.7401C83.16 11.6801 81.12 11.5101 79.08 11.2701L82.08 11.0801L86.72 11.4201L91.37 11.8001ZM18.58 11.9301C19.5269 12.3925 20.4191 12.9593 21.24 13.6201C21.9788 13.5599 22.7212 13.5599 23.46 13.6201C25.46 13.7601 27.46 13.9501 29.46 14.1901C29.21 13.8801 29.68 13.9401 29.92 13.9101H30.66C28.58 13.6101 26.51 13.2901 24.4 12.9601C22.45 12.6101 20.38 12.3601 18.58 11.9301ZM4.00002 12.2601L3.83002 12.1401L4.25002 11.7201L4.00002 12.2601ZM3.34002 13.0001L3.64002 13.0801C3.52002 13.2101 3.43002 13.1501 3.34002 13.0001ZM6.00002 13.7001C5.88626 13.6005 5.76223 13.5134 5.63002 13.4401L6.00002 13.7001ZM7.20002 26.9301L8.41002 24.7701L7.11002 26.8401L7.20002 26.9301Z" fill="#F60000"/>
</g>
<defs>
<clipPath id="clip0">
<rect width="179.79" height="44.59" fill="white"/>
</clipPath>
</defs>
</svg>
