<svg width="198" height="252" viewBox="0 0 198 252" fill="none" xmlns="http://www.w3.org/2000/svg">
<g clip-path="url(#clip0)">
<path d="M146.92 251.96C138.14 245.33 129.29 238.6 126.43 227.29C123.83 217.01 123.78 208.38 117.77 198.74C112.477 190.021 106.214 181.93 99.1 174.62C93.29 168.71 86.23 164.06 81.17 157.36C74.94 149.11 70.02 139.53 68.85 129.17C67.53 117.55 64.85 108.43 57.1 99.09C48.74 89.03 36.32 82.09 26.03 74.2299C20.2741 70.0802 15.5154 64.6998 12.1 58.4799C7.17 49.2999 6.44 38.51 2 29.2" stroke="#E0CFA8" stroke-width="2" stroke-miterlimit="10"/>
<path d="M162.81 243.1C154.3 234.7 143.81 224.5 141.02 212.1C139.82 206.74 139.96 201.71 137.67 196.58C132.85 185.78 126.18 178.29 117.84 170.15C104.56 157.15 92.9402 145.7 86.7002 127.43C84.1002 119.82 82.8602 112.16 81.5302 104.38C79.8802 94.7199 73.7902 85.6199 67.8302 78.0099C59.4302 67.2799 49.1002 60.8099 38.1002 53.2299C30.6902 48.0999 23.6002 41.4899 20.2002 32.9299" stroke="#E0CFA8" stroke-width="2" stroke-miterlimit="10"/>
<path d="M179.45 233.74C173.09 227.98 166.98 223.21 162.45 215.55C159.68 210.83 158.78 204.49 157.73 199.17C156.3 191.98 156.34 185.24 152.73 178.61C147.06 168.31 139.47 159.9 130.61 152.43C116.1 140.21 107.4 125.01 104.04 106.38C100.18 84.89 87.5598 71.47 71.2298 57.81C53.5698 43.04 32.0098 27.81 29.2798 3.04004" stroke="#E0CFA8" stroke-width="2" stroke-miterlimit="10"/>
<path d="M197.98 224.81C192.18 219.47 185.61 216.17 182.12 208.57C178.55 200.82 178.9 192.2 177.06 184.05C174.55 172.94 169.72 163.68 163.36 154.26C157.24 145.18 149.23 139.26 142.04 131.35C125.75 113.47 121.5 86.66 108.25 66.7C103.8 60 99.6699 53.23 94.3399 47.2C88.7099 40.81 82.0999 35.88 76.0999 29.92C70.0999 23.96 64.4299 18.18 59.6299 11.13C57.5599 8.13 53.6299 4.46 52.9399 1" stroke="#E0CFA8" stroke-width="2" stroke-miterlimit="10"/>
</g>
<defs>
<clipPath id="clip0">
<rect width="197.56" height="251.95" fill="white"/>
</clipPath>
</defs>
</svg>
