<svg width="53" height="42" viewBox="0 0 53 42" fill="none" xmlns="http://www.w3.org/2000/svg">
<g clip-path="url(#clip0)">
<path d="M10.0001 8.93009C6.79384 12.3547 4.15707 16.271 2.19012 20.5301C1.02036 22.8021 0.278035 25.2698 0.000120951 27.8101C-0.769879 39.8801 14.5501 42.0001 23.4601 41.2001C28.2376 40.8597 32.9471 39.874 37.4601 38.2701C44.5401 35.5601 49.4001 28.3301 51.7401 21.2701C53.5601 15.8501 53.0001 9.00009 48.3501 5.17009C45.0001 2.41009 39.3801 -0.0599056 35.0001 9.43955e-05C28.2201 0.100094 20.6701 0.750094 14.8901 4.69009C13.1204 5.93372 11.4819 7.35438 10.0001 8.93009Z" fill="#004056"/>
</g>
<defs>
<clipPath id="clip0">
<rect width="52.7" height="41.34" fill="white"/>
</clipPath>
</defs>
</svg>
