<svg width="95" height="106" viewBox="0 0 95 106" fill="none" xmlns="http://www.w3.org/2000/svg">
<g clip-path="url(#clip0)">
<path d="M37.9 25.2501C39.1331 25.1099 40.382 25.2396 41.56 25.6301C44.9208 26.5598 47.8502 28.6365 49.84 31.5001C50.6815 32.783 51.2422 34.2294 51.4852 35.7443C51.7282 37.2592 51.6481 38.8083 51.25 40.2901C50.6249 42.2847 49.3903 44.0333 47.72 45.2901C46.3011 46.4261 44.6456 47.2297 42.8752 47.6415C41.1049 48.0534 39.2647 48.0632 37.49 47.6701C35.3102 47.1072 33.3556 45.8891 31.89 44.1801C29.9683 42.0684 28.5947 39.517 27.89 36.7501C27.6434 35.9401 27.5659 35.0881 27.6622 34.2469C27.7585 33.4057 28.0267 32.5933 28.45 31.8601C28.7848 31.411 29.2386 31.0646 29.76 30.8601C30.1912 30.5741 30.5561 30.199 30.83 29.7601C31.9072 28.4576 33.2074 27.3571 34.67 26.5101C35.6548 25.8847 36.7519 25.4568 37.9 25.2501ZM39.06 29.7801C37.5341 29.9137 36.0874 30.5183 34.92 31.5101C34.2389 31.961 33.657 32.5463 33.21 33.2301C33.6518 34.5954 34.2315 35.9122 34.94 37.1601C35.6393 38.5626 36.5387 39.8561 37.61 41.0001C38.241 41.6787 39.0836 42.1229 40 42.2601C41.1932 42.4262 42.4091 42.2815 43.53 41.8401C44.3279 41.549 45.046 41.0741 45.6263 40.4539C46.2065 39.8337 46.6326 39.0855 46.87 38.2701C47.0804 37.3687 47.0974 36.433 46.9199 35.5247C46.7423 34.6163 46.3743 33.7559 45.84 33.0001C45.0122 32.0024 43.9766 31.1975 42.8056 30.6413C41.6346 30.0852 40.3563 29.7912 39.06 29.7801Z" fill="#004056"/>
<path d="M72.23 31.8102C73.4899 31.7754 74.7406 32.0348 75.8828 32.5677C77.025 33.1006 78.0272 33.8924 78.81 34.8802C80.4623 36.8534 81.5047 39.2648 81.81 41.8202C81.9548 43.3859 81.7852 44.9646 81.3113 46.4638C80.8373 47.963 80.0685 49.3523 79.05 50.5502C77.4093 52.5637 75.0916 53.9109 72.53 54.3402C71.0782 54.5841 69.5904 54.5044 68.1729 54.1068C66.7555 53.7092 65.4433 53.0035 64.33 52.0402C62.7178 50.62 61.4351 48.865 60.5715 46.8977C59.7079 44.9304 59.2842 42.7982 59.33 40.6502C59.43 38.9802 59.75 37.0902 61.13 35.9802C61.61 35.5202 62.34 35.6902 62.88 35.4002C65.23 32.8302 68.86 31.8902 72.23 31.8102ZM69.73 36.3402C68.0197 36.5829 66.4175 37.3197 65.12 38.4602C64.81 38.7702 64.42 39.1602 64.6 39.6502C65.1325 42.5156 66.389 45.1973 68.25 47.4402C68.7301 48.0213 69.3467 48.4744 70.0448 48.7589C70.7428 49.0433 71.5005 49.1503 72.25 49.0702C73.1239 48.9536 73.9614 48.6459 74.7029 48.1688C75.4444 47.6918 76.0716 47.0572 76.54 46.3102C77.2531 45.3002 77.6781 44.1152 77.7697 42.8823C77.8613 41.6493 77.616 40.4146 77.06 39.3102C76.6806 38.5138 76.1221 37.816 75.4281 37.2713C74.7342 36.7265 73.9237 36.3497 73.06 36.1702C71.9476 36.0678 70.8262 36.125 69.73 36.3402Z" fill="#004056"/>
<path d="M18.1802 54.8702C20.1675 54.5763 22.1967 54.9267 23.9702 55.8702C25.2369 56.3674 26.3734 57.1471 27.293 58.1501C28.2127 59.153 28.8913 60.3527 29.2771 61.6576C29.6629 62.9625 29.7457 64.3383 29.5192 65.6801C29.2927 67.0218 28.7629 68.2942 27.9702 69.4002C26.2926 71.9163 23.7709 73.7499 20.8602 74.5702C19.4635 75.0041 17.9931 75.1489 16.5386 74.9959C15.0841 74.8429 13.6761 74.3952 12.4002 73.6802C11.2907 73.0311 10.3232 72.1654 9.55526 71.1346C8.78732 70.1038 8.23467 68.929 7.93023 67.6802C7.7666 67.0617 7.73098 66.4163 7.82556 65.7835C7.92013 65.1507 8.1429 64.5439 8.48023 64.0002C8.82023 63.4502 9.59023 63.2602 9.75023 62.5902C10.6458 60.261 12.2118 58.2496 14.2502 56.8102C15.418 55.9083 16.7541 55.2488 18.1802 54.8702ZM18.8402 59.8702C17.5249 60.3484 16.3327 61.1136 15.3502 62.1102C14.3048 63.0547 13.5401 64.2692 13.1402 65.6202C12.9402 66.1902 13.4202 66.6202 13.7402 67.0602C14.6133 68.3235 15.9375 69.2039 17.4402 69.5202C18.512 69.655 19.6003 69.5561 20.6302 69.2302C22.2583 68.6834 23.6101 67.5252 24.4002 66.0002C24.8462 65.0197 24.9552 63.9192 24.7102 62.8702C24.2398 61.7619 23.3924 60.8558 22.3181 60.3122C21.2438 59.7687 20.0118 59.6227 18.8402 59.9002V59.8702Z" fill="#004056"/>
<path d="M44.9002 56.4702C46.2257 55.9177 47.6555 55.6601 49.0904 55.7153C50.5254 55.7706 51.9312 56.1374 53.2102 56.7902C55.4465 57.9917 57.3394 59.7435 58.7102 61.8802C60.4394 64.2661 61.2844 67.1794 61.1002 70.1202C60.7128 73.5429 58.9828 76.672 56.2902 78.8202C54.5488 80.2338 52.3732 81.0037 50.1302 81.0002C47.6481 81.0045 45.2375 80.1693 43.2902 78.6302C40.915 76.8822 39.2047 74.3785 38.4402 71.5302C38.2674 70.7117 38.1438 69.8835 38.0702 69.0502C37.6054 68.8091 37.2148 68.4461 36.9402 68.0002C36.4228 66.9161 36.299 65.6856 36.5902 64.5202C37.1302 62.1602 38.9102 60.3502 40.7702 58.9202C42.0473 57.9462 43.4332 57.1241 44.9002 56.4702ZM47.9002 60.5302C46.6254 60.9567 45.4195 61.5665 44.3202 62.3402C43.433 62.907 42.6171 63.5785 41.8902 64.3402C42.5657 65.2511 43.0334 66.2991 43.2602 67.4102C43.6059 68.5627 44.0648 69.6781 44.6302 70.7402C45.503 72.6225 46.9675 74.1677 48.8002 75.1402C49.3351 75.4186 49.9201 75.5876 50.521 75.6373C51.122 75.6871 51.7268 75.6167 52.3002 75.4302C53.7838 74.8208 55.0029 73.7045 55.7402 72.2802C56.196 71.5666 56.5035 70.7685 56.6443 69.9336C56.7852 69.0986 56.7566 68.2439 56.5602 67.4202C55.8814 64.9719 54.3536 62.8451 52.2502 61.4202C51.6406 60.9658 50.9387 60.6505 50.194 60.4968C49.4493 60.343 48.68 60.3544 47.9402 60.5302H47.9002Z" fill="#004056"/>
<path d="M28.6201 79.8199C29.9732 79.7157 31.3324 79.9148 32.5988 80.4027C33.8651 80.8905 35.0066 81.6548 35.9401 82.6399C37.9872 84.8151 39.3382 87.552 39.8201 90.4999C40.4391 93.3149 39.9559 96.2601 38.4701 98.7299C36.7325 101.222 34.0927 102.94 31.1101 103.52C28.7284 103.936 26.2789 103.389 24.3001 102C22.9608 101.054 21.8309 99.8419 20.9809 98.4396C20.131 97.0373 19.5792 95.4749 19.3601 93.8499C19.0798 92.3267 19.3045 90.7537 20.0001 89.3699C20.2597 88.655 20.4407 87.914 20.5401 87.1599C20.7954 85.8107 21.3302 84.53 22.1101 83.3999C22.895 82.3921 23.8771 81.555 24.9964 80.9394C26.1157 80.3239 27.3487 79.943 28.6201 79.8199ZM29.6201 84.8199C27.9401 85.0099 26.8401 86.4499 26.0501 87.8199C25.0281 89.4114 24.5573 91.2947 24.7101 93.1799C24.8001 93.7999 24.1401 94.4099 24.5201 94.9999C25.2566 96.6637 26.6179 97.9712 28.3101 98.6399C29.3776 98.915 30.4998 98.8947 31.5567 98.5812C32.6136 98.2676 33.5653 97.6727 34.3101 96.8599C34.773 96.3092 35.1219 95.672 35.3365 94.9853C35.5511 94.2987 35.6271 93.5762 35.5601 92.8599C35.4923 90.314 34.4634 87.8881 32.6801 86.0699C32.2873 85.6653 31.8134 85.3484 31.2895 85.1398C30.7656 84.9313 30.2035 84.8359 29.6401 84.8599L29.6201 84.8199Z" fill="#004056"/>
<path d="M67.1998 81C68.6565 80.7677 70.148 80.897 71.5431 81.3765C72.9381 81.8561 74.1938 82.6711 75.1998 83.75C76.4169 85.0878 77.3673 86.6457 77.9998 88.34C79.2806 91.527 79.4288 95.0569 78.4198 98.34C77.5673 100.832 75.8216 102.92 73.5198 104.2C72.3576 104.904 71.0556 105.346 69.7049 105.495C68.3542 105.643 66.9873 105.495 65.6998 105.06C63.8796 104.263 62.3202 102.971 61.1998 101.33C59.8611 99.5985 58.9652 97.5663 58.5898 95.41C58.302 93.8827 58.5307 92.303 59.2398 90.92C59.7698 89.92 59.7098 88.77 60.0998 87.74C60.5411 86.3239 61.2172 84.9921 62.0998 83.8C63.3968 82.2703 65.2129 81.2732 67.1998 81ZM68.5498 86.36C67.6806 86.6901 66.8988 87.2151 66.2643 87.8947C65.6298 88.5742 65.1596 89.3903 64.8898 90.28C64.3747 91.3342 64.18 92.5163 64.3298 93.68C64.7605 95.7269 65.6761 97.6405 66.9998 99.26C67.2265 99.5894 67.5235 99.8643 67.8694 100.065C68.2152 100.266 68.6014 100.387 68.9998 100.42C69.7258 100.435 70.446 100.288 71.1084 99.991C71.7708 99.6936 72.3587 99.2526 72.8298 98.7C73.8148 97.5401 74.3444 96.0616 74.3198 94.54C74.4398 91.86 73.6598 88.91 71.4998 87.16C71.1239 86.7763 70.6518 86.5005 70.1329 86.3616C69.6139 86.2226 69.0672 86.2255 68.5498 86.37V86.36Z" fill="#004056"/>
<path d="M83.9999 59.7703C85.6626 59.6506 87.3276 59.9678 88.8299 60.6903C90.4711 61.6549 91.7925 63.0807 92.6299 64.7903C93.3673 66.1688 93.816 67.6832 93.9483 69.2409C94.0807 70.7987 93.8941 72.3671 93.3999 73.8503C92.8124 75.3761 91.8598 76.7345 90.6255 77.8067C89.3912 78.8789 87.9128 79.6321 86.3199 80.0003C83.8993 80.5443 81.3638 80.2016 79.1745 79.0344C76.9852 77.8673 75.2874 75.9532 74.3899 73.6403C73.4775 71.4419 73.4133 68.9832 74.2099 66.7403C74.5499 65.8403 75.3999 65.2803 75.7499 64.3903C77.2199 61.3303 80.7699 59.8203 83.9999 59.7703ZM82.4899 64.4603C80.8099 64.8103 78.9599 65.7203 78.3299 67.4603C78.5892 69.5081 79.4446 71.4346 80.7899 73.0003C81.2673 73.5948 81.8595 74.0872 82.5313 74.448C83.203 74.8088 83.9406 75.0306 84.6999 75.1003C85.5337 75.0513 86.3405 74.7869 87.0415 74.3329C87.7426 73.879 88.314 73.251 88.6999 72.5103C89.3531 71.1766 89.4885 69.648 89.0799 68.2203C88.9194 67.4661 88.5941 66.7568 88.1273 66.143C87.6605 65.5293 87.0638 65.0264 86.3799 64.6703C85.1399 64.2495 83.8083 64.1769 82.5299 64.4603H82.4899Z" fill="#004056"/>
<path d="M26.9401 0.130131C28.7793 -0.207221 30.6786 0.118775 32.3001 1.05013C33.5297 1.85853 34.5391 2.95981 35.2376 4.25498C35.9361 5.55016 36.3018 6.99861 36.3018 8.47013C36.3018 9.94165 35.9361 11.3901 35.2376 12.6853C34.5391 13.9804 33.5297 15.0817 32.3001 15.8901C31.3631 16.5417 30.2811 16.9543 29.1482 17.092C28.0152 17.2297 26.8659 17.0883 25.8001 16.6801C23.6737 15.6964 21.9706 13.9826 21.0001 11.8501C20.5565 11.122 20.2198 10.334 20.0001 9.51013C19.7842 8.36025 19.9057 7.17244 20.3501 6.09013C21.1586 4.25638 22.4134 2.65431 24.0001 1.43013C24.8493 0.746669 25.8631 0.298364 26.9401 0.130131ZM25.1101 5.52013C24.0824 6.26649 23.2603 7.26065 22.7201 8.41013C23.8301 9.41013 24.7201 10.6201 25.7201 11.6201C26.3609 12.3197 27.2441 12.7488 28.1901 12.8201C29.0375 12.7967 29.8572 12.5137 30.5386 12.0094C31.22 11.505 31.7301 10.8037 32.0001 10.0001C32.2858 9.14144 32.3296 8.22069 32.1268 7.33875C31.9239 6.45681 31.4822 5.64772 30.8501 5.00013C30.5311 4.70659 30.1482 4.49139 29.7316 4.37162C29.315 4.25185 28.8762 4.2308 28.4501 4.31013C27.2505 4.41641 26.0994 4.83345 25.1101 5.52013Z" fill="#004056"/>
<path d="M8.59001 20.8601C9.87933 20.7077 11.1863 20.8294 12.4253 21.2172C13.6643 21.6049 14.8075 22.2499 15.78 23.1101C17.1558 24.202 18.2703 25.5875 19.0419 27.1654C19.8136 28.7433 20.2229 30.4737 20.24 32.2301C20.0993 34.7086 19.0488 37.0481 17.29 38.8001C15.9605 40.3215 14.2268 41.4346 12.29 42.0101C10.0374 42.4488 7.70253 41.9933 5.78001 40.7401C3.97809 39.7379 2.49218 38.252 1.49001 36.4501C1.00606 35.5342 0.604479 34.5771 0.290013 33.5901C-0.101702 31.7351 -0.012196 29.8107 0.550013 28.0001C0.930681 26.4331 1.67396 24.9773 2.72001 23.7501C4.3058 22.1677 6.36886 21.152 8.59001 20.8601ZM9.08001 26.0601C7.13001 26.5501 5.94001 28.3501 5.23001 30.1101C4.75775 31.1872 4.5257 32.3542 4.55001 33.5301C4.91154 34.1467 5.37864 34.6951 5.93001 35.1501C7.15257 36.3097 8.70305 37.064 10.37 37.3101C11.4691 37.2355 12.4987 36.7457 13.25 35.9401C14.3141 35.0433 15.11 33.8702 15.55 32.5501C15.7632 31.6336 15.6755 30.6728 15.3 29.8101C14.732 28.4076 13.7112 27.2354 12.4 26.4801C11.905 26.1863 11.3548 25.9974 10.7837 25.9251C10.2125 25.8529 9.63264 25.8988 9.08001 26.0601Z" fill="#004056"/>
</g>
<defs>
<clipPath id="clip0">
<rect width="94.04" height="105.54" fill="white"/>
</clipPath>
</defs>
</svg>
