<svg width="149" height="153" viewBox="0 0 149 153" fill="none" xmlns="http://www.w3.org/2000/svg">
<g clip-path="url(#clip0)">
<path d="M148.71 90C148.71 90.79 148.71 91.59 148.71 92.39C148.71 93.19 148.71 94 148.63 94.81C148.406 103.054 146.677 111.187 143.53 118.81C142.51 121.147 141.303 123.398 139.92 125.54C139.72 125.87 139.51 126.19 139.28 126.54C136.573 130.523 133.341 134.122 129.67 137.24C129.43 137.45 129.19 137.66 128.94 137.85C128.43 138.28 127.94 138.7 127.39 139.1C121.402 143.667 114.622 147.088 107.39 149.19L106.52 149.44C105.03 149.86 103.52 150.23 102.01 150.55C97.2064 151.545 92.316 152.064 87.4102 152.1C87.2637 152.11 87.1167 152.11 86.9702 152.1C81.8032 152.144 76.6426 151.726 71.5502 150.85C69.9902 150.59 68.4402 150.28 66.8902 149.94L65.6002 149.64C57.8726 147.809 50.4069 145.01 43.3802 141.31C40.7136 139.917 38.1502 138.403 35.6902 136.77C35.1702 136.44 34.6902 136.09 34.1402 135.77C29.5775 132.633 25.3278 129.063 21.4502 125.11C15.3161 118.869 10.2486 111.663 6.45024 103.78C2.71465 95.9952 0.546833 87.5516 0.0702419 78.93C-0.182031 73.4005 0.302214 67.8619 1.51024 62.46C1.62024 61.96 1.73024 61.46 1.85024 60.97C2.53262 58.1798 3.3774 55.4318 4.38024 52.74C4.79024 51.67 5.21024 50.61 5.66024 49.55C5.81024 49 5.98024 48.44 6.15024 47.88C6.25024 47.53 6.36024 47.18 6.48024 46.88C6.85024 45.72 7.24024 44.56 7.67024 43.42C10.8124 34.984 15.5256 27.2202 21.5602 20.54C23.651 18.2491 25.8963 16.1041 28.2802 14.12C28.5202 13.92 28.7602 13.72 29.0102 13.53C33.0965 10.2121 37.5853 7.42336 42.3702 5.23004C44.0636 4.4567 45.7869 3.77337 47.5402 3.18004L48.4002 2.89004C54.6705 0.864954 61.232 -0.111498 67.8202 3.57134e-05C68.5602 3.57134e-05 69.3002 3.57106e-05 70.0402 0.0700357L71.1202 0.130036C78.8889 0.687882 86.5185 2.48387 93.7202 5.45004C96.1702 6.45004 98.5802 7.57004 100.92 8.81004C101.3 9.00004 101.69 9.21004 102.06 9.42004C107.21 12.2339 112.047 15.5859 116.49 19.42C118.982 21.5599 121.349 23.8403 123.58 26.25C124.12 26.85 124.66 27.44 125.19 28.05C128.351 31.6472 131.226 35.4855 133.79 39.53C138.568 47.0725 142.27 55.2446 144.79 63.81C147.325 72.3116 148.645 81.1289 148.71 90Z" fill="#E0CFA8"/>
<path d="M35.6603 136.77C35.1403 136.44 34.6603 136.09 34.1103 135.77C32.5503 132.63 31.0503 129.44 29.5703 126.25C23.7503 113.58 18.3003 100.77 12.7203 88L1.51025 62.46C1.62025 61.96 1.73025 61.46 1.85025 60.97L6.00025 70.41C11.6803 83.39 17.3469 96.3666 23.0003 109.34C27.0903 118.55 31.1403 127.78 35.6603 136.77Z" fill="#F60000"/>
<path d="M66.8602 149.94L65.5702 149.64C61.0902 142.91 57.0002 135.94 53.0002 128.87C48.8302 121.35 44.8802 113.71 40.9302 106.07C36.9802 98.4301 33.1002 90.7901 29.0002 83.2601C24.9002 75.7301 20.5802 68.4001 15.8702 61.2601C12.8702 56.6701 9.6102 52.1901 6.2002 47.8701C6.3002 47.5201 6.4102 47.1701 6.5302 46.8701C10.7102 52.1101 14.5302 57.6001 18.2202 63.2301C22.8602 70.4401 27.1302 77.8801 31.2202 85.4301C35.3102 92.9801 39.2202 100.64 43.1702 108.28C47.1202 115.92 51.1702 123.6 55.3802 131.12C59.0002 137.5 62.7602 143.82 66.8602 149.94Z" fill="#F60000"/>
<path d="M87.3803 152.09C87.3155 152.134 87.2388 152.158 87.1603 152.158C87.0818 152.158 87.0051 152.134 86.9403 152.09C86.873 152.053 86.8175 151.997 86.7803 151.93C86.1603 150.8 85.5503 149.66 84.9503 148.52C80.0503 139.29 75.6403 129.82 71.5103 120.23C67.3803 110.64 63.5803 100.97 59.8503 91.23C56.1203 81.49 52.4403 71.63 48.6803 61.85C44.9203 52.07 41.0003 42.31 36.8503 32.67C34.1403 26.42 31.3003 20.23 28.2803 14.12C28.5203 13.92 28.7603 13.72 29.0103 13.53C32.6203 20.83 36.0103 28.26 39.1703 35.76C43.2403 45.35 47.0403 55.04 50.7703 64.76C54.5003 74.48 58.1603 84.36 61.9303 94.13C65.7003 103.9 69.6203 113.69 73.8403 123.31C78.0603 132.93 82.5703 142.31 87.5703 151.46C87.6029 151.513 87.6239 151.572 87.6319 151.634C87.6399 151.696 87.6348 151.758 87.6168 151.818C87.5989 151.877 87.5685 151.932 87.5277 151.979C87.487 152.026 87.4367 152.064 87.3803 152.09Z" fill="#F60000"/>
<path d="M107.36 149.18L106.49 149.43L105.22 146.25C101.22 136.25 97.22 126.25 93.22 116.25C89.22 106.25 85.22 96.3001 81.22 86.4001C77.22 76.4001 73.19 66.4001 69.13 56.4001L57.03 26.6001L47.54 3.18014L48.4 2.89014C52.1334 11.9301 55.8267 20.9668 59.48 30.0001C63.5334 39.9335 67.5634 49.8668 71.57 59.8001C75.5767 69.7335 79.6067 79.7335 83.66 89.8001C87.66 99.7401 91.66 109.69 95.66 119.65C99.56 129.497 103.46 139.34 107.36 149.18Z" fill="#F60000"/>
<path d="M129.65 137.23C129.41 137.44 129.17 137.65 128.92 137.84C124.92 128.59 121.19 119.26 117.52 109.89C113.68 100.12 109.94 90.3201 106.14 80.5301C102.34 70.7401 98.56 61.0901 94.55 51.4501C90.54 41.8101 86.33 32.2001 81.8 22.7601C78.11 15.0801 74.22 7.50008 70 0.0800781L71.08 0.140078C75.76 8.49008 80.08 17.0401 84.17 25.6901C88.59 35.1201 92.72 44.6901 96.67 54.3101C100.62 63.9301 104.43 73.6901 108.2 83.4201C111.97 93.1501 115.7 102.93 119.54 112.66C122.83 120.89 126.16 129.09 129.65 137.23Z" fill="#F60000"/>
<path d="M139.9 125.56C139.7 125.89 139.49 126.21 139.26 126.56L138.87 125.42C136.097 117.247 133.347 109.07 130.62 100.89C127.894 92.7101 125.2 84.5467 122.54 76.4001C119.874 68.1867 117.207 59.9801 114.54 51.7801C111.874 43.5801 109.247 35.3601 106.66 27.1201C104.74 21.0201 102.827 14.9201 100.92 8.82007C101.3 9.01007 101.69 9.22007 102.06 9.43007C104.2 16.2834 106.357 23.1301 108.53 29.9701C111.124 38.1567 113.737 46.3367 116.37 54.5101C119.004 62.6834 121.67 70.8867 124.37 79.1201C127.037 87.3201 129.75 95.5101 132.51 103.69C134.964 110.99 137.427 118.28 139.9 125.56Z" fill="#F60000"/>
<path d="M148.69 92.41C148.69 93.21 148.69 94.02 148.61 94.83C143.89 82.01 139.187 69.18 134.5 56.34C130.84 46.34 127.2 36.2966 123.58 26.21C124.12 26.81 124.66 27.4 125.19 28.01C126.38 31.32 127.58 34.61 128.78 37.91C133.773 51.6833 138.79 65.4466 143.83 79.2C145.45 83.6 147.07 88.0033 148.69 92.41Z" fill="#F60000"/>
</g>
<defs>
<clipPath id="clip0">
<rect width="148.71" height="152.16" fill="white"/>
</clipPath>
</defs>
</svg>
