<svg width="181" height="131" viewBox="0 0 181 131" fill="none" xmlns="http://www.w3.org/2000/svg">
<g clip-path="url(#clip0)">
<path d="M1.21014 52.4899C1.00014 49.6299 3.42014 47.8799 5.57014 46.5699C7.57014 45.1199 10.1601 45.9199 12.4201 46.0799C19.0901 47.1799 25.8501 47.4599 32.5201 48.5899C38.2247 48.8497 43.8486 50.0387 49.1701 52.1099C53.3601 53.8999 56.9701 57.6699 57.4301 62.3599C57.8901 67.0499 55.3701 71.2699 52.4301 74.6299C45.0306 82.7526 36.5117 89.7799 27.1301 95.4999C23.2901 97.9999 19.0001 100.86 14.1801 99.9999C9.30014 98.8799 6.46014 94.2699 4.72014 89.9999C1.63014 82.2699 -0.999861 73.9099 0.370139 65.5299C0.890139 61.1999 1.00014 56.8399 1.21014 52.4899ZM17.6901 70.4899C18.6201 75.7599 19.0401 81.1099 20.0501 86.3699C24.3101 84.1899 27.8801 80.9099 31.3201 77.6399C35.0668 74.0606 38.4994 70.1663 41.5801 65.9999C32.4501 63.4399 23.0601 61.6999 14.2001 58.1899C15.2301 62.2999 17.0001 66.2299 17.6901 70.4499V70.4899Z" fill="#004056"/>
<path d="M49.8102 4.05993C49.4402 1.46993 52.1802 -0.130075 54.4802 0.0599252C64.4609 0.113697 74.417 1.05743 84.2302 2.87993C89.3302 3.71993 94.6902 5.57993 97.9202 9.87993C101.35 14.2299 101.86 20.0299 101.74 25.3799C101.598 33.7808 100.199 42.1131 97.5902 50.0999C96.1602 54.4799 92.8502 58.4099 88.3002 59.6399C83.1102 61.3999 77.3002 59.7499 73.2102 56.3299C68.0002 52.0799 64.0002 46.5799 60.4202 40.8999C57.2302 35.7799 55.8202 29.8999 53.8602 24.2199C52.6702 20.5599 51.3202 16.9499 50.3402 13.2199C49.5102 10.2399 50.0002 7.11993 49.8102 4.05993ZM74.2002 26.6099C79.3702 32.5099 82.0002 39.9999 85.4902 46.8499C86.9602 44.4599 87.0902 41.5699 87.6502 38.8499C88.7302 32.9999 89.3502 26.9999 88.3002 21.0799C88.0002 19.6899 87.5602 18.0799 86.1702 17.3999C82.4002 15.3899 78.0702 14.9999 74.0002 13.9999C69.9762 12.9335 65.8967 12.0889 61.7802 11.4699C65.1502 17.0999 69.7502 21.8299 74.2002 26.6099Z" fill="#004056"/>
<path d="M84.19 93.9998C83.72 90.6098 85.78 87.6098 87.56 84.9198C90.07 81.6898 94.56 81.5898 98.32 81.1898C108.58 80.6398 118.87 80.1198 129.13 80.7298C134.03 80.9898 139.38 82.1598 142.73 86.0398C145.98 89.7298 146.3 95.1398 145.06 99.6998C142.909 107.147 139.224 114.062 134.24 120C129.57 125.65 122.79 130.34 115.24 130.29C108.32 130.22 102.76 125.44 98.36 120.58C94.36 116.32 92.11 110.79 89.28 105.73C87.35 102 85 98.2198 84.19 93.9998ZM110.68 108C112.68 110.5 114.14 113.39 116.34 115.72C117.42 117.16 119.19 115.64 120.21 114.85C124.852 110.416 127.935 104.6 129 98.2698C119.94 97.9098 110.87 97.7498 101.8 97.5498C104.43 101.31 108 104.32 110.68 108Z" fill="#004056"/>
<path d="M123.73 8.47C123.554 7.74644 123.542 6.99268 123.694 6.26379C123.847 5.5349 124.16 4.84928 124.612 4.25701C125.063 3.66473 125.641 3.18077 126.303 2.84045C126.966 2.50014 127.696 2.31208 128.44 2.29C138.61 2.2 148.71 3.7 158.8 4.74C164 5.51 169.23 6.23 174 8.39C175.777 9.20682 177.291 10.5037 178.37 12.1345C179.45 13.7653 180.052 15.6651 180.11 17.62C180.21 22.51 178.03 27.03 176.05 31.38C172.924 38.038 169.199 44.3976 164.92 50.38C161.67 54.59 157.42 58.64 151.92 59.38C146.59 60.38 141.44 57.05 138.62 52.73C135.37 47.73 133.38 42.06 131.76 36.38C129.44 27 125.52 18 123.73 8.47ZM152.33 43.15C154.826 40.4229 156.979 37.4004 158.74 34.15C161.65 28.97 164.74 23.85 166.74 18.21C156.98 15.72 147.08 13.85 137.14 12.21C141.48 22.85 147.55 32.68 152.33 43.15Z" fill="#004056"/>
</g>
<defs>
<clipPath id="clip0">
<rect width="180.16" height="130.33" fill="white"/>
</clipPath>
</defs>
</svg>
