<svg width="89" height="68" viewBox="0 0 89 68" fill="none" xmlns="http://www.w3.org/2000/svg">
<g clip-path="url(#clip0)">
<path d="M37.4801 9.13995C35.6301 4.93995 29.8901 -2.62005 24.6801 0.919954C20.3701 3.83995 22.5001 10.74 25.1901 14.01C27.2901 16.57 31.8401 19.51 35.0001 17.09C36.7501 15.75 37.6401 11.8 37.4801 9.13995Z" fill="#F60000"/>
<path d="M53.4202 31.37C48.6602 20.17 37.8002 30.68 45.2602 36.07C47.6502 37.8 50.1702 38.77 52.3202 36.42C53.7302 34.88 54.3202 32.37 53.2102 30.63" fill="#F60000"/>
<path d="M28.42 40.0599C20.97 28.0599 8.42001 43.4199 19.04 48.0599C25 50.6299 28 45.4099 28.42 40.0599Z" fill="#F60000"/>
<path d="M41.4502 61C37.4502 60.22 33.3802 60.46 32.2002 65C34.3402 66.84 38.1202 68.84 40.9202 67.12C42.6902 66.04 44.3602 62.19 42.1202 61.12" fill="#F60000"/>
<path d="M65.5 13.38C65.16 7.86003 56.23 3.05003 57.36 11.31C58.08 16.55 64.42 19.97 65.5 13.38Z" fill="#F60000"/>
<path d="M9.85999 22.1501C10.58 18.3301 8.76999 15.9201 4.97999 14.6501C1.97999 13.6501 0.539986 14.0901 0.0399864 17.2701C-0.720014 22.0501 9.46999 27.8901 9.85999 22.1501Z" fill="#F60000"/>
<path d="M63.3598 60.6498C62.2598 59.2398 59.7898 55.2498 57.5898 56.8298C55.9898 57.9698 56.9898 59.9198 57.6798 61.1298C58.3698 62.3398 60.1898 64.9398 62.0398 64.4598C63.2798 64.1398 64.1698 61.7798 63.0998 60.8298" fill="#F60000"/>
<path d="M86.1299 37.1C84.6399 34.56 79.7399 30.8 76.9099 33.59C74.6699 35.8 76.6999 38.15 78.7999 39.31C81.6399 40.88 85.4199 40.5 86.1299 37.1Z" fill="#F60000"/>
<path d="M88.73 60.9999C87.29 59.2899 83.73 56.3199 81.28 57.6399C80.8505 57.9102 80.483 58.2683 80.2017 58.6906C79.9203 59.113 79.7314 59.59 79.6474 60.0905C79.5633 60.5909 79.586 61.1035 79.714 61.5946C79.842 62.0857 80.0724 62.5441 80.39 62.9399C82.32 65.3599 88.16 64.9999 88.73 60.9999Z" fill="#F60000"/>
</g>
<defs>
<clipPath id="clip0">
<rect width="88.73" height="67.83" fill="white"/>
</clipPath>
</defs>
</svg>
