<svg width="65" height="93" viewBox="0 0 65 93" fill="none" xmlns="http://www.w3.org/2000/svg">
<g clip-path="url(#clip0)">
<path d="M64.6698 5.91992L63.7498 6.91992C58.4398 13.4199 54.6798 20.8199 49.2898 28.3299C45.2898 33.4599 41.9898 40.0599 38.7698 45.6299C47.1298 32.8299 54.8898 18.7799 64.9298 7.62992C65.1941 9.54239 64.8439 11.4894 63.9298 13.1899C61.0798 17.2799 58.3798 21.3799 55.7698 25.4799L54.2198 24.5899C48.4698 37.2499 38.9098 46.6099 33.9998 59.6799C34.4498 59.3799 34.6198 59.8099 34.8198 60.0499C34.8091 60.0799 34.7921 60.1072 34.7698 60.1299C34.7921 60.1072 34.8091 60.0799 34.8198 60.0499C34.9998 60.2499 35.1998 60.2999 35.6298 59.5599C35.1998 60.2999 34.9998 60.2499 34.8198 60.0499C41.2398 48.0499 47.9698 37.2999 55.5198 25.9899C44.1998 43.7999 34.7898 61.8099 23.9998 80.4999L22.1598 83.6899C19.2957 86.1275 16.894 89.061 15.0698 92.3499C13.5798 90.4199 7.83982 91.3499 12.3098 85.4299L10.7498 84.5299C5.10982 89.7799 -1.73018 89.0099 0.399819 81.7399C2.99982 73.6699 10.0698 65.0099 14.3598 55.7999C17.6598 49.1999 20.9498 42.5999 25.4098 36.6799C31.6498 28.5899 36.7898 18.7999 43.4098 10.9399C45.6498 8.00992 47.6998 1.72992 49.7898 0.809919C50.2204 0.477052 50.7635 0.324375 51.3045 0.384071C51.8455 0.443766 52.3421 0.71117 52.6898 1.12992C49.5298 6.28992 46.4698 11.4899 43.3098 16.5499C39.2098 22.6399 35.0598 28.6899 30.6298 34.5499C35.267 28.8498 39.5038 22.8354 43.3098 16.5499C46.6398 11.6099 49.9498 6.63992 53.3098 1.72992C53.9246 2.44724 54.7508 2.95136 55.6698 3.16992L57.0498 0.779919C60.8398 -1.28008 63.0498 1.08992 64.1298 3.77992C64.3298 4.43992 64.5198 5.15992 64.6698 5.91992Z" fill="#F60000"/>
</g>
<defs>
<clipPath id="clip0">
<rect width="64.99" height="92.35" fill="white"/>
</clipPath>
</defs>
</svg>
