<svg width="136" height="135" viewBox="0 0 136 135" fill="none" xmlns="http://www.w3.org/2000/svg">
<g clip-path="url(#clip0)">
<path d="M127.35 38.6699C124.289 31.8465 119.865 25.7211 114.35 20.6699C108.798 15.8592 102.534 11.9393 95.7798 9.04991C81.4898 2.67991 65.5598 -1.30009 49.8398 0.389905C36.7298 1.79991 23.8398 7.3899 14.7798 17.1499C12.583 19.5095 10.6453 22.0976 8.9998 24.8699C8.91313 25.0331 8.8678 25.2151 8.8678 25.3999C8.8678 25.5847 8.91313 25.7667 8.9998 25.9299C-2.8302 46.4299 -2.5802 72.9999 7.3498 94.3199C13.2617 107.168 22.8713 117.962 34.9498 125.32C47.5151 132.921 62.2823 136.047 76.8498 134.19C91.1527 132.375 104.662 126.594 115.85 117.5C126.624 108.689 133.561 96.0417 135.2 82.2199C137 67.4899 133.54 51.9999 127.35 38.6699ZM120.57 109.54C111.86 119.38 99.8498 125.94 87.3098 129.54C73.2198 133.54 58.4398 133.23 44.8398 127.6C32.185 122.287 21.4706 113.21 14.1498 101.6C-0.140198 79.0599 -2.0702 48.1199 12.2998 25.1599C14.0627 22.3234 16.0704 19.6465 18.2998 17.1599C18.3498 17.1099 18.3598 17.0499 18.3998 16.9999C24.8181 10.9797 32.6542 6.67984 41.1798 4.49991C55.6398 0.629905 71.0598 2.7199 84.9998 7.4899C98.4798 12.0799 112 19.0299 120.19 31.0899C124.135 37.1213 127.168 43.7023 129.19 50.6199C131.358 57.4268 132.639 64.4851 133 71.6199C133.68 85.4599 129.86 99.0599 120.57 109.54Z" fill="#004055"/>
<path d="M118.15 39.8399C112.5 29.2799 103.15 21.3799 92.29 16.5499C81.1967 11.7825 69.1999 9.48273 57.13 9.8099C44.66 10.0499 31.83 13.4299 22.62 22.2699C21.95 22.9199 21.31 23.5999 20.7 24.2699C20.5107 24.2783 20.327 24.3363 20.1673 24.4381C20.0076 24.5399 19.8775 24.6819 19.79 24.8499C19.49 25.3799 19.21 25.9099 18.92 26.4399C18.35 27.2099 17.79 27.9799 17.28 28.7899C17.1661 28.9498 17.0984 29.1379 17.0843 29.3337C17.0702 29.5295 17.1102 29.7253 17.2 29.8999C7.68996 50.4799 8.45996 75.3399 21.34 94.3799C27.5277 103.635 36.1229 111.027 46.2 115.76C56.8873 120.605 68.8057 122.046 80.34 119.89C91.7866 117.852 102.243 112.099 110.09 103.52C117.566 95.1497 122.405 84.7588 124 73.6499C125.69 62.0446 123.641 50.2025 118.15 39.8399ZM87.28 115.53C76.5284 119.132 64.9269 119.328 54.06 116.09C43.844 112.902 34.7395 106.887 27.8 98.7399C12.46 81.0499 9.38996 55.8799 18 34.3599C18.88 32.1333 19.8815 29.9567 21 27.8399C27.56 19.2599 38 14.5399 48.54 12.9999C60.4735 11.3693 72.6208 12.432 84.09 16.1099C94.59 19.4399 104.41 25.2599 111.33 33.9499C118.526 43.2267 122.32 54.6919 122.08 66.4299C121.72 88.1399 108.1 108.52 87.28 115.53Z" fill="#004055"/>
<path d="M102.18 55.9299C98.8598 39.5099 84.7798 28.2799 68.9998 24.5299C60.3398 22.4599 49.2198 21.2799 41.4298 26.5299C34.5098 31.1699 31.2098 39.5299 30.2698 47.4699C30.2385 47.635 30.2385 47.8047 30.2698 47.9699C28.459 60.0102 30.9975 72.3019 37.4298 82.6399C41.5172 89.3869 47.8569 94.4729 55.3298 96.9999C63.4753 99.4963 72.2537 98.9163 79.9998 95.3699C87.7243 91.8887 94.1654 86.077 98.4198 78.7499C102.44 71.8654 103.778 63.74 102.18 55.9299ZM98.3798 73.1499C95.3448 80.5165 90.0325 86.7188 83.2198 90.8499C76.6278 95.0199 68.7862 96.7566 61.0498 95.7599C53.5027 94.623 46.6819 90.6272 41.9998 84.5999C36.7898 78.0499 33.7798 69.6799 32.7198 61.4399C31.5898 52.6399 32.7798 43.5199 37.0398 35.6599C37.1281 35.5103 37.182 35.343 37.1975 35.17C37.2131 34.997 37.19 34.8228 37.1298 34.6599C38.3268 32.6975 39.8446 30.95 41.6198 29.4899C47.8098 24.4899 56.7498 24.8999 64.1698 26.0699C79.0598 28.4599 93.3198 37.1699 98.5098 51.9999C101 58.838 100.954 66.3428 98.3798 73.1499Z" fill="#004055"/>
<path d="M85.08 61.36C84.08 53.55 77.08 47.91 69.91 45.73C64.28 44 55 43.71 50.78 48.64C50.5343 48.6382 50.2966 48.7269 50.1121 48.8892C49.9277 49.0515 49.8095 49.2761 49.78 49.52C49.71 49.82 49.65 50.13 49.59 50.43C49.3207 50.9325 49.0965 51.4579 48.92 52C48.867 52.1676 48.8539 52.3453 48.8817 52.5189C48.9095 52.6925 48.9774 52.8572 49.08 53C47.87 60.38 48 68.16 52.68 74.3C57.58 80.7 65.68 81.74 72.79 78.63C79.48 75.71 86.12 69.23 85.08 61.36ZM73.3 75.63C67.4 78.79 60.15 78.94 55.4 73.71C49.87 67.63 50.4 58.87 51.91 51.32C54.66 46.32 63.08 46.6 67.74 47.72C74.14 49.26 80.63 53.65 82.36 60.35C84.09 67.05 78.79 72.68 73.3 75.63Z" fill="#004055"/>
<path d="M66.5199 62.8298L66.4399 62.9098L66.5199 62.8298Z" fill="#004055"/>
<path d="M68.88 59.8898C68.2431 59.0211 67.3922 58.3321 66.41 57.8898C65.3215 57.2937 64.0648 57.079 62.84 57.2798C62.0064 57.4527 61.2497 57.8871 60.68 58.5198C60.341 58.5976 60.0443 58.8013 59.85 59.0898C59.3393 59.8731 59.0801 60.7936 59.1069 61.7283C59.1337 62.6629 59.4453 63.5671 60 64.3198C60.6254 65.1252 61.4674 65.7356 62.4275 66.0792C63.3875 66.4228 64.4256 66.4855 65.42 66.2598C66.3412 66.0929 67.197 65.6707 67.89 65.0413C68.583 64.412 69.0854 63.6007 69.34 62.6998C69.4684 62.2257 69.4938 61.7297 69.4144 61.245C69.3351 60.7603 69.1529 60.2982 68.88 59.8898ZM67 61.7998C67.0046 61.843 67.0046 61.8866 67 61.9298C66.9791 62.0181 66.9523 62.105 66.92 62.1898C66.92 62.2498 66.77 62.5198 66.92 62.2398C66.8974 62.2951 66.8707 62.3486 66.84 62.3998C66.77 62.5398 66.68 62.6698 66.6 62.7998C66.6 62.7998 66.53 62.8798 66.53 62.8698L66.42 62.9898C66.3283 63.0882 66.2315 63.1816 66.13 63.2698L65.93 63.4098L65.54 63.6098L65.2 63.7198L64.78 63.8198H64.03H63.83H63.64L63.19 63.6898L63 63.6498H62.91C62.7611 63.5728 62.6174 63.4859 62.48 63.3898L62.26 63.1898L62.06 62.9998L62 62.9098C61.91 62.7598 61.84 62.6098 61.75 62.4598C61.66 62.3098 61.68 62.2598 61.66 62.1598L61.6 61.9198C61.5899 61.7633 61.5899 61.6063 61.6 61.4498V61.3698C61.6 61.3698 61.6 61.1498 61.6 61.1298C61.5943 61.1034 61.5943 61.0762 61.6 61.0498C61.752 61.0139 61.8946 60.9464 62.0187 60.8516C62.1428 60.7568 62.2454 60.637 62.32 60.4998C62.3638 60.4286 62.4039 60.3552 62.44 60.2798L62.58 60.1398L62.72 60.0298L62.79 59.9798L62.97 59.8898C63.09 59.8898 63.2 59.8198 63.31 59.7998H63.43H64.03L64.32 59.8698C64.5492 59.8987 64.7763 59.9421 65 59.9998H65.07L65.39 60.1698C65.531 60.2423 65.6678 60.3224 65.8 60.4098L66.29 60.7298L66.53 60.9498C66.6084 61.0215 66.6819 61.0983 66.75 61.1798L66.86 61.3598C66.8363 61.3325 66.8162 61.3022 66.8 61.2698L66.87 61.4098C66.8665 61.4664 66.8665 61.5232 66.87 61.5798L67 61.7998Z" fill="#004055"/>
</g>
<defs>
<clipPath id="clip0">
<rect width="135.66" height="134.75" fill="white"/>
</clipPath>
</defs>
</svg>
