<svg width="44" height="48" viewBox="0 0 44 48" fill="none" xmlns="http://www.w3.org/2000/svg">
<path d="M29.0815 14.9733C27.205 13.0695 24.6599 12 22.0061 12C19.3523 12 16.8072 13.0695 14.9307 14.9733C13.0542 16.877 12 19.459 12 22.1513C12 24.8436 13.0542 27.4257 14.9307 29.3294L21.1453 35.6461C21.2549 35.7583 21.3853 35.8473 21.529 35.908C21.6727 35.9687 21.8269 36 21.9825 36C22.1382 36 22.2923 35.9687 22.436 35.908C22.5797 35.8473 22.7102 35.7583 22.8198 35.6461L29.0815 29.2696C30.9502 27.3738 32 24.8025 32 22.1214C32 19.4404 30.9502 16.8691 29.0815 14.9733ZM27.3952 27.5588L22.0061 33.0501L16.617 27.5588C15.5524 26.4777 14.8275 25.1006 14.5341 23.6017C14.2408 22.1027 14.392 20.5491 14.9688 19.1374C15.5456 17.7256 16.522 16.519 17.7746 15.6701C19.0272 14.8212 20.4998 14.3681 22.0061 14.3681C23.5125 14.3681 24.985 14.8212 26.2376 15.6701C27.4902 16.519 28.4666 17.7256 29.0434 19.1374C29.6202 20.5491 29.7715 22.1027 29.4781 23.6017C29.1847 25.1006 28.4599 26.4777 27.3952 27.5588ZM18.4684 18.4786C17.5164 19.4473 16.9819 20.7595 16.9819 22.1274C16.9819 23.4954 17.5164 24.8075 18.4684 25.7763C19.1757 26.495 20.0764 26.9859 21.0576 27.1872C22.0388 27.3886 23.0568 27.2915 23.9838 26.9082C24.9108 26.5248 25.7056 25.8723 26.2684 25.0324C26.8313 24.1926 27.1371 23.2028 27.1476 22.1872C27.1529 21.5091 27.0241 20.8369 26.7689 20.2101C26.5137 19.5834 26.1372 19.0149 25.6617 18.5384C25.1944 18.0533 24.6371 17.6669 24.0219 17.4012C23.4068 17.1355 22.7459 16.9959 22.0773 16.9903C21.4088 16.9848 20.7458 17.1134 20.1264 17.3688C19.507 17.6242 18.9436 18.0014 18.4684 18.4786ZM23.999 24.0775C23.5521 24.5377 22.9616 24.8263 22.3282 24.8937C21.6949 24.9611 21.0581 24.8032 20.5268 24.447C19.9955 24.0909 19.6026 23.5585 19.4154 22.941C19.2281 22.3235 19.2581 21.6592 19.5002 21.0616C19.7423 20.4641 20.1815 19.9704 20.7427 19.665C21.3039 19.3596 21.9522 19.2615 22.5768 19.3873C23.2014 19.5132 23.7635 19.8553 24.1671 20.3551C24.5706 20.8549 24.7905 21.4813 24.7891 22.1274C24.772 22.8659 24.4666 23.5672 23.9401 24.0775H23.999Z" fill="#0D1009"/>
</svg>
