<svg width="48" height="48" viewBox="0 0 48 48" fill="none" xmlns="http://www.w3.org/2000/svg">
<path fill-rule="evenodd" clip-rule="evenodd" d="M35.99 35.4171L34.5991 30.2171C34.5192 29.9257 34.5592 29.6114 34.696 29.3371C35.9102 26.8971 36.315 23.9829 35.5682 20.9429C34.5535 16.8286 31.3497 13.5257 27.2566 12.4343C26.1392 12.1429 25.039 12 23.973 12C16.3226 12 10.3483 19.1943 12.412 27.2C13.3697 30.9029 17.3146 34.7371 21.0257 35.64C22.029 35.8857 23.0153 36 23.973 36C26.0309 36 27.9578 35.4686 29.6509 34.5543C29.839 34.4514 30.0499 34.3943 30.2551 34.3943C30.3577 34.3943 30.4604 34.4057 30.563 34.4343L35.6138 35.7886C35.6423 35.7943 35.6708 35.8 35.6936 35.8C35.8874 35.8 36.0413 35.6171 35.99 35.4171ZM33.0029 30.6457L33.7896 33.5886L30.9905 32.84C30.7511 32.7771 30.506 32.7429 30.2551 32.7429C29.7763 32.7429 29.2917 32.8686 28.8585 33.1029C27.3364 33.9257 25.6946 34.3429 23.973 34.3429C23.1236 34.3429 22.2628 34.2343 21.4134 34.0286C18.2723 33.2629 14.812 29.88 14.0139 26.7829C13.1816 23.5486 13.8371 20.2286 15.8096 17.6743C17.782 15.12 20.7578 13.6571 23.973 13.6571C24.9193 13.6571 25.8827 13.7829 26.8347 14.04C30.352 14.9771 33.0827 17.7771 33.9663 21.3429C34.5877 23.8571 34.3311 26.3657 33.2195 28.6C32.9003 29.24 32.8204 29.9657 33.0029 30.6457Z" fill="#0D1009" stroke="#0D1009" stroke-width="0.7"/>
</svg>
