<svg width="48" height="45" viewBox="0 0 48 45" fill="none" xmlns="http://www.w3.org/2000/svg">
<path d="M23.9992 32.8691C23.5497 32.8691 23.1206 32.7266 22.7579 32.4568C20.2956 30.6295 14.4107 26.0841 12.9343 23.3304C11.0033 19.7318 12.1629 15.11 15.5141 13.0282C16.5971 12.3563 17.8231 12 19.0696 12C20.9342 12 22.6864 12.7635 23.9992 14.1225C25.3121 12.7635 27.0643 12 28.9289 12C30.1753 12 31.4014 12.3563 32.4844 13.0282C35.8355 15.11 36.9951 19.7318 35.0692 23.3304C33.5929 26.0841 27.708 30.6295 25.2457 32.4568C24.8779 32.7266 24.4488 32.8691 23.9992 32.8691ZM19.0696 13.527C18.1092 13.527 17.1641 13.8019 16.3263 14.3211C13.6444 15.9906 12.7249 19.7063 14.283 22.6076C15.652 25.1628 21.8128 29.8558 23.6672 31.2301C23.8613 31.3727 24.132 31.3727 24.3262 31.2301C26.1805 29.8507 32.3413 25.1577 33.7104 22.6076C35.2685 19.7063 34.3489 15.9855 31.667 14.3211C30.8343 13.8019 29.8893 13.527 28.9289 13.527C27.2482 13.527 25.6748 14.3414 24.6122 15.7564L23.9992 16.581L23.3862 15.7564C22.3237 14.3414 20.7554 13.527 19.0696 13.527Z" fill="#0D1009" stroke="#0D1009" stroke-width="0.7"/>
</svg>
