<svg width="48" height="52" viewBox="0 0 48 52" fill="none" xmlns="http://www.w3.org/2000/svg">
<path d="M34.5 12H13.5C12.675 12 12 12.5992 12 13.3397V39.2864C12 40.0269 12.4875 40.2154 13.095 39.697L23.3925 30.9315C23.6325 30.7295 24.03 30.7295 24.27 30.9247L34.8975 39.7172C35.505 40.2222 36 40.0269 36 39.2864V13.3397C36 12.5992 35.3325 12 34.5 12ZM33.75 36.0279L25.7925 29.4436C25.2375 28.9858 24.54 28.7569 23.835 28.7569C23.115 28.7569 22.4025 28.9925 21.8475 29.4638L14.25 35.9336V14.0197H33.75V36.0279Z" fill="#0D1009" stroke="#0D1009" stroke-width="0.7"/>
</svg>
