<svg width="48" height="45" viewBox="0 0 48 45" fill="none" xmlns="http://www.w3.org/2000/svg">
<path fill-rule="evenodd" clip-rule="evenodd" d="M35.8613 12.5096C35.6808 12.1911 35.3358 12 34.9642 12L13.0454 12.0159C12.6048 12.0159 12.2226 12.2867 12.0686 12.6954C11.9571 12.9927 11.9837 13.3112 12.1323 13.5713C12.1907 13.6669 12.265 13.7571 12.3553 13.8367L20.8011 21.12L22.8608 32.0608C22.9404 32.4908 23.2695 32.8093 23.7048 32.8783C24.1348 32.9473 24.5595 32.7456 24.7825 32.3687L35.856 13.5448C36.0471 13.221 36.0471 12.8281 35.8613 12.5096ZM14.5371 13.5925H32.3842L21.6398 19.7239L14.5371 13.5925ZM24.1561 30.2878L22.4255 21.0935L33.1858 14.9568L24.1561 30.2878Z" fill="#0D1009" stroke="#0D1009" stroke-width="0.7"/>
</svg>
