<svg width="30" height="49" viewBox="0 0 30 49" fill="none" xmlns="http://www.w3.org/2000/svg">
<path d="M15 30.8916C14.4067 30.8916 13.8266 31.0675 13.3333 31.3972C12.8399 31.7268 12.4554 32.1954 12.2284 32.7435C12.0013 33.2917 11.9419 33.8949 12.0576 34.4769C12.1734 35.0588 12.4591 35.5934 12.8787 36.0129C13.2982 36.4325 13.8328 36.7182 14.4147 36.834C14.9967 36.9497 15.5999 36.8903 16.1481 36.6632C16.6962 36.4362 17.1648 36.0517 17.4944 35.5583C17.8241 35.065 18 34.4849 18 33.8916C18 33.096 17.6839 32.3329 17.1213 31.7703C16.5587 31.2077 15.7957 30.8916 15 30.8916ZM15 12.8916C14.2044 12.8916 13.4413 13.2077 12.8787 13.7703C12.3161 14.3329 12 15.096 12 15.8916V24.8916C12 25.6873 12.3161 26.4503 12.8787 27.0129C13.4413 27.5755 14.2044 27.8916 15 27.8916C15.7957 27.8916 16.5587 27.5755 17.1213 27.0129C17.6839 26.4503 18 25.6873 18 24.8916V15.8916C18 15.096 17.6839 14.3329 17.1213 13.7703C16.5587 13.2077 15.7957 12.8916 15 12.8916Z" fill="black"/>
</svg>
