<svg width="630" height="694" viewBox="0 0 630 694" fill="none" xmlns="http://www.w3.org/2000/svg">
<g clip-path="url(#clip0)">
<path d="M421.439 676.327C404.016 682.135 333.663 703.837 244.028 686.859C212.84 680.954 127.212 663.531 60.7699 591.377C40.8682 569.772 11.4803 537.054 2.63301 485.926C0.213056 471.948 -5.11083 430.073 13.3389 385.488C32.137 340.245 47.0633 345.665 74.7088 290.51C96.6238 246.757 110.117 195.125 115.19 175.669C120.713 155.053 127.588 134.824 135.769 115.112C136.35 113.699 136.931 112.363 137.589 110.872C145.333 93.4485 159.368 62.4732 190.111 37.5574C226.333 8.11143 265.962 3.0973 282.495 1.21941C326.984 -3.87216 360.94 7.7436 387.192 17.1136C458.358 42.4747 505.653 86.905 529.001 112.44C541.759 126.418 608.917 202.114 624.812 323.46C630.62 367.987 645.643 482.48 571.36 577.284C520.076 642.738 451.853 666.26 421.439 676.327Z" fill="#FFEFC5"/>
</g>
<g clip-path="url(#clip1)">
<path d="M319.202 331.244C317.583 331.127 315.96 330.967 314.333 330.766C295.384 328.421 277.555 320.498 263.1 307.999C248.644 295.5 238.212 278.986 233.122 260.545C228.032 242.104 228.513 222.565 234.504 204.399C240.496 186.232 251.728 170.254 266.781 158.484C284.829 144.374 307.292 137.149 330.163 138.097C353.034 139.046 374.824 148.106 391.647 163.662C392.294 164.262 392.677 165.095 392.712 165.978C392.746 166.861 392.429 167.722 391.83 168.37C391.231 169.019 390.4 169.403 389.519 169.437C388.638 169.471 387.779 169.154 387.132 168.553C370.542 153.22 348.804 144.701 326.236 144.689C303.667 144.677 281.92 153.173 265.314 168.489C248.708 183.805 238.459 204.82 236.603 227.36C234.747 249.899 241.419 272.314 255.294 290.151C262.534 299.505 271.553 307.327 281.83 313.163C292.106 319 303.436 322.736 315.164 324.154C364.354 330.236 409.314 295.078 415.388 245.792C415.459 245.199 415.531 244.597 415.59 244.012C415.635 243.576 415.765 243.154 415.973 242.77C416.18 242.385 416.462 242.045 416.801 241.769C417.139 241.493 417.529 241.286 417.947 241.161C418.366 241.036 418.805 240.995 419.239 241.04C419.673 241.085 420.094 241.216 420.478 241.424C420.862 241.632 421.202 241.914 421.477 242.253C421.752 242.593 421.958 242.983 422.083 243.402C422.208 243.822 422.249 244.262 422.204 244.697C422.136 245.334 422.065 245.971 421.985 246.605C415.65 297.918 370.097 334.96 319.202 331.244Z" fill="#003F54"/>
<path d="M319.722 315.785C318.371 315.687 317.019 315.554 315.668 315.387C305.125 314.083 294.941 310.711 285.698 305.463C276.455 300.215 268.335 293.194 261.8 284.801C255.265 276.407 250.443 266.806 247.611 256.546C244.779 246.285 243.992 235.566 245.294 225.001C250.775 180.638 291.22 148.993 335.489 154.481C348.355 156.075 360.652 160.737 371.348 168.075C372.075 168.576 372.573 169.344 372.734 170.213C372.894 171.081 372.704 171.978 372.205 172.706C371.706 173.434 370.939 173.933 370.072 174.094C369.206 174.255 368.311 174.064 367.584 173.564C357.784 166.799 346.49 162.522 334.675 161.101C294.058 156.079 256.907 185.103 251.891 225.817C249.946 241.632 253.117 257.656 260.94 271.529C268.763 285.403 280.823 296.393 295.346 302.883C309.869 309.373 326.087 311.019 341.613 307.58C357.14 304.141 371.155 295.797 381.595 283.778C382.175 283.112 382.995 282.704 383.875 282.644C384.755 282.584 385.622 282.876 386.287 283.457C386.952 284.038 387.359 284.86 387.419 285.742C387.479 286.624 387.187 287.493 386.607 288.159C378.364 297.652 368.028 305.09 356.419 309.885C344.81 314.68 332.246 316.701 319.722 315.785Z" fill="#003F54"/>
<path d="M268.955 261.815C268.352 261.769 267.772 261.56 267.279 261.209C266.785 260.858 266.396 260.379 266.153 259.824C264.541 256.165 263.31 252.349 262.481 248.436C261.289 242.156 260.997 235.737 261.614 229.374C262.318 222.873 266.213 200.421 286.901 184.421C293.836 179.056 312.509 167.036 336.078 171.278C343.116 172.562 349.855 175.145 355.951 178.897C356.324 179.125 356.648 179.423 356.906 179.777C357.163 180.13 357.349 180.53 357.452 180.955C357.555 181.38 357.573 181.821 357.506 182.253C357.439 182.685 357.287 183.1 357.06 183.473C356.833 183.847 356.535 184.172 356.183 184.43C355.83 184.688 355.431 184.874 355.006 184.977C354.582 185.08 354.142 185.099 353.711 185.031C353.28 184.964 352.866 184.812 352.493 184.585C347.098 181.26 341.133 178.969 334.902 177.83C313.952 174.066 297.195 184.868 290.963 189.691C271.884 204.452 268.673 225.936 268.224 230.087C267.692 235.749 267.948 241.458 268.983 247.05C269.72 250.519 270.81 253.902 272.238 257.147C272.414 257.547 272.51 257.977 272.519 258.413C272.529 258.849 272.453 259.283 272.296 259.69C272.138 260.097 271.902 260.469 271.601 260.784C271.3 261.1 270.94 261.353 270.541 261.529C270.044 261.752 269.499 261.85 268.955 261.815Z" fill="#003F54"/>
<path d="M410.908 213.446C417.634 213.446 423.086 207.982 423.086 201.242C423.086 194.502 417.634 189.038 410.908 189.038C404.182 189.038 398.729 194.502 398.729 201.242C398.729 207.982 404.182 213.446 410.908 213.446Z" fill="#E5231E"/>
<path d="M155.026 464.686L155.293 369.759L187.555 369.851C194.023 369.867 199.636 371.023 204.395 373.32C208.966 375.452 212.81 378.884 215.448 383.19C218.056 387.476 219.353 392.628 219.339 398.648C219.392 403.065 218.519 407.444 216.776 411.501C215.139 415.231 212.652 418.525 209.514 421.116C206.369 423.718 202.556 425.645 198.075 426.896L228.97 464.893L205.373 464.826L178.147 428.979H173.727L173.628 464.762L155.026 464.686ZM173.771 413.421H181.692C185.561 413.421 188.834 412.875 191.513 411.784C194.023 410.816 196.18 409.106 197.698 406.881C199.142 404.719 199.868 402.123 199.876 399.09C199.876 394.491 198.306 390.949 195.166 388.464C192.026 385.978 187.561 384.729 181.771 384.715L173.85 384.692L173.771 413.421Z" fill="#E5231E"/>
<path d="M282.524 466.885C276.128 466.914 269.796 465.604 263.935 463.037C258.229 460.535 253.07 456.933 248.752 452.435C239.769 443.037 234.771 430.517 234.808 417.504C234.844 404.491 239.912 391.999 248.947 382.652C253.291 378.181 258.47 374.608 264.189 372.137C270.079 369.649 276.409 368.375 282.801 368.393C289.193 368.411 295.516 369.72 301.392 372.241C307.098 374.743 312.257 378.345 316.575 382.844C325.557 392.241 330.555 404.761 330.519 417.774C330.483 430.787 325.415 443.279 316.38 452.626C312.037 457.1 306.858 460.673 301.137 463.141C295.261 465.676 288.921 466.951 282.524 466.885ZM282.524 448.938C286.354 448.992 290.15 448.217 293.653 446.667C297.01 445.154 300.01 442.947 302.457 440.191C305.015 437.292 306.993 433.928 308.284 430.281C311.064 422.136 311.088 413.3 308.351 405.14C307.082 401.482 305.124 398.102 302.584 395.183C300.15 392.416 297.163 390.193 293.816 388.659C290.318 387.13 286.545 386.336 282.73 386.325C278.914 386.314 275.136 387.087 271.63 388.595C268.261 390.102 265.251 392.31 262.798 395.071C260.244 397.968 258.274 401.333 256.999 404.981C254.263 413.133 254.238 421.954 256.928 430.122C258.179 433.783 260.13 437.165 262.671 440.079C265.109 442.854 268.107 445.077 271.467 446.604C274.941 448.169 278.711 448.965 282.52 448.938H282.524Z" fill="#E5231E"/>
<path d="M361.117 467.108C352.315 467.084 344.746 464.07 338.41 458.067L344.651 442.668C349.349 447.052 353.86 449.251 358.184 449.264C362.159 449.264 365.272 447.893 367.524 445.15C369.777 442.407 370.907 438.612 370.915 433.766L371.09 370.369L389.691 370.42L389.488 438.653C389.464 447.703 386.938 454.714 381.909 459.688C376.879 464.661 369.949 467.135 361.117 467.108Z" fill="#E5231E"/>
<path d="M455.097 467.371C448.701 467.398 442.37 466.088 436.508 463.523C430.803 461.021 425.644 457.42 421.325 452.925C412.339 443.528 407.339 431.007 407.375 417.992C407.412 404.978 412.482 392.484 421.52 383.138C425.864 378.667 431.043 375.094 436.762 372.623C442.652 370.135 448.982 368.862 455.374 368.879C461.766 368.897 468.089 370.206 473.964 372.727C479.67 375.23 484.829 378.832 489.147 383.33C498.13 392.727 503.128 405.247 503.092 418.26C503.056 431.273 497.988 443.765 488.953 453.112C484.609 457.585 479.43 461.158 473.71 463.627C467.834 466.16 461.494 467.435 455.097 467.371ZM455.097 449.424C458.926 449.478 462.722 448.703 466.226 447.153C469.582 445.639 472.582 443.432 475.03 440.677C477.591 437.774 479.571 434.404 480.86 430.751C483.639 422.606 483.665 413.771 480.932 405.611C479.659 401.967 477.7 398.603 475.161 395.701C472.736 392.933 469.757 390.709 466.417 389.173C462.918 387.644 459.145 386.85 455.328 386.839C451.512 386.828 447.734 387.6 444.226 389.109C440.859 390.616 437.85 392.824 435.399 395.585C432.843 398.48 430.873 401.846 429.6 405.495C426.858 413.646 426.833 422.469 429.528 430.636C430.78 434.297 432.73 437.679 435.272 440.593C437.706 443.352 440.696 445.563 444.044 447.082C447.515 448.648 451.282 449.446 455.089 449.424H455.097Z" fill="#E5231E"/>
<path d="M167.121 530.57C164.6 530.597 162.122 529.916 159.967 528.606C157.823 527.293 156.067 525.432 154.88 523.213C153.596 520.808 152.949 518.113 153 515.386C152.952 512.687 153.578 510.019 154.82 507.623C155.978 505.407 157.713 503.545 159.84 502.234C162.03 500.894 164.555 500.203 167.121 500.243C169.252 500.225 171.358 500.707 173.27 501.649C175.072 502.517 176.608 503.854 177.718 505.52V501.139H184.633V529.665H177.714V525.109C176.501 526.79 174.916 528.167 173.083 529.132C171.243 530.093 169.196 530.587 167.121 530.57ZM169.109 524.635C170.708 524.664 172.284 524.25 173.664 523.44C174.98 522.653 176.058 521.521 176.78 520.166C177.529 518.688 177.92 517.054 177.92 515.396C177.92 513.739 177.529 512.104 176.78 510.627C176.053 509.282 174.978 508.159 173.668 507.376C172.288 506.566 170.712 506.153 169.113 506.182C167.512 506.157 165.934 506.57 164.55 507.376C163.224 508.16 162.138 509.292 161.41 510.65C160.66 512.126 160.269 513.758 160.269 515.414C160.269 517.07 160.66 518.702 161.41 520.178C162.137 521.537 163.223 522.67 164.55 523.452C165.931 524.251 167.502 524.66 169.097 524.635H169.109Z" fill="#E5231E"/>
<path d="M235.504 544.999C231.76 544.999 228.606 544.293 226.041 542.88C223.519 541.519 221.533 539.339 220.409 536.699L226.081 533.971C226.94 535.556 228.257 536.843 229.86 537.663C231.596 538.59 233.537 539.064 235.504 539.041C237.172 539.075 238.822 538.702 240.314 537.954C241.675 537.258 242.812 536.191 243.593 534.875C244.415 533.451 244.828 531.827 244.785 530.183V525.108C243.581 526.811 241.984 528.197 240.13 529.148C238.276 530.099 236.22 530.586 234.137 530.569C231.639 530.594 229.185 529.918 227.05 528.617C224.909 527.308 223.154 525.453 221.963 523.24C220.672 520.837 220.021 518.142 220.071 515.414C220.022 512.702 220.659 510.021 221.923 507.623C223.101 505.407 224.848 503.547 226.983 502.234C229.189 500.893 231.728 500.202 234.308 500.242C236.405 500.222 238.476 500.7 240.353 501.636C242.144 502.517 243.673 503.852 244.789 505.508V501.127H251.713V530.434C251.776 533.107 251.147 535.751 249.889 538.109C248.643 540.32 246.745 542.091 244.455 543.179C242.044 544.39 239.06 544.997 235.504 544.999ZM236.117 524.634C237.734 524.663 239.329 524.25 240.731 523.439C242.056 522.661 243.142 521.532 243.871 520.177C244.625 518.704 245.018 517.072 245.018 515.416C245.018 513.76 244.625 512.128 243.871 510.654C243.139 509.293 242.053 508.155 240.727 507.364C239.35 506.557 237.779 506.143 236.184 506.169C234.584 506.145 233.008 506.558 231.625 507.364C230.296 508.15 229.21 509.288 228.485 510.654C227.741 512.13 227.353 513.761 227.353 515.416C227.353 517.07 227.741 518.701 228.485 520.177C229.205 521.53 230.281 522.658 231.597 523.439C232.968 524.241 234.53 524.654 236.117 524.634Z" fill="#E5231E"/>
<path d="M302.584 530.569C299.739 530.613 296.93 529.927 294.424 528.577C292.08 527.313 290.113 525.448 288.724 523.172C287.314 520.85 286.587 518.176 286.626 515.457C286.609 513.418 287.015 511.397 287.818 509.523C289.398 505.847 292.351 502.937 296.046 501.417C297.968 500.626 300.029 500.228 302.107 500.246C304.82 500.186 307.504 500.819 309.905 502.086C312.095 503.272 313.907 505.053 315.132 507.224C316.421 509.566 317.069 512.209 317.008 514.884C317.008 515.127 317.008 515.326 316.984 515.485C316.96 515.644 316.924 515.907 316.868 516.282H293.701C293.667 517.878 294.071 519.453 294.869 520.834C295.648 522.145 296.78 523.208 298.136 523.901C299.63 524.656 301.285 525.034 302.957 525.001C304.548 525.027 306.122 524.668 307.544 523.953C308.983 523.175 310.232 522.087 311.201 520.767L316.233 523.356C314.884 525.615 312.934 527.454 310.601 528.665C308.126 529.953 305.372 530.607 302.584 530.569ZM293.991 511.932H310.143C309.943 510.722 309.447 509.579 308.701 508.606C307.954 507.634 306.979 506.861 305.863 506.356C304.677 505.814 303.386 505.542 302.083 505.559C300.735 505.542 299.399 505.813 298.164 506.356C297.057 506.842 296.091 507.599 295.354 508.559C294.615 509.546 294.145 510.708 293.991 511.932Z" fill="#E5231E"/>
<path d="M352.127 529.677V501.151H359.047V504.576C360.106 503.254 361.452 502.192 362.982 501.47C364.741 500.643 366.667 500.235 368.61 500.275C370.615 500.229 372.596 500.716 374.353 501.685C375.984 502.614 377.311 503.998 378.173 505.668C379.122 507.548 379.591 509.635 379.536 511.742V529.709H372.604V513.156C372.604 510.782 372.016 508.948 370.84 507.655C369.663 506.362 368.038 505.717 365.963 505.719C364.676 505.687 363.402 505.989 362.266 506.596C361.272 507.142 360.447 507.953 359.882 508.938C359.321 509.927 359.033 511.047 359.047 512.184V529.677H352.127Z" fill="#E5231E"/>
<path d="M429.871 530.569C425.748 530.595 421.774 529.026 418.778 526.188C417.339 524.821 416.183 523.183 415.375 521.369C414.539 519.489 414.116 517.452 414.135 515.394C414.126 513.387 414.532 511.401 415.328 509.559C416.103 507.746 417.227 506.103 418.635 504.724C420.077 503.317 421.776 502.202 423.639 501.438C425.61 500.631 427.722 500.225 429.851 500.243C431.655 500.232 433.45 500.501 435.173 501.039C436.692 501.488 438.119 502.206 439.386 503.158L436.914 507.838C435.282 506.59 433.27 505.968 430.88 505.97C429.098 505.924 427.338 506.372 425.793 507.265C424.402 508.09 423.267 509.285 422.514 510.718C421.753 512.155 421.361 513.759 421.373 515.386C421.347 517.056 421.758 518.704 422.565 520.166C423.355 521.582 424.519 522.753 425.928 523.551C427.455 524.409 429.182 524.842 430.932 524.806C432.05 524.814 433.162 524.644 434.227 524.304C435.184 524.006 436.082 523.544 436.882 522.938L439.382 527.618C438.114 528.555 436.7 529.273 435.197 529.745C433.477 530.304 431.679 530.582 429.871 530.569Z" fill="#E5231E"/>
<path d="M473.599 544.163L481.993 527.14L468.479 501.146H476.373L486.023 520.368L494.557 501.146H502.45L481.492 544.163H473.599Z" fill="#E5231E"/>
</g>
<defs>
<clipPath id="clip0">
<rect width="630" height="693.228" fill="white"/>
</clipPath>
<clipPath id="clip1">
<rect width="350" height="407" fill="white" transform="translate(153 138)"/>
</clipPath>
</defs>
</svg>
